<ttFont>
    <TTGlyph name=".notdef" xMin="180" yMin="-435" xMax="1421" yMax="1540">
      <contour>
        <pt x="180" y="1540" on="1"/>
        <pt x="1421" y="1540" on="1"/>
        <pt x="1421" y="-435" on="1"/>
        <pt x="180" y="-435" on="1"/>
      </contour>
      <contour>
        <pt x="877" y="552" on="1"/>
        <pt x="1275" y="-286" on="1"/>
        <pt x="1275" y="1391" on="1"/>
      </contour>
      <contour>
        <pt x="723" y="552" on="1"/>
        <pt x="326" y="1391" on="1"/>
        <pt x="326" y="-286" on="1"/>
      </contour>
      <contour>
        <pt x="800" y="390" on="1"/>
        <pt x="471" y="-306" on="1"/>
        <pt x="1130" y="-306" on="1"/>
      </contour>
      <contour>
        <pt x="800" y="715" on="1"/>
        <pt x="1130" y="1411" on="1"/>
        <pt x="471" y="1411" on="1"/>
      </contour>
    </TTGlyph>
    <TTGlyph name="A" xMin="-8" yMin="0" xMax="1226" yMax="1353">
      <contour>
        <pt x="-8" y="98" on="1"/>
        <pt x="100" y="127" on="1"/>
        <pt x="540" y="1353" on="1"/>
        <pt x="689" y="1353" on="1"/>
        <pt x="1118" y="127" on="1"/>
        <pt x="1226" y="98" on="1"/>
        <pt x="1206" y="0" on="1"/>
        <pt x="821" y="0" on="1"/>
        <pt x="801" y="98" on="1"/>
        <pt x="929" y="127" on="1"/>
        <pt x="835" y="406" on="1"/>
        <pt x="344" y="406" on="1"/>
        <pt x="248" y="127" on="1"/>
        <pt x="376" y="98" on="1"/>
        <pt x="356" y="0" on="1"/>
        <pt x="12" y="0" on="1"/>
      </contour>
      <contour>
        <pt x="389" y="535" on="1"/>
        <pt x="791" y="535" on="1"/>
        <pt x="597" y="1104" on="1"/>
        <pt x="587" y="1104" on="1"/>
      </contour>
    </TTGlyph>
    <TTGlyph name="AE" xMin="-12" yMin="0" xMax="1678" yMax="1353">
      <contour>
        <pt x="-12" y="98" on="1"/>
        <pt x="118" y="129" on="1"/>
        <pt x="756" y="1353" on="1"/>
        <pt x="1624" y="1353" on="1"/>
        <pt x="1648" y="1053" on="1"/>
        <pt x="1545" y="1031" on="1"/>
        <pt x="1462" y="1224" on="1"/>
        <pt x="1010" y="1224" on="1"/>
        <pt x="1010" y="772" on="1"/>
        <pt x="1367" y="772" on="1"/>
        <pt x="1401" y="894" on="1"/>
        <pt x="1500" y="874" on="1"/>
        <pt x="1500" y="540" on="1"/>
        <pt x="1401" y="520" on="1"/>
        <pt x="1367" y="643" on="1"/>
        <pt x="1010" y="643" on="1"/>
        <pt x="1010" y="129" on="1"/>
        <pt x="1491" y="129" on="1"/>
        <pt x="1574" y="322" on="1"/>
        <pt x="1678" y="299" on="1"/>
        <pt x="1654" y="0" on="1"/>
        <pt x="687" y="0" on="1"/>
        <pt x="667" y="98" on="1"/>
        <pt x="820" y="132" on="1"/>
        <pt x="820" y="406" on="1"/>
        <pt x="428" y="406" on="1"/>
        <pt x="284" y="125" on="1"/>
        <pt x="392" y="98" on="1"/>
        <pt x="372" y="0" on="1"/>
        <pt x="8" y="0" on="1"/>
      </contour>
      <contour>
        <pt x="820" y="535" on="1"/>
        <pt x="820" y="1169" on="1"/>
        <pt x="494" y="535" on="1"/>
      </contour>
    </TTGlyph>
    <TTGlyph name="AEacute" xMin="-12" yMin="0" xMax="1678" yMax="1784">
      <component glyphName="AE" x="0" y="0" flags="0x204"/>
      <component glyphName="acute.case" x="849" y="0" flags="0x4"/>
    </TTGlyph>
    <TTGlyph name="Aacute" xMin="-8" yMin="0" xMax="1226" yMax="1784">
      <component glyphName="A" x="0" y="0" flags="0x204"/>
      <component glyphName="acute.case" x="387" y="0" flags="0x4"/>
    </TTGlyph>
    <TTGlyph name="Abreve" xMin="-8" yMin="0" xMax="1226" yMax="1759">
      <component glyphName="A" x="0" y="0" flags="0x204"/>
      <component glyphName="breve.case" x="339" y="0" flags="0x4"/>
    </TTGlyph>
    <TTGlyph name="Acircumflex" xMin="-8" yMin="0" xMax="1226" yMax="1794">
      <component glyphName="A" x="0" y="0" flags="0x204"/>
      <component glyphName="circumflex.case" x="344" y="0" flags="0x4"/>
    </TTGlyph>
    <TTGlyph name="Adieresis" xMin="-8" yMin="0" xMax="1226" yMax="1707">
      <component glyphName="A" x="0" y="0" flags="0x204"/>
      <component glyphName="dieresis.case" x="338" y="0" flags="0x4"/>
    </TTGlyph>
    <TTGlyph name="Agrave" xMin="-8" yMin="0" xMax="1226" yMax="1784">
      <component glyphName="A" x="0" y="0" flags="0x204"/>
      <component glyphName="grave.case" x="219" y="0" flags="0x4"/>
    </TTGlyph>
    <TTGlyph name="Amacron" xMin="-8" yMin="0" xMax="1226" yMax="1660">
      <component glyphName="A" x="0" y="0" flags="0x204"/>
      <component glyphName="macron.case" x="355" y="0" flags="0x4"/>
    </TTGlyph>
    <TTGlyph name="Aogonek" xMin="-8" yMin="-457" xMax="1226" yMax="1353">
      <contour>
        <pt x="973" y="0" on="1"/>
        <pt x="931" y="-30" on="0"/>
        <pt x="864" y="-103" on="0"/>
        <pt x="816" y="-180" on="0"/>
        <pt x="791" y="-258" on="0"/>
        <pt x="791" y="-292" on="1"/>
        <pt x="791" y="-330" on="0"/>
        <pt x="827" y="-357" on="0"/>
        <pt x="858" y="-357" on="1"/>
        <pt x="887" y="-357" on="0"/>
        <pt x="943" y="-332" on="0"/>
        <pt x="966" y="-317" on="1"/>
        <pt x="992" y="-299" on="0"/>
        <pt x="1018" y="-277" on="1"/>
        <pt x="1018" y="-370" on="1"/>
        <pt x="994" y="-395" on="0"/>
        <pt x="961" y="-414" on="1"/>
        <pt x="933" y="-431" on="0"/>
        <pt x="856" y="-457" on="0"/>
        <pt x="808" y="-457" on="1"/>
        <pt x="729" y="-457" on="0"/>
        <pt x="650" y="-399" on="0"/>
        <pt x="650" y="-324" on="1"/>
        <pt x="650" y="-260" on="0"/>
        <pt x="704" y="-138" on="0"/>
        <pt x="794" y="-27" on="0"/>
        <pt x="852" y="23" on="1"/>
        <pt x="896" y="60" on="0"/>
        <pt x="941" y="94" on="1"/>
        <pt x="835" y="406" on="1"/>
        <pt x="344" y="406" on="1"/>
        <pt x="248" y="127" on="1"/>
        <pt x="376" y="98" on="1"/>
        <pt x="356" y="0" on="1"/>
        <pt x="12" y="0" on="1"/>
        <pt x="-8" y="98" on="1"/>
        <pt x="100" y="127" on="1"/>
        <pt x="540" y="1353" on="1"/>
        <pt x="689" y="1353" on="1"/>
        <pt x="1118" y="127" on="1"/>
        <pt x="1226" y="98" on="1"/>
        <pt x="1206" y="0" on="1"/>
      </contour>
      <contour>
        <pt x="389" y="535" on="1"/>
        <pt x="791" y="535" on="1"/>
        <pt x="597" y="1104" on="1"/>
        <pt x="587" y="1104" on="1"/>
      </contour>
    </TTGlyph>
    <TTGlyph name="Aring" xMin="-8" yMin="0" xMax="1226" yMax="1784">
      <component glyphName="A" x="0" y="0" flags="0x204"/>
      <component glyphName="ring.case" x="345" y="0" flags="0x4"/>
    </TTGlyph>
    <TTGlyph name="Aringacute" xMin="-8" yMin="0" xMax="1226" yMax="2163">
      <component glyphName="A" x="0" y="0" flags="0x204"/>
      <component glyphName="ring.case" x="345" y="0" flags="0x4"/>
      <component glyphName="acute.case" x="449" y="379" flags="0x4"/>
    </TTGlyph>
    <TTGlyph name="Atilde" xMin="-8" yMin="0" xMax="1226" yMax="1749">
      <component glyphName="A" x="0" y="0" flags="0x204"/>
      <component glyphName="tilde.case" x="346" y="0" flags="0x4"/>
    </TTGlyph>
    <TTGlyph name="B" xMin="76" yMin="0" xMax="1064" yMax="1353">
      <contour>
        <pt x="229" y="1221" on="1"/>
        <pt x="76" y="1255" on="1"/>
        <pt x="96" y="1353" on="1"/>
        <pt x="573" y="1353" on="1"/>
        <pt x="785" y="1353" on="0"/>
        <pt x="1006" y="1198" on="0"/>
        <pt x="1006" y="1041" on="1"/>
        <pt x="1006" y="927" on="0"/>
        <pt x="892" y="766" on="0"/>
        <pt x="809" y="724" on="1"/>
        <pt x="811" y="708" on="1"/>
        <pt x="922" y="687" on="0"/>
        <pt x="1064" y="534" on="0"/>
        <pt x="1064" y="418" on="1"/>
        <pt x="1064" y="225" on="0"/>
        <pt x="829" y="0" on="0"/>
        <pt x="624" y="0" on="1"/>
        <pt x="96" y="0" on="1"/>
        <pt x="76" y="98" on="1"/>
        <pt x="229" y="132" on="1"/>
      </contour>
      <contour>
        <pt x="419" y="638" on="1"/>
        <pt x="419" y="129" on="1"/>
        <pt x="556" y="129" on="1"/>
        <pt x="648" y="129" on="0"/>
        <pt x="786" y="153" on="0"/>
        <pt x="845" y="178" on="1"/>
        <pt x="858" y="219" on="0"/>
        <pt x="874" y="327" on="0"/>
        <pt x="874" y="392" on="1"/>
        <pt x="874" y="509" on="0"/>
        <pt x="712" y="638" on="0"/>
        <pt x="573" y="638" on="1"/>
      </contour>
      <contour>
        <pt x="419" y="1224" on="1"/>
        <pt x="419" y="767" on="1"/>
        <pt x="550" y="767" on="1"/>
        <pt x="628" y="767" on="0"/>
        <pt x="739" y="792" on="0"/>
        <pt x="777" y="806" on="1"/>
        <pt x="791" y="844" on="0"/>
        <pt x="816" y="948" on="0"/>
        <pt x="816" y="1013" on="1"/>
        <pt x="816" y="1121" on="0"/>
        <pt x="673" y="1224" on="0"/>
        <pt x="534" y="1224" on="1"/>
      </contour>
    </TTGlyph>
    <TTGlyph name="C" xMin="100" yMin="-22" xMax="1092" yMax="1375">
      <contour>
        <pt x="100" y="604" on="1"/>
        <pt x="100" y="985" on="0"/>
        <pt x="408" y="1375" on="0"/>
        <pt x="705" y="1375" on="1"/>
        <pt x="800" y="1375" on="0"/>
        <pt x="994" y="1345" on="0"/>
        <pt x="1068" y="1316" on="1"/>
        <pt x="1089" y="1046" on="1"/>
        <pt x="984" y="1024" on="1"/>
        <pt x="901" y="1219" on="1"/>
        <pt x="863" y="1231" on="0"/>
        <pt x="745" y="1246" on="0"/>
        <pt x="678" y="1246" on="1"/>
        <pt x="592" y="1246" on="0"/>
        <pt x="437" y="1200" on="0"/>
        <pt x="379" y="1158" on="1"/>
        <pt x="339" y="1066" on="0"/>
        <pt x="290" y="810" on="0"/>
        <pt x="290" y="683" on="1"/>
        <pt x="290" y="550" on="1"/>
        <pt x="290" y="336" on="0"/>
        <pt x="525" y="107" on="0"/>
        <pt x="723" y="107" on="1"/>
        <pt x="817" y="107" on="0"/>
        <pt x="1014" y="166" on="0"/>
        <pt x="1092" y="211" on="1"/>
        <pt x="1092" y="105" on="1"/>
        <pt x="999" y="45" on="0"/>
        <pt x="773" y="-22" on="0"/>
        <pt x="663" y="-22" on="1"/>
        <pt x="385" y="-22" on="0"/>
        <pt x="100" y="246" on="0"/>
        <pt x="100" y="515" on="1"/>
      </contour>
    </TTGlyph>
    <TTGlyph name="Cacute" xMin="100" yMin="-22" xMax="1092" yMax="1784">
      <component glyphName="C" x="0" y="0" flags="0x204"/>
      <component glyphName="acute.case" x="452" y="0" flags="0x4"/>
    </TTGlyph>
    <TTGlyph name="Ccaron" xMin="100" yMin="-22" xMax="1092" yMax="1794">
      <component glyphName="C" x="0" y="0" flags="0x204"/>
      <component glyphName="caron.case" x="399" y="0" flags="0x4"/>
    </TTGlyph>
    <TTGlyph name="Ccedilla" xMin="100" yMin="-457" xMax="1092" yMax="1375">
      <contour>
        <pt x="100" y="604" on="1"/>
        <pt x="100" y="985" on="0"/>
        <pt x="408" y="1375" on="0"/>
        <pt x="705" y="1375" on="1"/>
        <pt x="800" y="1375" on="0"/>
        <pt x="994" y="1345" on="0"/>
        <pt x="1068" y="1316" on="1"/>
        <pt x="1089" y="1046" on="1"/>
        <pt x="984" y="1024" on="1"/>
        <pt x="901" y="1219" on="1"/>
        <pt x="863" y="1231" on="0"/>
        <pt x="745" y="1246" on="0"/>
        <pt x="678" y="1246" on="1"/>
        <pt x="592" y="1246" on="0"/>
        <pt x="437" y="1200" on="0"/>
        <pt x="379" y="1158" on="1"/>
        <pt x="339" y="1066" on="0"/>
        <pt x="290" y="810" on="0"/>
        <pt x="290" y="683" on="1"/>
        <pt x="290" y="550" on="1"/>
        <pt x="290" y="336" on="0"/>
        <pt x="525" y="107" on="0"/>
        <pt x="723" y="107" on="1"/>
        <pt x="817" y="107" on="0"/>
        <pt x="1014" y="166" on="0"/>
        <pt x="1092" y="211" on="1"/>
        <pt x="1092" y="105" on="1"/>
        <pt x="999" y="45" on="0"/>
        <pt x="886" y="11" on="1"/>
        <pt x="803" y="-13" on="0"/>
        <pt x="721" y="-19" on="1"/>
        <pt x="693" y="-98" on="1"/>
        <pt x="735" y="-109" on="0"/>
        <pt x="805" y="-137" on="0"/>
        <pt x="856" y="-178" on="0"/>
        <pt x="885" y="-235" on="0"/>
        <pt x="885" y="-275" on="1"/>
        <pt x="885" y="-315" on="0"/>
        <pt x="854" y="-382" on="0"/>
        <pt x="795" y="-430" on="0"/>
        <pt x="710" y="-457" on="0"/>
        <pt x="657" y="-457" on="1"/>
        <pt x="617" y="-457" on="0"/>
        <pt x="549" y="-443" on="0"/>
        <pt x="523" y="-434" on="1"/>
        <pt x="493" y="-423" on="0"/>
        <pt x="467" y="-410" on="1"/>
        <pt x="467" y="-317" on="1"/>
        <pt x="494" y="-328" on="0"/>
        <pt x="524" y="-337" on="1"/>
        <pt x="550" y="-345" on="0"/>
        <pt x="614" y="-357" on="0"/>
        <pt x="647" y="-357" on="1"/>
        <pt x="667" y="-357" on="0"/>
        <pt x="698" y="-353" on="0"/>
        <pt x="709" y="-351" on="1"/>
        <pt x="721" y="-348" on="0"/>
        <pt x="730" y="-344" on="1"/>
        <pt x="733" y="-337" on="0"/>
        <pt x="737" y="-327" on="1"/>
        <pt x="739" y="-319" on="0"/>
        <pt x="744" y="-297" on="0"/>
        <pt x="744" y="-285" on="1"/>
        <pt x="744" y="-246" on="0"/>
        <pt x="667" y="-196" on="0"/>
        <pt x="583" y="-176" on="1"/>
        <pt x="549" y="-121" on="1"/>
        <pt x="588" y="-19" on="1"/>
        <pt x="365" y="-3" on="0"/>
        <pt x="242" y="112" on="1"/>
        <pt x="100" y="246" on="0"/>
        <pt x="100" y="515" on="1"/>
      </contour>
    </TTGlyph>
    <TTGlyph name="Ccircumflex" xMin="100" yMin="-22" xMax="1092" yMax="1794">
      <component glyphName="C" x="0" y="0" flags="0x204"/>
      <component glyphName="circumflex.case" x="409" y="0" flags="0x4"/>
    </TTGlyph>
    <TTGlyph name="Cdotaccent" xMin="100" yMin="-22" xMax="1092" yMax="1737">
      <component glyphName="C" x="0" y="0" flags="0x204"/>
      <component glyphName="dotaccent.case" x="412" y="0" flags="0x4"/>
    </TTGlyph>
    <TTGlyph name="D" xMin="78" yMin="0" xMax="1246" yMax="1353">
      <contour>
        <pt x="231" y="1221" on="1"/>
        <pt x="78" y="1255" on="1"/>
        <pt x="98" y="1353" on="1"/>
        <pt x="638" y="1353" on="1"/>
        <pt x="940" y="1353" on="0"/>
        <pt x="1246" y="1050" on="0"/>
        <pt x="1246" y="765" on="1"/>
        <pt x="1246" y="687" on="1"/>
        <pt x="1246" y="369" on="0"/>
        <pt x="936" y="0" on="0"/>
        <pt x="661" y="0" on="1"/>
        <pt x="98" y="0" on="1"/>
        <pt x="78" y="98" on="1"/>
        <pt x="231" y="132" on="1"/>
      </contour>
      <contour>
        <pt x="421" y="1224" on="1"/>
        <pt x="421" y="129" on="1"/>
        <pt x="632" y="129" on="1"/>
        <pt x="710" y="129" on="0"/>
        <pt x="850" y="154" on="0"/>
        <pt x="910" y="178" on="1"/>
        <pt x="972" y="255" on="0"/>
        <pt x="1056" y="491" on="0"/>
        <pt x="1056" y="622" on="1"/>
        <pt x="1056" y="716" on="1"/>
        <pt x="1056" y="957" on="0"/>
        <pt x="825" y="1224" on="0"/>
        <pt x="599" y="1224" on="1"/>
      </contour>
    </TTGlyph>
    <TTGlyph name="Dcaron" xMin="78" yMin="0" xMax="1246" yMax="1794">
      <component glyphName="D" x="0" y="0" flags="0x204"/>
      <component glyphName="caron.case" x="297" y="0" flags="0x4"/>
    </TTGlyph>
    <TTGlyph name="Dcroat" xMin="78" yMin="0" xMax="1246" yMax="1353">
      <contour>
        <pt x="78" y="758" on="1"/>
        <pt x="231" y="758" on="1"/>
        <pt x="231" y="1221" on="1"/>
        <pt x="78" y="1255" on="1"/>
        <pt x="98" y="1353" on="1"/>
        <pt x="638" y="1353" on="1"/>
        <pt x="792" y="1353" on="0"/>
        <pt x="1021" y="1274" on="0"/>
        <pt x="1172" y="1123" on="0"/>
        <pt x="1246" y="904" on="0"/>
        <pt x="1246" y="765" on="1"/>
        <pt x="1246" y="687" on="1"/>
        <pt x="1246" y="530" on="0"/>
        <pt x="1167" y="276" on="0"/>
        <pt x="1017" y="97" on="0"/>
        <pt x="800" y="0" on="0"/>
        <pt x="661" y="0" on="1"/>
        <pt x="98" y="0" on="1"/>
        <pt x="78" y="98" on="1"/>
        <pt x="231" y="132" on="1"/>
        <pt x="231" y="629" on="1"/>
        <pt x="78" y="629" on="1"/>
      </contour>
      <contour>
        <pt x="421" y="1224" on="1"/>
        <pt x="421" y="758" on="1"/>
        <pt x="711" y="758" on="1"/>
        <pt x="711" y="629" on="1"/>
        <pt x="421" y="629" on="1"/>
        <pt x="421" y="129" on="1"/>
        <pt x="632" y="129" on="1"/>
        <pt x="692" y="129" on="0"/>
        <pt x="794" y="144" on="0"/>
        <pt x="831" y="153" on="1"/>
        <pt x="874" y="164" on="0"/>
        <pt x="910" y="178" on="1"/>
        <pt x="950" y="230" on="0"/>
        <pt x="983" y="298" on="1"/>
        <pt x="1010" y="356" on="0"/>
        <pt x="1056" y="519" on="0"/>
        <pt x="1056" y="622" on="1"/>
        <pt x="1056" y="716" on="1"/>
        <pt x="1056" y="834" on="0"/>
        <pt x="1000" y="1022" on="0"/>
        <pt x="887" y="1154" on="0"/>
        <pt x="715" y="1224" on="0"/>
        <pt x="599" y="1224" on="1"/>
      </contour>
    </TTGlyph>
    <TTGlyph name="Ddotaccent" xMin="78" yMin="0" xMax="1246" yMax="1737">
      <component glyphName="D" x="0" y="0" flags="0x204"/>
      <component glyphName="dotaccent.case" x="310" y="0" flags="0x4"/>
    </TTGlyph>
    <TTGlyph name="E" xMin="76" yMin="0" xMax="1087" yMax="1353">
      <contour>
        <pt x="419" y="643" on="1"/>
        <pt x="419" y="129" on="1"/>
        <pt x="900" y="129" on="1"/>
        <pt x="983" y="322" on="1"/>
        <pt x="1087" y="299" on="1"/>
        <pt x="1063" y="0" on="1"/>
        <pt x="96" y="0" on="1"/>
        <pt x="76" y="98" on="1"/>
        <pt x="229" y="132" on="1"/>
        <pt x="229" y="1221" on="1"/>
        <pt x="76" y="1255" on="1"/>
        <pt x="96" y="1353" on="1"/>
        <pt x="1033" y="1353" on="1"/>
        <pt x="1057" y="1053" on="1"/>
        <pt x="954" y="1031" on="1"/>
        <pt x="871" y="1224" on="1"/>
        <pt x="419" y="1224" on="1"/>
        <pt x="419" y="772" on="1"/>
        <pt x="776" y="772" on="1"/>
        <pt x="810" y="894" on="1"/>
        <pt x="909" y="874" on="1"/>
        <pt x="909" y="540" on="1"/>
        <pt x="810" y="520" on="1"/>
        <pt x="776" y="643" on="1"/>
      </contour>
    </TTGlyph>
    <TTGlyph name="Eacute" xMin="76" yMin="0" xMax="1087" yMax="1784">
      <component glyphName="E" x="0" y="0" flags="0x204"/>
      <component glyphName="acute.case" x="362" y="0" flags="0x4"/>
    </TTGlyph>
    <TTGlyph name="Ebreve" xMin="76" yMin="0" xMax="1087" yMax="1759">
      <component glyphName="E" x="0" y="0" flags="0x204"/>
      <component glyphName="breve.case" x="314" y="0" flags="0x4"/>
    </TTGlyph>
    <TTGlyph name="Ecaron" xMin="76" yMin="0" xMax="1087" yMax="1794">
      <component glyphName="E" x="0" y="0" flags="0x204"/>
      <component glyphName="caron.case" x="309" y="0" flags="0x4"/>
    </TTGlyph>
    <TTGlyph name="Ecircumflex" xMin="76" yMin="0" xMax="1087" yMax="1794">
      <component glyphName="E" x="0" y="0" flags="0x204"/>
      <component glyphName="circumflex.case" x="319" y="0" flags="0x4"/>
    </TTGlyph>
    <TTGlyph name="Edieresis" xMin="76" yMin="0" xMax="1087" yMax="1707">
      <component glyphName="E" x="0" y="0" flags="0x204"/>
      <component glyphName="dieresis.case" x="313" y="0" flags="0x4"/>
    </TTGlyph>
    <TTGlyph name="Edotaccent" xMin="76" yMin="0" xMax="1087" yMax="1737">
      <component glyphName="E" x="0" y="0" flags="0x204"/>
      <component glyphName="dotaccent.case" x="322" y="0" flags="0x4"/>
    </TTGlyph>
    <TTGlyph name="Egrave" xMin="76" yMin="0" xMax="1087" yMax="1784">
      <component glyphName="E" x="0" y="0" flags="0x204"/>
      <component glyphName="grave.case" x="194" y="0" flags="0x4"/>
    </TTGlyph>
    <TTGlyph name="Emacron" xMin="76" yMin="0" xMax="1087" yMax="1660">
      <component glyphName="E" x="0" y="0" flags="0x204"/>
      <component glyphName="macron.case" x="330" y="0" flags="0x4"/>
    </TTGlyph>
    <TTGlyph name="Eng" xMin="72" yMin="-457" xMax="1476" yMax="1353">
      <contour>
        <pt x="225" y="1221" on="1"/>
        <pt x="72" y="1255" on="1"/>
        <pt x="92" y="1353" on="1"/>
        <pt x="512" y="1353" on="1"/>
        <pt x="1167" y="136" on="1"/>
        <pt x="1183" y="136" on="1"/>
        <pt x="1183" y="1221" on="1"/>
        <pt x="1029" y="1255" on="1"/>
        <pt x="1049" y="1353" on="1"/>
        <pt x="1456" y="1353" on="1"/>
        <pt x="1476" y="1255" on="1"/>
        <pt x="1324" y="1221" on="1"/>
        <pt x="1324" y="0" on="1"/>
        <pt x="1324" y="-109" on="0"/>
        <pt x="1273" y="-279" on="0"/>
        <pt x="1177" y="-396" on="0"/>
        <pt x="1039" y="-457" on="0"/>
        <pt x="952" y="-457" on="1"/>
        <pt x="903" y="-457" on="0"/>
        <pt x="822" y="-446" on="0"/>
        <pt x="792" y="-439" on="1"/>
        <pt x="757" y="-431" on="0"/>
        <pt x="728" y="-420" on="1"/>
        <pt x="764" y="-289" on="1"/>
        <pt x="818" y="-301" on="0"/>
        <pt x="873" y="-310" on="1"/>
        <pt x="921" y="-318" on="0"/>
        <pt x="1031" y="-330" on="0"/>
        <pt x="1082" y="-330" on="1"/>
        <pt x="1110" y="-299" on="0"/>
        <pt x="1132" y="-255" on="1"/>
        <pt x="1151" y="-218" on="0"/>
        <pt x="1183" y="-109" on="0"/>
        <pt x="1183" y="-38" on="1"/>
        <pt x="1183" y="0" on="1"/>
        <pt x="1037" y="0" on="1"/>
        <pt x="381" y="1218" on="1"/>
        <pt x="365" y="1218" on="1"/>
        <pt x="365" y="132" on="1"/>
        <pt x="517" y="98" on="1"/>
        <pt x="497" y="0" on="1"/>
        <pt x="92" y="0" on="1"/>
        <pt x="72" y="98" on="1"/>
        <pt x="225" y="132" on="1"/>
      </contour>
    </TTGlyph>
    <TTGlyph name="Eogonek" xMin="76" yMin="-457" xMax="1108" yMax="1353">
      <contour>
        <pt x="1063" y="0" on="1"/>
        <pt x="1021" y="-30" on="0"/>
        <pt x="954" y="-103" on="0"/>
        <pt x="906" y="-180" on="0"/>
        <pt x="881" y="-258" on="0"/>
        <pt x="881" y="-292" on="1"/>
        <pt x="881" y="-330" on="0"/>
        <pt x="917" y="-357" on="0"/>
        <pt x="948" y="-357" on="1"/>
        <pt x="977" y="-357" on="0"/>
        <pt x="1033" y="-332" on="0"/>
        <pt x="1056" y="-317" on="1"/>
        <pt x="1082" y="-299" on="0"/>
        <pt x="1108" y="-277" on="1"/>
        <pt x="1108" y="-370" on="1"/>
        <pt x="1084" y="-395" on="0"/>
        <pt x="1051" y="-414" on="1"/>
        <pt x="1023" y="-431" on="0"/>
        <pt x="946" y="-457" on="0"/>
        <pt x="898" y="-457" on="1"/>
        <pt x="819" y="-457" on="0"/>
        <pt x="740" y="-399" on="0"/>
        <pt x="740" y="-324" on="1"/>
        <pt x="740" y="-260" on="0"/>
        <pt x="794" y="-138" on="0"/>
        <pt x="839" y="-82" on="1"/>
        <pt x="873" y="-40" on="0"/>
        <pt x="916" y="0" on="1"/>
        <pt x="96" y="0" on="1"/>
        <pt x="76" y="98" on="1"/>
        <pt x="229" y="132" on="1"/>
        <pt x="229" y="1221" on="1"/>
        <pt x="76" y="1255" on="1"/>
        <pt x="96" y="1353" on="1"/>
        <pt x="1033" y="1353" on="1"/>
        <pt x="1057" y="1053" on="1"/>
        <pt x="954" y="1031" on="1"/>
        <pt x="871" y="1224" on="1"/>
        <pt x="419" y="1224" on="1"/>
        <pt x="419" y="772" on="1"/>
        <pt x="776" y="772" on="1"/>
        <pt x="810" y="894" on="1"/>
        <pt x="909" y="874" on="1"/>
        <pt x="909" y="540" on="1"/>
        <pt x="810" y="520" on="1"/>
        <pt x="776" y="643" on="1"/>
        <pt x="419" y="643" on="1"/>
        <pt x="419" y="129" on="1"/>
        <pt x="900" y="129" on="1"/>
        <pt x="983" y="322" on="1"/>
        <pt x="1087" y="299" on="1"/>
      </contour>
    </TTGlyph>
    <TTGlyph name="Eth" xMin="78" yMin="0" xMax="1246" yMax="1353">
      <contour>
        <pt x="78" y="758" on="1"/>
        <pt x="231" y="758" on="1"/>
        <pt x="231" y="1221" on="1"/>
        <pt x="78" y="1255" on="1"/>
        <pt x="98" y="1353" on="1"/>
        <pt x="638" y="1353" on="1"/>
        <pt x="792" y="1353" on="0"/>
        <pt x="1021" y="1274" on="0"/>
        <pt x="1172" y="1123" on="0"/>
        <pt x="1246" y="904" on="0"/>
        <pt x="1246" y="765" on="1"/>
        <pt x="1246" y="687" on="1"/>
        <pt x="1246" y="530" on="0"/>
        <pt x="1167" y="276" on="0"/>
        <pt x="1017" y="97" on="0"/>
        <pt x="800" y="0" on="0"/>
        <pt x="661" y="0" on="1"/>
        <pt x="98" y="0" on="1"/>
        <pt x="78" y="98" on="1"/>
        <pt x="231" y="132" on="1"/>
        <pt x="231" y="629" on="1"/>
        <pt x="78" y="629" on="1"/>
      </contour>
      <contour>
        <pt x="421" y="1224" on="1"/>
        <pt x="421" y="758" on="1"/>
        <pt x="711" y="758" on="1"/>
        <pt x="711" y="629" on="1"/>
        <pt x="421" y="629" on="1"/>
        <pt x="421" y="129" on="1"/>
        <pt x="632" y="129" on="1"/>
        <pt x="692" y="129" on="0"/>
        <pt x="794" y="144" on="0"/>
        <pt x="831" y="153" on="1"/>
        <pt x="874" y="164" on="0"/>
        <pt x="910" y="178" on="1"/>
        <pt x="950" y="230" on="0"/>
        <pt x="983" y="298" on="1"/>
        <pt x="1010" y="356" on="0"/>
        <pt x="1056" y="519" on="0"/>
        <pt x="1056" y="622" on="1"/>
        <pt x="1056" y="716" on="1"/>
        <pt x="1056" y="834" on="0"/>
        <pt x="1000" y="1022" on="0"/>
        <pt x="887" y="1154" on="0"/>
        <pt x="715" y="1224" on="0"/>
        <pt x="599" y="1224" on="1"/>
      </contour>
    </TTGlyph>
    <TTGlyph name="Euro" xMin="20" yMin="-22" xMax="1160" yMax="1375">
      <contour>
        <pt x="43" y="823" on="1"/>
        <pt x="192" y="823" on="1"/>
        <pt x="232" y="1094" on="0"/>
        <pt x="529" y="1375" on="0"/>
        <pt x="783" y="1375" on="1"/>
        <pt x="866" y="1375" on="0"/>
        <pt x="999" y="1350" on="0"/>
        <pt x="1047" y="1335" on="1"/>
        <pt x="1102" y="1317" on="0"/>
        <pt x="1146" y="1295" on="1"/>
        <pt x="1146" y="1008" on="1"/>
        <pt x="1026" y="1008" on="1"/>
        <pt x="978" y="1225" on="1"/>
        <pt x="951" y="1231" on="0"/>
        <pt x="918" y="1235" on="1"/>
        <pt x="889" y="1239" on="0"/>
        <pt x="807" y="1246" on="0"/>
        <pt x="756" y="1246" on="1"/>
        <pt x="683" y="1246" on="0"/>
        <pt x="572" y="1219" on="0"/>
        <pt x="534" y="1202" on="1"/>
        <pt x="489" y="1183" on="0"/>
        <pt x="457" y="1158" on="1"/>
        <pt x="440" y="1118" on="0"/>
        <pt x="424" y="1067" on="1"/>
        <pt x="410" y="1023" on="0"/>
        <pt x="383" y="900" on="0"/>
        <pt x="375" y="823" on="1"/>
        <pt x="963" y="823" on="1"/>
        <pt x="940" y="723" on="1"/>
        <pt x="368" y="723" on="1"/>
        <pt x="368" y="683" on="1"/>
        <pt x="368" y="623" on="1"/>
        <pt x="916" y="623" on="1"/>
        <pt x="893" y="523" on="1"/>
        <pt x="368" y="523" on="1"/>
        <pt x="372" y="409" on="0"/>
        <pt x="444" y="250" on="0"/>
        <pt x="560" y="151" on="0"/>
        <pt x="710" y="107" on="0"/>
        <pt x="791" y="107" on="1"/>
        <pt x="866" y="107" on="0"/>
        <pt x="999" y="139" on="0"/>
        <pt x="1050" y="159" on="1"/>
        <pt x="1109" y="182" on="0"/>
        <pt x="1160" y="211" on="1"/>
        <pt x="1160" y="105" on="1"/>
        <pt x="1105" y="69" on="0"/>
        <pt x="1036" y="41" on="1"/>
        <pt x="976" y="17" on="0"/>
        <pt x="813" y="-22" on="0"/>
        <pt x="713" y="-22" on="1"/>
        <pt x="606" y="-22" on="0"/>
        <pt x="413" y="29" on="0"/>
        <pt x="265" y="153" on="0"/>
        <pt x="178" y="359" on="0"/>
        <pt x="178" y="515" on="1"/>
        <pt x="178" y="523" on="1"/>
        <pt x="20" y="523" on="1"/>
        <pt x="43" y="623" on="1"/>
        <pt x="178" y="623" on="1"/>
        <pt x="179" y="649" on="0"/>
        <pt x="180" y="699" on="0"/>
        <pt x="182" y="723" on="1"/>
        <pt x="20" y="723" on="1"/>
      </contour>
    </TTGlyph>
    <TTGlyph name="F" xMin="72" yMin="0" xMax="993" yMax="1353">
      <contour>
        <pt x="415" y="643" on="1"/>
        <pt x="415" y="132" on="1"/>
        <pt x="617" y="98" on="1"/>
        <pt x="597" y="0" on="1"/>
        <pt x="92" y="0" on="1"/>
        <pt x="72" y="98" on="1"/>
        <pt x="225" y="132" on="1"/>
        <pt x="225" y="1221" on="1"/>
        <pt x="72" y="1255" on="1"/>
        <pt x="92" y="1353" on="1"/>
        <pt x="969" y="1353" on="1"/>
        <pt x="993" y="1053" on="1"/>
        <pt x="890" y="1031" on="1"/>
        <pt x="807" y="1224" on="1"/>
        <pt x="415" y="1224" on="1"/>
        <pt x="415" y="772" on="1"/>
        <pt x="735" y="772" on="1"/>
        <pt x="769" y="894" on="1"/>
        <pt x="867" y="874" on="1"/>
        <pt x="867" y="540" on="1"/>
        <pt x="769" y="520" on="1"/>
        <pt x="735" y="643" on="1"/>
      </contour>
    </TTGlyph>
    <TTGlyph name="G" xMin="102" yMin="-22" xMax="1244" yMax="1375">
      <contour>
        <pt x="1092" y="105" on="1"/>
        <pt x="996" y="46" on="0"/>
        <pt x="766" y="-22" on="0"/>
        <pt x="653" y="-22" on="1"/>
        <pt x="391" y="-22" on="0"/>
        <pt x="102" y="248" on="0"/>
        <pt x="102" y="505" on="1"/>
        <pt x="102" y="594" on="1"/>
        <pt x="102" y="972" on="0"/>
        <pt x="417" y="1375" on="0"/>
        <pt x="714" y="1375" on="1"/>
        <pt x="812" y="1375" on="0"/>
        <pt x="1006" y="1345" on="0"/>
        <pt x="1077" y="1318" on="1"/>
        <pt x="1098" y="1048" on="1"/>
        <pt x="993" y="1026" on="1"/>
        <pt x="911" y="1219" on="1"/>
        <pt x="873" y="1230" on="0"/>
        <pt x="753" y="1246" on="0"/>
        <pt x="691" y="1246" on="1"/>
        <pt x="604" y="1246" on="0"/>
        <pt x="447" y="1199" on="0"/>
        <pt x="391" y="1158" on="1"/>
        <pt x="345" y="1065" on="0"/>
        <pt x="292" y="818" on="0"/>
        <pt x="292" y="683" on="1"/>
        <pt x="292" y="550" on="1"/>
        <pt x="292" y="339" on="0"/>
        <pt x="534" y="107" on="0"/>
        <pt x="703" y="107" on="1"/>
        <pt x="755" y="107" on="0"/>
        <pt x="857" y="127" on="0"/>
        <pt x="902" y="143" on="1"/>
        <pt x="902" y="504" on="1"/>
        <pt x="749" y="538" on="1"/>
        <pt x="769" y="646" on="1"/>
        <pt x="1224" y="646" on="1"/>
        <pt x="1244" y="538" on="1"/>
        <pt x="1092" y="504" on="1"/>
      </contour>
    </TTGlyph>
    <TTGlyph name="Gacute" xMin="102" yMin="-22" xMax="1244" yMax="1784">
      <component glyphName="G" x="0" y="0" flags="0x204"/>
      <component glyphName="acute.case" x="468" y="0" flags="0x4"/>
    </TTGlyph>
    <TTGlyph name="Gbreve" xMin="102" yMin="-22" xMax="1244" yMax="1759">
      <component glyphName="G" x="0" y="0" flags="0x204"/>
      <component glyphName="breve.case" x="420" y="0" flags="0x4"/>
    </TTGlyph>
    <TTGlyph name="Gcaron" xMin="102" yMin="-22" xMax="1244" yMax="1794">
      <component glyphName="G" x="0" y="0" flags="0x204"/>
      <component glyphName="caron.case" x="415" y="0" flags="0x4"/>
    </TTGlyph>
    <TTGlyph name="Gcircumflex" xMin="102" yMin="-22" xMax="1244" yMax="1794">
      <component glyphName="G" x="0" y="0" flags="0x204"/>
      <component glyphName="circumflex.case" x="425" y="0" flags="0x4"/>
    </TTGlyph>
    <TTGlyph name="Gcommaaccent" xMin="102" yMin="-511" xMax="1244" yMax="1375">
      <component glyphName="G" x="0" y="0" flags="0x204"/>
      <component glyphName="uni0326" x="959" y="0" flags="0x4"/>
    </TTGlyph>
    <TTGlyph name="Gdotaccent" xMin="102" yMin="-22" xMax="1244" yMax="1737">
      <component glyphName="G" x="0" y="0" flags="0x204"/>
      <component glyphName="dotaccent.case" x="428" y="0" flags="0x4"/>
    </TTGlyph>
    <TTGlyph name="H" xMin="72" yMin="0" xMax="1383" yMax="1353">
      <contour>
        <pt x="225" y="1221" on="1"/>
        <pt x="72" y="1255" on="1"/>
        <pt x="92" y="1353" on="1"/>
        <pt x="547" y="1353" on="1"/>
        <pt x="567" y="1255" on="1"/>
        <pt x="415" y="1221" on="1"/>
        <pt x="415" y="778" on="1"/>
        <pt x="1039" y="778" on="1"/>
        <pt x="1039" y="1221" on="1"/>
        <pt x="887" y="1255" on="1"/>
        <pt x="907" y="1353" on="1"/>
        <pt x="1363" y="1353" on="1"/>
        <pt x="1383" y="1255" on="1"/>
        <pt x="1229" y="1221" on="1"/>
        <pt x="1229" y="132" on="1"/>
        <pt x="1383" y="98" on="1"/>
        <pt x="1363" y="0" on="1"/>
        <pt x="907" y="0" on="1"/>
        <pt x="887" y="98" on="1"/>
        <pt x="1039" y="132" on="1"/>
        <pt x="1039" y="649" on="1"/>
        <pt x="415" y="649" on="1"/>
        <pt x="415" y="132" on="1"/>
        <pt x="567" y="98" on="1"/>
        <pt x="547" y="0" on="1"/>
        <pt x="92" y="0" on="1"/>
        <pt x="72" y="98" on="1"/>
        <pt x="225" y="132" on="1"/>
      </contour>
    </TTGlyph>
    <TTGlyph name="Hbar" xMin="72" yMin="0" xMax="1395" yMax="1353">
      <contour>
        <pt x="84" y="1085" on="1"/>
        <pt x="225" y="1085" on="1"/>
        <pt x="225" y="1221" on="1"/>
        <pt x="72" y="1255" on="1"/>
        <pt x="92" y="1353" on="1"/>
        <pt x="547" y="1353" on="1"/>
        <pt x="567" y="1255" on="1"/>
        <pt x="415" y="1221" on="1"/>
        <pt x="415" y="1085" on="1"/>
        <pt x="1039" y="1085" on="1"/>
        <pt x="1039" y="1221" on="1"/>
        <pt x="887" y="1255" on="1"/>
        <pt x="907" y="1353" on="1"/>
        <pt x="1363" y="1353" on="1"/>
        <pt x="1383" y="1255" on="1"/>
        <pt x="1229" y="1221" on="1"/>
        <pt x="1229" y="1085" on="1"/>
        <pt x="1395" y="1085" on="1"/>
        <pt x="1395" y="956" on="1"/>
        <pt x="1229" y="956" on="1"/>
        <pt x="1229" y="132" on="1"/>
        <pt x="1383" y="98" on="1"/>
        <pt x="1363" y="0" on="1"/>
        <pt x="907" y="0" on="1"/>
        <pt x="887" y="98" on="1"/>
        <pt x="1039" y="132" on="1"/>
        <pt x="1039" y="649" on="1"/>
        <pt x="415" y="649" on="1"/>
        <pt x="415" y="132" on="1"/>
        <pt x="567" y="98" on="1"/>
        <pt x="547" y="0" on="1"/>
        <pt x="92" y="0" on="1"/>
        <pt x="72" y="98" on="1"/>
        <pt x="225" y="132" on="1"/>
        <pt x="225" y="956" on="1"/>
        <pt x="84" y="956" on="1"/>
      </contour>
      <contour>
        <pt x="1039" y="778" on="1"/>
        <pt x="1039" y="956" on="1"/>
        <pt x="415" y="956" on="1"/>
        <pt x="415" y="778" on="1"/>
      </contour>
    </TTGlyph>
    <TTGlyph name="Hcircumflex" xMin="72" yMin="0" xMax="1383" yMax="1794">
      <component glyphName="H" x="0" y="0" flags="0x204"/>
      <component glyphName="circumflex.case" x="460" y="0" flags="0x4"/>
    </TTGlyph>
    <TTGlyph name="I" xMin="72" yMin="0" xMax="567" yMax="1353">
      <contour>
        <pt x="225" y="1221" on="1"/>
        <pt x="72" y="1255" on="1"/>
        <pt x="92" y="1353" on="1"/>
        <pt x="547" y="1353" on="1"/>
        <pt x="567" y="1255" on="1"/>
        <pt x="415" y="1221" on="1"/>
        <pt x="415" y="132" on="1"/>
        <pt x="567" y="98" on="1"/>
        <pt x="547" y="0" on="1"/>
        <pt x="92" y="0" on="1"/>
        <pt x="72" y="98" on="1"/>
        <pt x="225" y="132" on="1"/>
      </contour>
    </TTGlyph>
    <TTGlyph name="IJ" xMin="72" yMin="-22" xMax="1442" yMax="1353">
      <component glyphName="I" x="0" y="0" flags="0x4"/>
      <component glyphName="J" x="643" y="0" flags="0x4"/>
    </TTGlyph>
    <TTGlyph name="Iacute" xMin="72" yMin="0" xMax="666" yMax="1784">
      <component glyphName="I" x="0" y="0" flags="0x204"/>
      <component glyphName="acute.case" x="91" y="0" flags="0x4"/>
    </TTGlyph>
    <TTGlyph name="Ibreve" xMin="-20" yMin="0" xMax="652" yMax="1759">
      <component glyphName="I" x="0" y="0" flags="0x204"/>
      <component glyphName="breve.case" x="43" y="0" flags="0x4"/>
    </TTGlyph>
    <TTGlyph name="Icircumflex" xMin="-15" yMin="0" xMax="674" yMax="1794">
      <component glyphName="I" x="0" y="0" flags="0x204"/>
      <component glyphName="circumflex.case" x="48" y="0" flags="0x4"/>
    </TTGlyph>
    <TTGlyph name="Idieresis" xMin="-19" yMin="0" xMax="654" yMax="1707">
      <component glyphName="I" x="0" y="0" flags="0x204"/>
      <component glyphName="dieresis.case" x="42" y="0" flags="0x4"/>
    </TTGlyph>
    <TTGlyph name="Idotaccent" xMin="72" yMin="0" xMax="567" yMax="1737">
      <component glyphName="I" x="0" y="0" flags="0x204"/>
      <component glyphName="dotaccent.case" x="51" y="0" flags="0x4"/>
    </TTGlyph>
    <TTGlyph name="Igrave" xMin="9" yMin="0" xMax="567" yMax="1784">
      <component glyphName="I" x="0" y="0" flags="0x204"/>
      <component glyphName="grave.case" x="-76" y="0" flags="0x4"/>
    </TTGlyph>
    <TTGlyph name="Imacron" xMin="-61" yMin="0" xMax="729" yMax="1660">
      <component glyphName="I" x="0" y="0" flags="0x204"/>
      <component glyphName="macron.case" x="59" y="0" flags="0x4"/>
    </TTGlyph>
    <TTGlyph name="Iogonek" xMin="48" yMin="-457" xMax="567" yMax="1353">
      <contour>
        <pt x="371" y="0" on="1"/>
        <pt x="329" y="-30" on="0"/>
        <pt x="262" y="-103" on="0"/>
        <pt x="214" y="-180" on="0"/>
        <pt x="189" y="-258" on="0"/>
        <pt x="189" y="-292" on="1"/>
        <pt x="189" y="-330" on="0"/>
        <pt x="225" y="-357" on="0"/>
        <pt x="256" y="-357" on="1"/>
        <pt x="285" y="-357" on="0"/>
        <pt x="341" y="-332" on="0"/>
        <pt x="364" y="-317" on="1"/>
        <pt x="390" y="-299" on="0"/>
        <pt x="416" y="-277" on="1"/>
        <pt x="416" y="-370" on="1"/>
        <pt x="392" y="-395" on="0"/>
        <pt x="359" y="-414" on="1"/>
        <pt x="331" y="-431" on="0"/>
        <pt x="254" y="-457" on="0"/>
        <pt x="206" y="-457" on="1"/>
        <pt x="127" y="-457" on="0"/>
        <pt x="48" y="-399" on="0"/>
        <pt x="48" y="-324" on="1"/>
        <pt x="48" y="-260" on="0"/>
        <pt x="102" y="-138" on="0"/>
        <pt x="147" y="-82" on="1"/>
        <pt x="181" y="-40" on="0"/>
        <pt x="224" y="0" on="1"/>
        <pt x="92" y="0" on="1"/>
        <pt x="72" y="98" on="1"/>
        <pt x="225" y="132" on="1"/>
        <pt x="225" y="1221" on="1"/>
        <pt x="72" y="1255" on="1"/>
        <pt x="92" y="1353" on="1"/>
        <pt x="547" y="1353" on="1"/>
        <pt x="567" y="1255" on="1"/>
        <pt x="415" y="1221" on="1"/>
        <pt x="415" y="132" on="1"/>
        <pt x="567" y="98" on="1"/>
        <pt x="547" y="0" on="1"/>
      </contour>
    </TTGlyph>
    <TTGlyph name="Itilde" xMin="-72" yMin="0" xMax="729" yMax="1749">
      <component glyphName="I" x="0" y="0" flags="0x204"/>
      <component glyphName="tilde.case" x="60" y="0" flags="0x4"/>
    </TTGlyph>
    <TTGlyph name="J" xMin="70" yMin="-22" xMax="799" yMax="1353">
      <contour>
        <pt x="647" y="336" on="1"/>
        <pt x="647" y="162" on="0"/>
        <pt x="479" y="-22" on="0"/>
        <pt x="312" y="-22" on="1"/>
        <pt x="252" y="-22" on="0"/>
        <pt x="132" y="10" on="0"/>
        <pt x="91" y="31" on="1"/>
        <pt x="70" y="291" on="1"/>
        <pt x="173" y="313" on="1"/>
        <pt x="255" y="121" on="1"/>
        <pt x="276" y="113" on="0"/>
        <pt x="316" y="106" on="0"/>
        <pt x="333" y="106" on="1"/>
        <pt x="357" y="106" on="0"/>
        <pt x="407" y="118" on="0"/>
        <pt x="426" y="127" on="1"/>
        <pt x="440" y="165" on="0"/>
        <pt x="457" y="292" on="0"/>
        <pt x="457" y="369" on="1"/>
        <pt x="457" y="1221" on="1"/>
        <pt x="264" y="1255" on="1"/>
        <pt x="284" y="1353" on="1"/>
        <pt x="779" y="1353" on="1"/>
        <pt x="799" y="1255" on="1"/>
        <pt x="647" y="1221" on="1"/>
      </contour>
    </TTGlyph>
    <TTGlyph name="Jcircumflex" xMin="70" yMin="-22" xMax="888" yMax="1794">
      <component glyphName="J" x="0" y="0" flags="0x204"/>
      <component glyphName="circumflex.case" x="262" y="0" flags="0x4"/>
    </TTGlyph>
    <TTGlyph name="K" xMin="72" yMin="0" xMax="1312" yMax="1353">
      <contour>
        <pt x="72" y="98" on="1"/>
        <pt x="225" y="132" on="1"/>
        <pt x="225" y="1221" on="1"/>
        <pt x="72" y="1255" on="1"/>
        <pt x="92" y="1353" on="1"/>
        <pt x="547" y="1353" on="1"/>
        <pt x="567" y="1255" on="1"/>
        <pt x="415" y="1221" on="1"/>
        <pt x="415" y="664" on="1"/>
        <pt x="429" y="658" on="1"/>
        <pt x="973" y="1233" on="1"/>
        <pt x="863" y="1254" on="1"/>
        <pt x="883" y="1353" on="1"/>
        <pt x="1245" y="1353" on="1"/>
        <pt x="1265" y="1255" on="1"/>
        <pt x="1143" y="1221" on="1"/>
        <pt x="710" y="766" on="1"/>
        <pt x="1166" y="133" on="1"/>
        <pt x="1312" y="98" on="1"/>
        <pt x="1292" y="0" on="1"/>
        <pt x="1048" y="0" on="1"/>
        <pt x="589" y="639" on="1"/>
        <pt x="415" y="456" on="1"/>
        <pt x="415" y="132" on="1"/>
        <pt x="567" y="98" on="1"/>
        <pt x="547" y="0" on="1"/>
        <pt x="92" y="0" on="1"/>
      </contour>
    </TTGlyph>
    <TTGlyph name="Kcommaaccent" xMin="72" yMin="-511" xMax="1312" yMax="1353">
      <component glyphName="K" x="0" y="0" flags="0x204"/>
      <component glyphName="uni0326" x="954" y="0" flags="0x4"/>
    </TTGlyph>
    <TTGlyph name="L" xMin="74" yMin="0" xMax="940" yMax="1353">
      <contour>
        <pt x="227" y="1221" on="1"/>
        <pt x="74" y="1255" on="1"/>
        <pt x="94" y="1353" on="1"/>
        <pt x="549" y="1353" on="1"/>
        <pt x="569" y="1255" on="1"/>
        <pt x="417" y="1221" on="1"/>
        <pt x="417" y="129" on="1"/>
        <pt x="753" y="129" on="1"/>
        <pt x="836" y="322" on="1"/>
        <pt x="940" y="300" on="1"/>
        <pt x="915" y="0" on="1"/>
        <pt x="94" y="0" on="1"/>
        <pt x="74" y="98" on="1"/>
        <pt x="227" y="132" on="1"/>
      </contour>
    </TTGlyph>
    <TTGlyph name="Lacute" xMin="74" yMin="0" xMax="940" yMax="1784">
      <component glyphName="L" x="0" y="0" flags="0x204"/>
      <component glyphName="acute.case" x="93" y="0" flags="0x4"/>
    </TTGlyph>
    <TTGlyph name="Lcaron" xMin="74" yMin="0" xMax="940" yMax="1540">
      <component glyphName="L" x="0" y="0" flags="0x204"/>
      <component glyphName="caron.alt" x="593" y="0" flags="0x4"/>
    </TTGlyph>
    <TTGlyph name="Lcommaaccent" xMin="74" yMin="-511" xMax="940" yMax="1353">
      <component glyphName="L" x="0" y="0" flags="0x204"/>
      <component glyphName="uni0326" x="799" y="0" flags="0x4"/>
    </TTGlyph>
    <TTGlyph name="Ldot" xMin="74" yMin="0" xMax="1008" yMax="1353">
      <component glyphName="L" x="0" y="0" flags="0x4"/>
      <component glyphName="periodcentered" x="584" y="0" flags="0x4"/>
    </TTGlyph>
    <TTGlyph name="Lslash" xMin="27" yMin="0" xMax="940" yMax="1353">
      <contour>
        <pt x="27" y="549" on="1"/>
        <pt x="227" y="665" on="1"/>
        <pt x="227" y="1221" on="1"/>
        <pt x="74" y="1255" on="1"/>
        <pt x="94" y="1353" on="1"/>
        <pt x="549" y="1353" on="1"/>
        <pt x="569" y="1255" on="1"/>
        <pt x="417" y="1221" on="1"/>
        <pt x="417" y="775" on="1"/>
        <pt x="756" y="971" on="1"/>
        <pt x="756" y="833" on="1"/>
        <pt x="417" y="636" on="1"/>
        <pt x="417" y="129" on="1"/>
        <pt x="753" y="129" on="1"/>
        <pt x="836" y="322" on="1"/>
        <pt x="940" y="300" on="1"/>
        <pt x="915" y="0" on="1"/>
        <pt x="94" y="0" on="1"/>
        <pt x="74" y="98" on="1"/>
        <pt x="227" y="132" on="1"/>
        <pt x="227" y="526" on="1"/>
        <pt x="27" y="410" on="1"/>
      </contour>
    </TTGlyph>
    <TTGlyph name="M" xMin="72" yMin="0" xMax="1846" yMax="1353">
      <contour>
        <pt x="225" y="1221" on="1"/>
        <pt x="72" y="1255" on="1"/>
        <pt x="92" y="1353" on="1"/>
        <pt x="519" y="1353" on="1"/>
        <pt x="955" y="311" on="1"/>
        <pt x="971" y="311" on="1"/>
        <pt x="1389" y="1353" on="1"/>
        <pt x="1826" y="1353" on="1"/>
        <pt x="1846" y="1255" on="1"/>
        <pt x="1694" y="1221" on="1"/>
        <pt x="1694" y="132" on="1"/>
        <pt x="1846" y="98" on="1"/>
        <pt x="1826" y="0" on="1"/>
        <pt x="1371" y="0" on="1"/>
        <pt x="1351" y="98" on="1"/>
        <pt x="1504" y="132" on="1"/>
        <pt x="1504" y="1210" on="1"/>
        <pt x="1488" y="1210" on="1"/>
        <pt x="996" y="0" on="1"/>
        <pt x="891" y="0" on="1"/>
        <pt x="381" y="1210" on="1"/>
        <pt x="365" y="1210" on="1"/>
        <pt x="365" y="132" on="1"/>
        <pt x="517" y="98" on="1"/>
        <pt x="497" y="0" on="1"/>
        <pt x="92" y="0" on="1"/>
        <pt x="72" y="98" on="1"/>
        <pt x="225" y="132" on="1"/>
      </contour>
    </TTGlyph>
    <TTGlyph name="N" xMin="72" yMin="0" xMax="1476" yMax="1353">
      <contour>
        <pt x="225" y="1221" on="1"/>
        <pt x="72" y="1255" on="1"/>
        <pt x="92" y="1353" on="1"/>
        <pt x="512" y="1353" on="1"/>
        <pt x="1167" y="136" on="1"/>
        <pt x="1183" y="136" on="1"/>
        <pt x="1183" y="1221" on="1"/>
        <pt x="1029" y="1255" on="1"/>
        <pt x="1049" y="1353" on="1"/>
        <pt x="1456" y="1353" on="1"/>
        <pt x="1476" y="1255" on="1"/>
        <pt x="1324" y="1221" on="1"/>
        <pt x="1324" y="0" on="1"/>
        <pt x="1037" y="0" on="1"/>
        <pt x="381" y="1218" on="1"/>
        <pt x="365" y="1218" on="1"/>
        <pt x="365" y="132" on="1"/>
        <pt x="517" y="98" on="1"/>
        <pt x="497" y="0" on="1"/>
        <pt x="92" y="0" on="1"/>
        <pt x="72" y="98" on="1"/>
        <pt x="225" y="132" on="1"/>
      </contour>
    </TTGlyph>
    <TTGlyph name="Nacute" xMin="72" yMin="0" xMax="1476" yMax="1784">
      <component glyphName="N" x="0" y="0" flags="0x204"/>
      <component glyphName="acute.case" x="558" y="0" flags="0x4"/>
    </TTGlyph>
    <TTGlyph name="Ncaron" xMin="72" yMin="0" xMax="1476" yMax="1794">
      <component glyphName="N" x="0" y="0" flags="0x204"/>
      <component glyphName="caron.case" x="505" y="0" flags="0x4"/>
    </TTGlyph>
    <TTGlyph name="Ncommaaccent" xMin="72" yMin="-511" xMax="1476" yMax="1353">
      <component glyphName="N" x="0" y="0" flags="0x204"/>
      <component glyphName="uni0326" x="1042" y="0" flags="0x4"/>
    </TTGlyph>
    <TTGlyph name="Ntilde" xMin="72" yMin="0" xMax="1476" yMax="1749">
      <component glyphName="N" x="0" y="0" flags="0x204"/>
      <component glyphName="tilde.case" x="506" y="0" flags="0x4"/>
    </TTGlyph>
    <TTGlyph name="O" xMin="102" yMin="-22" xMax="1243" yMax="1375">
      <contour>
        <pt x="663" y="-22" on="1"/>
        <pt x="384" y="-22" on="0"/>
        <pt x="102" y="253" on="0"/>
        <pt x="102" y="525" on="1"/>
        <pt x="102" y="604" on="1"/>
        <pt x="102" y="993" on="0"/>
        <pt x="398" y="1375" on="0"/>
        <pt x="683" y="1375" on="1"/>
        <pt x="961" y="1375" on="0"/>
        <pt x="1243" y="1102" on="0"/>
        <pt x="1243" y="827" on="1"/>
        <pt x="1243" y="749" on="1"/>
        <pt x="1243" y="372" on="0"/>
        <pt x="955" y="-22" on="0"/>
      </contour>
      <contour>
        <pt x="1053" y="783" on="1"/>
        <pt x="1053" y="1019" on="0"/>
        <pt x="844" y="1246" on="0"/>
        <pt x="653" y="1246" on="1"/>
        <pt x="564" y="1246" on="0"/>
        <pt x="406" y="1191" on="0"/>
        <pt x="361" y="1158" on="1"/>
        <pt x="331" y="1066" on="0"/>
        <pt x="292" y="837" on="0"/>
        <pt x="292" y="703" on="1"/>
        <pt x="292" y="570" on="1"/>
        <pt x="292" y="349" on="0"/>
        <pt x="517" y="107" on="0"/>
        <pt x="693" y="107" on="1"/>
        <pt x="781" y="107" on="0"/>
        <pt x="936" y="160" on="0"/>
        <pt x="985" y="196" on="1"/>
        <pt x="1017" y="296" on="0"/>
        <pt x="1053" y="536" on="0"/>
        <pt x="1053" y="650" on="1"/>
      </contour>
    </TTGlyph>
    <TTGlyph name="OE" xMin="102" yMin="-22" xMax="1697" yMax="1375">
      <contour>
        <pt x="1386" y="772" on="1"/>
        <pt x="1420" y="894" on="1"/>
        <pt x="1519" y="874" on="1"/>
        <pt x="1519" y="540" on="1"/>
        <pt x="1420" y="520" on="1"/>
        <pt x="1386" y="643" on="1"/>
        <pt x="1029" y="643" on="1"/>
        <pt x="1029" y="129" on="1"/>
        <pt x="1510" y="129" on="1"/>
        <pt x="1593" y="322" on="1"/>
        <pt x="1697" y="299" on="1"/>
        <pt x="1673" y="0" on="1"/>
        <pt x="843" y="0" on="1"/>
        <pt x="762" y="-22" on="0"/>
        <pt x="663" y="-22" on="1"/>
        <pt x="384" y="-22" on="0"/>
        <pt x="102" y="253" on="0"/>
        <pt x="102" y="525" on="1"/>
        <pt x="102" y="604" on="1"/>
        <pt x="102" y="792" on="0"/>
        <pt x="173" y="1080" on="0"/>
        <pt x="317" y="1275" on="0"/>
        <pt x="535" y="1375" on="0"/>
        <pt x="683" y="1375" on="1"/>
        <pt x="738" y="1375" on="0"/>
        <pt x="837" y="1364" on="0"/>
        <pt x="882" y="1353" on="1"/>
        <pt x="1643" y="1353" on="1"/>
        <pt x="1667" y="1053" on="1"/>
        <pt x="1564" y="1031" on="1"/>
        <pt x="1481" y="1224" on="1"/>
        <pt x="1029" y="1224" on="1"/>
        <pt x="1029" y="772" on="1"/>
      </contour>
      <contour>
        <pt x="653" y="1246" on="1"/>
        <pt x="587" y="1246" on="0"/>
        <pt x="479" y="1219" on="0"/>
        <pt x="441" y="1202" on="1"/>
        <pt x="396" y="1183" on="0"/>
        <pt x="361" y="1158" on="1"/>
        <pt x="341" y="1100" on="0"/>
        <pt x="326" y="1029" on="1"/>
        <pt x="313" y="968" on="0"/>
        <pt x="292" y="802" on="0"/>
        <pt x="292" y="703" on="1"/>
        <pt x="292" y="570" on="1"/>
        <pt x="292" y="450" on="0"/>
        <pt x="358" y="275" on="0"/>
        <pt x="468" y="161" on="0"/>
        <pt x="613" y="107" on="0"/>
        <pt x="693" y="107" on="1"/>
        <pt x="735" y="107" on="0"/>
        <pt x="807" y="118" on="0"/>
        <pt x="839" y="127" on="1"/>
        <pt x="839" y="1211" on="1"/>
        <pt x="797" y="1229" on="0"/>
        <pt x="704" y="1246" on="0"/>
      </contour>
    </TTGlyph>
    <TTGlyph name="Oacute" xMin="102" yMin="-22" xMax="1243" yMax="1784">
      <component glyphName="O" x="0" y="0" flags="0x204"/>
      <component glyphName="acute.case" x="437" y="0" flags="0x4"/>
    </TTGlyph>
    <TTGlyph name="Obreve" xMin="102" yMin="-22" xMax="1243" yMax="1759">
      <component glyphName="O" x="0" y="0" flags="0x204"/>
      <component glyphName="breve.case" x="389" y="0" flags="0x4"/>
    </TTGlyph>
    <TTGlyph name="Ocircumflex" xMin="102" yMin="-22" xMax="1243" yMax="1794">
      <component glyphName="O" x="0" y="0" flags="0x204"/>
      <component glyphName="circumflex.case" x="394" y="0" flags="0x4"/>
    </TTGlyph>
    <TTGlyph name="Odieresis" xMin="102" yMin="-22" xMax="1243" yMax="1707">
      <component glyphName="O" x="0" y="0" flags="0x204"/>
      <component glyphName="dieresis.case" x="388" y="0" flags="0x4"/>
    </TTGlyph>
    <TTGlyph name="Ograve" xMin="102" yMin="-22" xMax="1243" yMax="1784">
      <component glyphName="O" x="0" y="0" flags="0x204"/>
      <component glyphName="grave.case" x="269" y="0" flags="0x4"/>
    </TTGlyph>
    <TTGlyph name="Ohorn" xMin="102" yMin="-22" xMax="1580" yMax="1589">
      <contour>
        <pt x="1493" y="1589" on="1"/>
        <pt x="1541" y="1529" on="0"/>
        <pt x="1580" y="1421" on="0"/>
        <pt x="1580" y="1376" on="1"/>
        <pt x="1580" y="1317" on="0"/>
        <pt x="1535" y="1220" on="0"/>
        <pt x="1430" y="1133" on="0"/>
        <pt x="1343" y="1093" on="1"/>
        <pt x="1288" y="1068" on="0"/>
        <pt x="1215" y="1043" on="1"/>
        <pt x="1243" y="948" on="0"/>
        <pt x="1243" y="827" on="1"/>
        <pt x="1243" y="749" on="1"/>
        <pt x="1243" y="372" on="0"/>
        <pt x="955" y="-22" on="0"/>
        <pt x="663" y="-22" on="1"/>
        <pt x="384" y="-22" on="0"/>
        <pt x="102" y="253" on="0"/>
        <pt x="102" y="525" on="1"/>
        <pt x="102" y="604" on="1"/>
        <pt x="102" y="993" on="0"/>
        <pt x="398" y="1375" on="0"/>
        <pt x="683" y="1375" on="1"/>
        <pt x="961" y="1375" on="0"/>
        <pt x="1102" y="1238" on="1"/>
        <pt x="1147" y="1194" on="0"/>
        <pt x="1178" y="1136" on="1"/>
        <pt x="1224" y="1155" on="0"/>
        <pt x="1259" y="1172" on="1"/>
        <pt x="1311" y="1197" on="0"/>
        <pt x="1374" y="1248" on="0"/>
        <pt x="1400" y="1304" on="0"/>
        <pt x="1400" y="1340" on="1"/>
        <pt x="1400" y="1375" on="0"/>
        <pt x="1379" y="1435" on="0"/>
        <pt x="1366" y="1457" on="1"/>
        <pt x="1351" y="1483" on="0"/>
        <pt x="1333" y="1502" on="1"/>
        <pt x="1333" y="1532" on="1"/>
      </contour>
      <contour>
        <pt x="1053" y="783" on="1"/>
        <pt x="1053" y="1019" on="0"/>
        <pt x="844" y="1246" on="0"/>
        <pt x="653" y="1246" on="1"/>
        <pt x="564" y="1246" on="0"/>
        <pt x="406" y="1191" on="0"/>
        <pt x="361" y="1158" on="1"/>
        <pt x="331" y="1066" on="0"/>
        <pt x="292" y="837" on="0"/>
        <pt x="292" y="703" on="1"/>
        <pt x="292" y="570" on="1"/>
        <pt x="292" y="349" on="0"/>
        <pt x="517" y="107" on="0"/>
        <pt x="693" y="107" on="1"/>
        <pt x="781" y="107" on="0"/>
        <pt x="936" y="160" on="0"/>
        <pt x="985" y="196" on="1"/>
        <pt x="1017" y="296" on="0"/>
        <pt x="1053" y="536" on="0"/>
        <pt x="1053" y="650" on="1"/>
      </contour>
    </TTGlyph>
    <TTGlyph name="Ohungarumlaut" xMin="102" yMin="-22" xMax="1258" yMax="1784">
      <component glyphName="O" x="0" y="0" flags="0x204"/>
      <component glyphName="hungarumlaut.case" x="515" y="0" flags="0x4"/>
    </TTGlyph>
    <TTGlyph name="Omacron" xMin="102" yMin="-22" xMax="1243" yMax="1660">
      <component glyphName="O" x="0" y="0" flags="0x204"/>
      <component glyphName="macron.case" x="405" y="0" flags="0x4"/>
    </TTGlyph>
    <TTGlyph name="Oslash" xMin="102" yMin="-230" xMax="1243" yMax="1540">
      <contour>
        <pt x="663" y="-22" on="1"/>
        <pt x="596" y="-22" on="0"/>
        <pt x="537" y="-14" on="1"/>
        <pt x="470" y="-230" on="1"/>
        <pt x="330" y="-230" on="1"/>
        <pt x="330" y="-210" on="1"/>
        <pt x="401" y="18" on="1"/>
        <pt x="307" y="52" on="0"/>
        <pt x="243" y="115" on="1"/>
        <pt x="102" y="253" on="0"/>
        <pt x="102" y="525" on="1"/>
        <pt x="102" y="604" on="1"/>
        <pt x="102" y="993" on="0"/>
        <pt x="398" y="1375" on="0"/>
        <pt x="683" y="1375" on="1"/>
        <pt x="758" y="1375" on="0"/>
        <pt x="823" y="1365" on="1"/>
        <pt x="878" y="1540" on="1"/>
        <pt x="1018" y="1540" on="1"/>
        <pt x="1018" y="1520" on="1"/>
        <pt x="958" y="1329" on="1"/>
        <pt x="1042" y="1296" on="0"/>
        <pt x="1102" y="1238" on="1"/>
        <pt x="1243" y="1102" on="0"/>
        <pt x="1243" y="827" on="1"/>
        <pt x="1243" y="749" on="1"/>
        <pt x="1243" y="372" on="0"/>
        <pt x="955" y="-22" on="0"/>
      </contour>
      <contour>
        <pt x="653" y="1246" on="1"/>
        <pt x="564" y="1246" on="0"/>
        <pt x="406" y="1191" on="0"/>
        <pt x="361" y="1158" on="1"/>
        <pt x="331" y="1066" on="0"/>
        <pt x="292" y="837" on="0"/>
        <pt x="292" y="703" on="1"/>
        <pt x="292" y="570" on="1"/>
        <pt x="292" y="349" on="0"/>
        <pt x="404" y="228" on="1"/>
        <pt x="427" y="203" on="0"/>
        <pt x="453" y="183" on="1"/>
        <pt x="781" y="1230" on="1"/>
        <pt x="723" y="1246" on="0"/>
      </contour>
      <contour>
        <pt x="1053" y="783" on="1"/>
        <pt x="1053" y="1019" on="0"/>
        <pt x="948" y="1132" on="1"/>
        <pt x="930" y="1153" on="0"/>
        <pt x="908" y="1169" on="1"/>
        <pt x="580" y="121" on="1"/>
        <pt x="633" y="107" on="0"/>
        <pt x="693" y="107" on="1"/>
        <pt x="781" y="107" on="0"/>
        <pt x="936" y="160" on="0"/>
        <pt x="985" y="196" on="1"/>
        <pt x="1017" y="296" on="0"/>
        <pt x="1053" y="536" on="0"/>
        <pt x="1053" y="650" on="1"/>
      </contour>
    </TTGlyph>
    <TTGlyph name="Oslashacute" xMin="102" yMin="-230" xMax="1243" yMax="1784">
      <component glyphName="Oslash" x="0" y="0" flags="0x204"/>
      <component glyphName="acute.case" x="437" y="0" flags="0x4"/>
    </TTGlyph>
    <TTGlyph name="Otilde" xMin="102" yMin="-22" xMax="1243" yMax="1749">
      <component glyphName="O" x="0" y="0" flags="0x204"/>
      <component glyphName="tilde.case" x="385" y="0" flags="0x4"/>
    </TTGlyph>
    <TTGlyph name="P" xMin="74" yMin="0" xMax="1052" yMax="1353">
      <contour>
        <pt x="227" y="1221" on="1"/>
        <pt x="74" y="1255" on="1"/>
        <pt x="94" y="1353" on="1"/>
        <pt x="595" y="1353" on="1"/>
        <pt x="817" y="1353" on="0"/>
        <pt x="1052" y="1186" on="0"/>
        <pt x="1052" y="1008" on="1"/>
        <pt x="1052" y="822" on="0"/>
        <pt x="804" y="601" on="0"/>
        <pt x="618" y="601" on="1"/>
        <pt x="417" y="601" on="1"/>
        <pt x="417" y="132" on="1"/>
        <pt x="629" y="98" on="1"/>
        <pt x="609" y="0" on="1"/>
        <pt x="94" y="0" on="1"/>
        <pt x="74" y="98" on="1"/>
        <pt x="227" y="132" on="1"/>
      </contour>
      <contour>
        <pt x="417" y="1224" on="1"/>
        <pt x="417" y="730" on="1"/>
        <pt x="577" y="730" on="1"/>
        <pt x="650" y="730" on="0"/>
        <pt x="772" y="749" on="0"/>
        <pt x="827" y="768" on="1"/>
        <pt x="843" y="819" on="0"/>
        <pt x="858" y="921" on="0"/>
        <pt x="858" y="968" on="1"/>
        <pt x="858" y="1086" on="0"/>
        <pt x="700" y="1224" on="0"/>
        <pt x="547" y="1224" on="1"/>
      </contour>
    </TTGlyph>
    <TTGlyph name="Q" xMin="100" yMin="-194" xMax="1338" yMax="1375">
      <contour>
        <pt x="661" y="-22" on="1"/>
        <pt x="382" y="-22" on="0"/>
        <pt x="100" y="253" on="0"/>
        <pt x="100" y="525" on="1"/>
        <pt x="100" y="604" on="1"/>
        <pt x="100" y="980" on="0"/>
        <pt x="391" y="1375" on="0"/>
        <pt x="681" y="1375" on="1"/>
        <pt x="959" y="1375" on="0"/>
        <pt x="1241" y="1102" on="0"/>
        <pt x="1241" y="827" on="1"/>
        <pt x="1241" y="749" on="1"/>
        <pt x="1241" y="300" on="0"/>
        <pt x="1035" y="109" on="1"/>
        <pt x="1072" y="30" on="0"/>
        <pt x="1147" y="-65" on="0"/>
        <pt x="1204" y="-65" on="1"/>
        <pt x="1239" y="-65" on="0"/>
        <pt x="1307" y="-52" on="0"/>
        <pt x="1338" y="-40" on="1"/>
        <pt x="1338" y="-140" on="1"/>
        <pt x="1304" y="-163" on="0"/>
        <pt x="1213" y="-194" on="0"/>
        <pt x="1162" y="-194" on="1"/>
        <pt x="1068" y="-194" on="0"/>
        <pt x="942" y="-107" on="0"/>
        <pt x="896" y="-11" on="1"/>
        <pt x="883" y="15" on="1"/>
        <pt x="832" y="-3" on="0"/>
        <pt x="724" y="-22" on="0"/>
      </contour>
      <contour>
        <pt x="1051" y="783" on="1"/>
        <pt x="1051" y="1016" on="0"/>
        <pt x="844" y="1246" on="0"/>
        <pt x="651" y="1246" on="1"/>
        <pt x="563" y="1246" on="0"/>
        <pt x="401" y="1194" on="0"/>
        <pt x="349" y="1158" on="1"/>
        <pt x="338" y="1120" on="0"/>
        <pt x="317" y="1028" on="0"/>
        <pt x="300" y="917" on="0"/>
        <pt x="290" y="783" on="0"/>
        <pt x="290" y="703" on="1"/>
        <pt x="290" y="570" on="1"/>
        <pt x="290" y="540" on="0"/>
        <pt x="294" y="482" on="0"/>
        <pt x="299" y="457" on="1"/>
        <pt x="331" y="522" on="0"/>
        <pt x="462" y="595" on="0"/>
        <pt x="550" y="595" on="1"/>
        <pt x="675" y="595" on="0"/>
        <pt x="855" y="470" on="0"/>
        <pt x="931" y="323" on="1"/>
        <pt x="993" y="196" on="1"/>
        <pt x="1011" y="251" on="0"/>
        <pt x="1051" y="519" on="0"/>
        <pt x="1051" y="650" on="1"/>
      </contour>
      <contour>
        <pt x="782" y="223" on="1"/>
        <pt x="717" y="351" on="0"/>
        <pt x="567" y="466" on="0"/>
        <pt x="479" y="466" on="1"/>
        <pt x="341" y="466" on="0"/>
        <pt x="341" y="356" on="1"/>
        <pt x="341" y="270" on="0"/>
        <pt x="546" y="107" on="0"/>
        <pt x="691" y="107" on="1"/>
        <pt x="731" y="107" on="0"/>
        <pt x="799" y="116" on="0"/>
        <pt x="830" y="124" on="1"/>
      </contour>
    </TTGlyph>
    <TTGlyph name="R" xMin="72" yMin="0" xMax="1207" yMax="1353">
      <contour>
        <pt x="225" y="1221" on="1"/>
        <pt x="72" y="1255" on="1"/>
        <pt x="92" y="1353" on="1"/>
        <pt x="584" y="1353" on="1"/>
        <pt x="792" y="1353" on="0"/>
        <pt x="1012" y="1184" on="0"/>
        <pt x="1012" y="1010" on="1"/>
        <pt x="1012" y="880" on="0"/>
        <pt x="893" y="687" on="0"/>
        <pt x="790" y="639" on="1"/>
        <pt x="784" y="620" on="1"/>
        <pt x="1061" y="132" on="1"/>
        <pt x="1207" y="98" on="1"/>
        <pt x="1187" y="0" on="1"/>
        <pt x="938" y="0" on="1"/>
        <pt x="598" y="601" on="1"/>
        <pt x="415" y="601" on="1"/>
        <pt x="415" y="132" on="1"/>
        <pt x="567" y="98" on="1"/>
        <pt x="547" y="0" on="1"/>
        <pt x="92" y="0" on="1"/>
        <pt x="72" y="98" on="1"/>
        <pt x="225" y="132" on="1"/>
      </contour>
      <contour>
        <pt x="415" y="1224" on="1"/>
        <pt x="415" y="730" on="1"/>
        <pt x="538" y="730" on="1"/>
        <pt x="600" y="730" on="0"/>
        <pt x="727" y="748" on="0"/>
        <pt x="789" y="769" on="1"/>
        <pt x="800" y="814" on="0"/>
        <pt x="818" y="920" on="0"/>
        <pt x="818" y="969" on="1"/>
        <pt x="818" y="1088" on="0"/>
        <pt x="665" y="1224" on="0"/>
        <pt x="516" y="1224" on="1"/>
      </contour>
    </TTGlyph>
    <TTGlyph name="Racute" xMin="72" yMin="0" xMax="1207" yMax="1784">
      <component glyphName="R" x="0" y="0" flags="0x204"/>
      <component glyphName="acute.case" x="294" y="0" flags="0x4"/>
    </TTGlyph>
    <TTGlyph name="Rcaron" xMin="72" yMin="0" xMax="1207" yMax="1794">
      <component glyphName="R" x="0" y="0" flags="0x204"/>
      <component glyphName="caron.case" x="241" y="0" flags="0x4"/>
    </TTGlyph>
    <TTGlyph name="Rcommaaccent" xMin="72" yMin="-511" xMax="1207" yMax="1353">
      <component glyphName="R" x="0" y="0" flags="0x204"/>
      <component glyphName="uni0326" x="922" y="0" flags="0x4"/>
    </TTGlyph>
    <TTGlyph name="S" xMin="109" yMin="-22" xMax="980" yMax="1375">
      <contour>
        <pt x="619" y="762" on="1"/>
        <pt x="807" y="652" on="0"/>
        <pt x="980" y="469" on="0"/>
        <pt x="980" y="345" on="1"/>
        <pt x="980" y="180" on="0"/>
        <pt x="723" y="-22" on="0"/>
        <pt x="508" y="-22" on="1"/>
        <pt x="388" y="-22" on="0"/>
        <pt x="189" y="15" on="0"/>
        <pt x="130" y="41" on="1"/>
        <pt x="109" y="300" on="1"/>
        <pt x="226" y="325" on="1"/>
        <pt x="308" y="131" on="1"/>
        <pt x="345" y="120" on="0"/>
        <pt x="436" y="107" on="0"/>
        <pt x="493" y="107" on="1"/>
        <pt x="567" y="107" on="0"/>
        <pt x="702" y="127" on="0"/>
        <pt x="760" y="145" on="1"/>
        <pt x="770" y="170" on="0"/>
        <pt x="790" y="253" on="0"/>
        <pt x="790" y="310" on="1"/>
        <pt x="790" y="373" on="0"/>
        <pt x="672" y="510" on="0"/>
        <pt x="476" y="628" on="1"/>
        <pt x="222" y="778" on="0"/>
        <pt x="109" y="942" on="0"/>
        <pt x="109" y="1039" on="1"/>
        <pt x="109" y="1185" on="0"/>
        <pt x="360" y="1375" on="0"/>
        <pt x="581" y="1375" on="1"/>
        <pt x="665" y="1375" on="0"/>
        <pt x="834" y="1351" on="0"/>
        <pt x="913" y="1323" on="1"/>
        <pt x="934" y="1053" on="1"/>
        <pt x="829" y="1031" on="1"/>
        <pt x="747" y="1224" on="1"/>
        <pt x="706" y="1235" on="0"/>
        <pt x="621" y="1246" on="0"/>
        <pt x="575" y="1246" on="1"/>
        <pt x="498" y="1246" on="0"/>
        <pt x="364" y="1224" on="0"/>
        <pt x="318" y="1208" on="1"/>
        <pt x="309" y="1178" on="0"/>
        <pt x="299" y="1111" on="0"/>
        <pt x="299" y="1074" on="1"/>
        <pt x="299" y="1003" on="0"/>
        <pt x="418" y="884" on="0"/>
      </contour>
    </TTGlyph>
    <TTGlyph name="Sacute" xMin="109" yMin="-22" xMax="980" yMax="1784">
      <component glyphName="S" x="0" y="0" flags="0x204"/>
      <component glyphName="acute.case" x="321" y="0" flags="0x4"/>
    </TTGlyph>
    <TTGlyph name="Scaron" xMin="109" yMin="-22" xMax="980" yMax="1794">
      <component glyphName="S" x="0" y="0" flags="0x204"/>
      <component glyphName="caron.case" x="268" y="0" flags="0x4"/>
    </TTGlyph>
    <TTGlyph name="Scedilla" xMin="109" yMin="-457" xMax="980" yMax="1375">
      <contour>
        <pt x="619" y="762" on="1"/>
        <pt x="807" y="652" on="0"/>
        <pt x="980" y="469" on="0"/>
        <pt x="980" y="345" on="1"/>
        <pt x="980" y="180" on="0"/>
        <pt x="851" y="79" on="1"/>
        <pt x="744" y="-5" on="0"/>
        <pt x="576" y="-19" on="1"/>
        <pt x="548" y="-98" on="1"/>
        <pt x="590" y="-109" on="0"/>
        <pt x="660" y="-137" on="0"/>
        <pt x="711" y="-178" on="0"/>
        <pt x="740" y="-235" on="0"/>
        <pt x="740" y="-275" on="1"/>
        <pt x="740" y="-315" on="0"/>
        <pt x="709" y="-382" on="0"/>
        <pt x="650" y="-430" on="0"/>
        <pt x="565" y="-457" on="0"/>
        <pt x="512" y="-457" on="1"/>
        <pt x="472" y="-457" on="0"/>
        <pt x="404" y="-443" on="0"/>
        <pt x="378" y="-434" on="1"/>
        <pt x="348" y="-423" on="0"/>
        <pt x="322" y="-410" on="1"/>
        <pt x="322" y="-317" on="1"/>
        <pt x="349" y="-328" on="0"/>
        <pt x="379" y="-337" on="1"/>
        <pt x="405" y="-345" on="0"/>
        <pt x="469" y="-357" on="0"/>
        <pt x="502" y="-357" on="1"/>
        <pt x="522" y="-357" on="0"/>
        <pt x="553" y="-353" on="0"/>
        <pt x="564" y="-351" on="1"/>
        <pt x="576" y="-348" on="0"/>
        <pt x="585" y="-344" on="1"/>
        <pt x="588" y="-337" on="0"/>
        <pt x="592" y="-327" on="1"/>
        <pt x="594" y="-319" on="0"/>
        <pt x="599" y="-297" on="0"/>
        <pt x="599" y="-285" on="1"/>
        <pt x="599" y="-246" on="0"/>
        <pt x="522" y="-196" on="0"/>
        <pt x="438" y="-176" on="1"/>
        <pt x="404" y="-121" on="1"/>
        <pt x="442" y="-20" on="1"/>
        <pt x="360" y="-17" on="0"/>
        <pt x="288" y="-3" on="1"/>
        <pt x="189" y="15" on="0"/>
        <pt x="130" y="41" on="1"/>
        <pt x="109" y="300" on="1"/>
        <pt x="226" y="325" on="1"/>
        <pt x="308" y="131" on="1"/>
        <pt x="345" y="120" on="0"/>
        <pt x="436" y="107" on="0"/>
        <pt x="493" y="107" on="1"/>
        <pt x="567" y="107" on="0"/>
        <pt x="702" y="127" on="0"/>
        <pt x="760" y="145" on="1"/>
        <pt x="770" y="170" on="0"/>
        <pt x="790" y="253" on="0"/>
        <pt x="790" y="310" on="1"/>
        <pt x="790" y="373" on="0"/>
        <pt x="672" y="510" on="0"/>
        <pt x="476" y="628" on="1"/>
        <pt x="222" y="778" on="0"/>
        <pt x="109" y="942" on="0"/>
        <pt x="109" y="1039" on="1"/>
        <pt x="109" y="1185" on="0"/>
        <pt x="360" y="1375" on="0"/>
        <pt x="581" y="1375" on="1"/>
        <pt x="665" y="1375" on="0"/>
        <pt x="834" y="1351" on="0"/>
        <pt x="913" y="1323" on="1"/>
        <pt x="934" y="1053" on="1"/>
        <pt x="829" y="1031" on="1"/>
        <pt x="747" y="1224" on="1"/>
        <pt x="706" y="1235" on="0"/>
        <pt x="621" y="1246" on="0"/>
        <pt x="575" y="1246" on="1"/>
        <pt x="498" y="1246" on="0"/>
        <pt x="364" y="1224" on="0"/>
        <pt x="318" y="1208" on="1"/>
        <pt x="309" y="1178" on="0"/>
        <pt x="299" y="1111" on="0"/>
        <pt x="299" y="1074" on="1"/>
        <pt x="299" y="1003" on="0"/>
        <pt x="418" y="884" on="0"/>
      </contour>
    </TTGlyph>
    <TTGlyph name="Scircumflex" xMin="109" yMin="-22" xMax="980" yMax="1794">
      <component glyphName="S" x="0" y="0" flags="0x204"/>
      <component glyphName="circumflex.case" x="278" y="0" flags="0x4"/>
    </TTGlyph>
    <TTGlyph name="Scommaaccent" xMin="109" yMin="-511" xMax="980" yMax="1375">
      <component glyphName="S" x="0" y="0" flags="0x204"/>
      <component glyphName="uni0326" x="832" y="0" flags="0x4"/>
    </TTGlyph>
    <TTGlyph name="T" xMin="14" yMin="0" xMax="1125" yMax="1353">
      <contour>
        <pt x="475" y="1224" on="1"/>
        <pt x="175" y="1224" on="1"/>
        <pt x="113" y="1054" on="1"/>
        <pt x="14" y="1063" on="1"/>
        <pt x="29" y="1353" on="1"/>
        <pt x="1111" y="1353" on="1"/>
        <pt x="1125" y="1063" on="1"/>
        <pt x="1027" y="1054" on="1"/>
        <pt x="964" y="1224" on="1"/>
        <pt x="665" y="1224" on="1"/>
        <pt x="665" y="132" on="1"/>
        <pt x="818" y="98" on="1"/>
        <pt x="798" y="0" on="1"/>
        <pt x="342" y="0" on="1"/>
        <pt x="322" y="98" on="1"/>
        <pt x="475" y="132" on="1"/>
      </contour>
    </TTGlyph>
    <TTGlyph name="Tbar" xMin="14" yMin="0" xMax="1125" yMax="1353">
      <contour>
        <pt x="203" y="729" on="1"/>
        <pt x="475" y="729" on="1"/>
        <pt x="475" y="1224" on="1"/>
        <pt x="175" y="1224" on="1"/>
        <pt x="113" y="1054" on="1"/>
        <pt x="14" y="1063" on="1"/>
        <pt x="29" y="1353" on="1"/>
        <pt x="1111" y="1353" on="1"/>
        <pt x="1125" y="1063" on="1"/>
        <pt x="1027" y="1054" on="1"/>
        <pt x="964" y="1224" on="1"/>
        <pt x="665" y="1224" on="1"/>
        <pt x="665" y="729" on="1"/>
        <pt x="974" y="729" on="1"/>
        <pt x="954" y="609" on="1"/>
        <pt x="665" y="609" on="1"/>
        <pt x="665" y="132" on="1"/>
        <pt x="818" y="98" on="1"/>
        <pt x="798" y="0" on="1"/>
        <pt x="342" y="0" on="1"/>
        <pt x="322" y="98" on="1"/>
        <pt x="475" y="132" on="1"/>
        <pt x="475" y="609" on="1"/>
        <pt x="184" y="609" on="1"/>
      </contour>
    </TTGlyph>
    <TTGlyph name="Tcaron" xMin="14" yMin="0" xMax="1125" yMax="1794">
      <component glyphName="T" x="0" y="0" flags="0x204"/>
      <component glyphName="caron.case" x="287" y="0" flags="0x4"/>
    </TTGlyph>
    <TTGlyph name="Tcommaaccent" xMin="-24" yMin="-457" xMax="1047" yMax="1353">
      <contour>
        <pt x="417" y="1224" on="1"/>
        <pt x="137" y="1224" on="1"/>
        <pt x="75" y="1054" on="1"/>
        <pt x="-24" y="1063" on="1"/>
        <pt x="-9" y="1353" on="1"/>
        <pt x="1033" y="1353" on="1"/>
        <pt x="1047" y="1063" on="1"/>
        <pt x="949" y="1054" on="1"/>
        <pt x="886" y="1224" on="1"/>
        <pt x="607" y="1224" on="1"/>
        <pt x="607" y="132" on="1"/>
        <pt x="760" y="98" on="1"/>
        <pt x="740" y="0" on="1"/>
        <pt x="564" y="0" on="1"/>
        <pt x="529" y="-98" on="1"/>
        <pt x="571" y="-109" on="0"/>
        <pt x="641" y="-137" on="0"/>
        <pt x="692" y="-178" on="0"/>
        <pt x="721" y="-235" on="0"/>
        <pt x="721" y="-275" on="1"/>
        <pt x="721" y="-315" on="0"/>
        <pt x="690" y="-382" on="0"/>
        <pt x="631" y="-430" on="0"/>
        <pt x="546" y="-457" on="0"/>
        <pt x="493" y="-457" on="1"/>
        <pt x="453" y="-457" on="0"/>
        <pt x="385" y="-443" on="0"/>
        <pt x="359" y="-434" on="1"/>
        <pt x="329" y="-423" on="0"/>
        <pt x="303" y="-410" on="1"/>
        <pt x="303" y="-317" on="1"/>
        <pt x="330" y="-328" on="0"/>
        <pt x="360" y="-337" on="1"/>
        <pt x="386" y="-345" on="0"/>
        <pt x="450" y="-357" on="0"/>
        <pt x="483" y="-357" on="1"/>
        <pt x="503" y="-357" on="0"/>
        <pt x="534" y="-353" on="0"/>
        <pt x="545" y="-351" on="1"/>
        <pt x="557" y="-348" on="0"/>
        <pt x="566" y="-344" on="1"/>
        <pt x="569" y="-337" on="0"/>
        <pt x="573" y="-327" on="1"/>
        <pt x="575" y="-319" on="0"/>
        <pt x="580" y="-297" on="0"/>
        <pt x="580" y="-285" on="1"/>
        <pt x="580" y="-246" on="0"/>
        <pt x="503" y="-196" on="0"/>
        <pt x="419" y="-176" on="1"/>
        <pt x="385" y="-121" on="1"/>
        <pt x="431" y="0" on="1"/>
        <pt x="284" y="0" on="1"/>
        <pt x="264" y="98" on="1"/>
        <pt x="417" y="132" on="1"/>
      </contour>
    </TTGlyph>
    <TTGlyph name="Thorn" xMin="72" yMin="0" xMax="1020" yMax="1353">
      <contour>
        <pt x="225" y="1221" on="1"/>
        <pt x="72" y="1255" on="1"/>
        <pt x="92" y="1353" on="1"/>
        <pt x="547" y="1353" on="1"/>
        <pt x="567" y="1255" on="1"/>
        <pt x="415" y="1221" on="1"/>
        <pt x="415" y="1072" on="1"/>
        <pt x="583" y="1072" on="1"/>
        <pt x="796" y="1072" on="0"/>
        <pt x="1020" y="915" on="0"/>
        <pt x="1020" y="747" on="1"/>
        <pt x="1020" y="652" on="0"/>
        <pt x="953" y="508" on="0"/>
        <pt x="840" y="410" on="0"/>
        <pt x="690" y="360" on="0"/>
        <pt x="606" y="360" on="1"/>
        <pt x="415" y="360" on="1"/>
        <pt x="415" y="132" on="1"/>
        <pt x="627" y="98" on="1"/>
        <pt x="607" y="0" on="1"/>
        <pt x="92" y="0" on="1"/>
        <pt x="72" y="98" on="1"/>
        <pt x="225" y="132" on="1"/>
      </contour>
      <contour>
        <pt x="415" y="943" on="1"/>
        <pt x="415" y="489" on="1"/>
        <pt x="565" y="489" on="1"/>
        <pt x="617" y="489" on="0"/>
        <pt x="702" y="500" on="0"/>
        <pt x="732" y="508" on="1"/>
        <pt x="767" y="516" on="0"/>
        <pt x="795" y="527" on="1"/>
        <pt x="803" y="552" on="0"/>
        <pt x="810" y="581" on="1"/>
        <pt x="816" y="606" on="0"/>
        <pt x="826" y="671" on="0"/>
        <pt x="826" y="707" on="1"/>
        <pt x="826" y="759" on="0"/>
        <pt x="795" y="846" on="0"/>
        <pt x="726" y="908" on="0"/>
        <pt x="615" y="943" on="0"/>
        <pt x="535" y="943" on="1"/>
      </contour>
    </TTGlyph>
    <TTGlyph name="U" xMin="16" yMin="-22" xMax="1342" yMax="1353">
      <contour>
        <pt x="360" y="546" on="1"/>
        <pt x="360" y="323" on="0"/>
        <pt x="548" y="107" on="0"/>
        <pt x="713" y="107" on="1"/>
        <pt x="792" y="107" on="0"/>
        <pt x="930" y="153" on="0"/>
        <pt x="971" y="183" on="1"/>
        <pt x="1005" y="245" on="0"/>
        <pt x="1049" y="421" on="0"/>
        <pt x="1049" y="521" on="1"/>
        <pt x="1049" y="1221" on="1"/>
        <pt x="896" y="1255" on="1"/>
        <pt x="916" y="1353" on="1"/>
        <pt x="1322" y="1353" on="1"/>
        <pt x="1342" y="1255" on="1"/>
        <pt x="1190" y="1221" on="1"/>
        <pt x="1190" y="544" on="1"/>
        <pt x="1190" y="253" on="0"/>
        <pt x="936" y="-22" on="0"/>
        <pt x="673" y="-22" on="1"/>
        <pt x="424" y="-22" on="0"/>
        <pt x="170" y="227" on="0"/>
        <pt x="170" y="491" on="1"/>
        <pt x="170" y="1221" on="1"/>
        <pt x="16" y="1255" on="1"/>
        <pt x="36" y="1353" on="1"/>
        <pt x="492" y="1353" on="1"/>
        <pt x="512" y="1255" on="1"/>
        <pt x="360" y="1221" on="1"/>
      </contour>
    </TTGlyph>
    <TTGlyph name="Uacute" xMin="16" yMin="-22" xMax="1342" yMax="1784">
      <component glyphName="U" x="0" y="0" flags="0x204"/>
      <component glyphName="acute.case" x="479" y="0" flags="0x4"/>
    </TTGlyph>
    <TTGlyph name="Ubreve" xMin="16" yMin="-22" xMax="1342" yMax="1759">
      <component glyphName="U" x="0" y="0" flags="0x204"/>
      <component glyphName="breve.case" x="431" y="0" flags="0x4"/>
    </TTGlyph>
    <TTGlyph name="Ucircumflex" xMin="16" yMin="-22" xMax="1342" yMax="1794">
      <component glyphName="U" x="0" y="0" flags="0x204"/>
      <component glyphName="circumflex.case" x="436" y="0" flags="0x4"/>
    </TTGlyph>
    <TTGlyph name="Udieresis" xMin="16" yMin="-22" xMax="1342" yMax="1707">
      <component glyphName="U" x="0" y="0" flags="0x204"/>
      <component glyphName="dieresis.case" x="430" y="0" flags="0x4"/>
    </TTGlyph>
    <TTGlyph name="Ugrave" xMin="16" yMin="-22" xMax="1342" yMax="1784">
      <component glyphName="U" x="0" y="0" flags="0x204"/>
      <component glyphName="grave.case" x="311" y="0" flags="0x4"/>
    </TTGlyph>
    <TTGlyph name="Uhorn" xMin="16" yMin="-22" xMax="1619" yMax="1589">
      <contour>
        <pt x="1532" y="1589" on="1"/>
        <pt x="1580" y="1529" on="0"/>
        <pt x="1619" y="1421" on="0"/>
        <pt x="1619" y="1376" on="1"/>
        <pt x="1619" y="1317" on="0"/>
        <pt x="1574" y="1220" on="0"/>
        <pt x="1469" y="1133" on="0"/>
        <pt x="1382" y="1093" on="1"/>
        <pt x="1303" y="1057" on="0"/>
        <pt x="1190" y="1021" on="1"/>
        <pt x="1190" y="544" on="1"/>
        <pt x="1190" y="253" on="0"/>
        <pt x="936" y="-22" on="0"/>
        <pt x="673" y="-22" on="1"/>
        <pt x="424" y="-22" on="0"/>
        <pt x="170" y="227" on="0"/>
        <pt x="170" y="491" on="1"/>
        <pt x="170" y="1221" on="1"/>
        <pt x="16" y="1255" on="1"/>
        <pt x="36" y="1353" on="1"/>
        <pt x="492" y="1353" on="1"/>
        <pt x="512" y="1255" on="1"/>
        <pt x="360" y="1221" on="1"/>
        <pt x="360" y="546" on="1"/>
        <pt x="360" y="323" on="0"/>
        <pt x="548" y="107" on="0"/>
        <pt x="713" y="107" on="1"/>
        <pt x="792" y="107" on="0"/>
        <pt x="930" y="153" on="0"/>
        <pt x="971" y="183" on="1"/>
        <pt x="1005" y="245" on="0"/>
        <pt x="1049" y="421" on="0"/>
        <pt x="1049" y="521" on="1"/>
        <pt x="1049" y="1221" on="1"/>
        <pt x="896" y="1255" on="1"/>
        <pt x="916" y="1353" on="1"/>
        <pt x="1322" y="1353" on="1"/>
        <pt x="1342" y="1255" on="1"/>
        <pt x="1190" y="1221" on="1"/>
        <pt x="1190" y="1125" on="1"/>
        <pt x="1253" y="1150" on="0"/>
        <pt x="1298" y="1172" on="1"/>
        <pt x="1350" y="1197" on="0"/>
        <pt x="1413" y="1248" on="0"/>
        <pt x="1439" y="1304" on="0"/>
        <pt x="1439" y="1340" on="1"/>
        <pt x="1439" y="1375" on="0"/>
        <pt x="1418" y="1435" on="0"/>
        <pt x="1405" y="1457" on="1"/>
        <pt x="1390" y="1483" on="0"/>
        <pt x="1372" y="1502" on="1"/>
        <pt x="1372" y="1532" on="1"/>
      </contour>
    </TTGlyph>
    <TTGlyph name="Uhungarumlaut" xMin="16" yMin="-22" xMax="1342" yMax="1784">
      <component glyphName="U" x="0" y="0" flags="0x204"/>
      <component glyphName="hungarumlaut.case" x="557" y="0" flags="0x4"/>
    </TTGlyph>
    <TTGlyph name="Umacron" xMin="16" yMin="-22" xMax="1342" yMax="1660">
      <component glyphName="U" x="0" y="0" flags="0x204"/>
      <component glyphName="macron.case" x="447" y="0" flags="0x4"/>
    </TTGlyph>
    <TTGlyph name="Uogonek" xMin="16" yMin="-456" xMax="1342" yMax="1353">
      <contour>
        <pt x="360" y="546" on="1"/>
        <pt x="360" y="323" on="0"/>
        <pt x="548" y="107" on="0"/>
        <pt x="713" y="107" on="1"/>
        <pt x="792" y="107" on="0"/>
        <pt x="930" y="153" on="0"/>
        <pt x="971" y="183" on="1"/>
        <pt x="1005" y="245" on="0"/>
        <pt x="1049" y="421" on="0"/>
        <pt x="1049" y="521" on="1"/>
        <pt x="1049" y="1221" on="1"/>
        <pt x="896" y="1255" on="1"/>
        <pt x="916" y="1353" on="1"/>
        <pt x="1322" y="1353" on="1"/>
        <pt x="1342" y="1255" on="1"/>
        <pt x="1190" y="1221" on="1"/>
        <pt x="1190" y="544" on="1"/>
        <pt x="1190" y="253" on="0"/>
        <pt x="1063" y="115" on="1"/>
        <pt x="1016" y="64" on="0"/>
        <pt x="950" y="32" on="1"/>
        <pt x="891" y="3" on="0"/>
        <pt x="790" y="-80" on="0"/>
        <pt x="716" y="-169" on="0"/>
        <pt x="673" y="-257" on="0"/>
        <pt x="673" y="-291" on="1"/>
        <pt x="673" y="-329" on="0"/>
        <pt x="709" y="-356" on="0"/>
        <pt x="740" y="-356" on="1"/>
        <pt x="769" y="-356" on="0"/>
        <pt x="825" y="-331" on="0"/>
        <pt x="848" y="-316" on="1"/>
        <pt x="874" y="-298" on="0"/>
        <pt x="900" y="-276" on="1"/>
        <pt x="900" y="-369" on="1"/>
        <pt x="876" y="-394" on="0"/>
        <pt x="843" y="-413" on="1"/>
        <pt x="815" y="-430" on="0"/>
        <pt x="738" y="-456" on="0"/>
        <pt x="690" y="-456" on="1"/>
        <pt x="611" y="-456" on="0"/>
        <pt x="532" y="-398" on="0"/>
        <pt x="532" y="-323" on="1"/>
        <pt x="532" y="-259" on="0"/>
        <pt x="587" y="-137" on="0"/>
        <pt x="638" y="-80" on="1"/>
        <pt x="666" y="-50" on="0"/>
        <pt x="699" y="-21" on="1"/>
        <pt x="686" y="-22" on="0"/>
        <pt x="673" y="-22" on="1"/>
        <pt x="424" y="-22" on="0"/>
        <pt x="170" y="227" on="0"/>
        <pt x="170" y="491" on="1"/>
        <pt x="170" y="1221" on="1"/>
        <pt x="16" y="1255" on="1"/>
        <pt x="36" y="1353" on="1"/>
        <pt x="492" y="1353" on="1"/>
        <pt x="512" y="1255" on="1"/>
        <pt x="360" y="1221" on="1"/>
      </contour>
    </TTGlyph>
    <TTGlyph name="Uring" xMin="16" yMin="-22" xMax="1342" yMax="1784">
      <component glyphName="U" x="0" y="0" flags="0x204"/>
      <component glyphName="ring.case" x="437" y="0" flags="0x4"/>
    </TTGlyph>
    <TTGlyph name="Utilde" xMin="16" yMin="-22" xMax="1342" yMax="1749">
      <component glyphName="U" x="0" y="0" flags="0x204"/>
      <component glyphName="tilde.case" x="427" y="0" flags="0x4"/>
    </TTGlyph>
    <TTGlyph name="V" xMin="-44" yMin="0" xMax="1224" yMax="1353">
      <contour>
        <pt x="402" y="1254" on="1"/>
        <pt x="253" y="1225" on="1"/>
        <pt x="604" y="182" on="1"/>
        <pt x="620" y="182" on="1"/>
        <pt x="970" y="1225" on="1"/>
        <pt x="821" y="1254" on="1"/>
        <pt x="841" y="1353" on="1"/>
        <pt x="1204" y="1353" on="1"/>
        <pt x="1224" y="1254" on="1"/>
        <pt x="1116" y="1226" on="1"/>
        <pt x="686" y="0" on="1"/>
        <pt x="495" y="0" on="1"/>
        <pt x="63" y="1226" on="1"/>
        <pt x="-44" y="1254" on="1"/>
        <pt x="-24" y="1353" on="1"/>
        <pt x="382" y="1353" on="1"/>
      </contour>
    </TTGlyph>
    <TTGlyph name="W" xMin="-44" yMin="0" xMax="2042" yMax="1353">
      <contour>
        <pt x="403" y="1254" on="1"/>
        <pt x="254" y="1225" on="1"/>
        <pt x="589" y="232" on="1"/>
        <pt x="605" y="232" on="1"/>
        <pt x="947" y="1353" on="1"/>
        <pt x="1138" y="1353" on="1"/>
        <pt x="1472" y="232" on="1"/>
        <pt x="1488" y="232" on="1"/>
        <pt x="1792" y="1225" on="1"/>
        <pt x="1639" y="1254" on="1"/>
        <pt x="1659" y="1353" on="1"/>
        <pt x="2022" y="1353" on="1"/>
        <pt x="2042" y="1254" on="1"/>
        <pt x="1939" y="1227" on="1"/>
        <pt x="1553" y="0" on="1"/>
        <pt x="1362" y="0" on="1"/>
        <pt x="1029" y="1107" on="1"/>
        <pt x="1013" y="1107" on="1"/>
        <pt x="676" y="0" on="1"/>
        <pt x="484" y="0" on="1"/>
        <pt x="62" y="1227" on="1"/>
        <pt x="-44" y="1254" on="1"/>
        <pt x="-24" y="1353" on="1"/>
        <pt x="383" y="1353" on="1"/>
      </contour>
    </TTGlyph>
    <TTGlyph name="Wacute" xMin="-44" yMin="0" xMax="2042" yMax="1784">
      <component glyphName="W" x="0" y="0" flags="0x204"/>
      <component glyphName="acute.case" x="821" y="0" flags="0x4"/>
    </TTGlyph>
    <TTGlyph name="Wcircumflex" xMin="-44" yMin="0" xMax="2042" yMax="1794">
      <component glyphName="W" x="0" y="0" flags="0x204"/>
      <component glyphName="circumflex.case" x="778" y="0" flags="0x4"/>
    </TTGlyph>
    <TTGlyph name="Wdieresis" xMin="-44" yMin="0" xMax="2042" yMax="1707">
      <component glyphName="W" x="0" y="0" flags="0x204"/>
      <component glyphName="dieresis.case" x="772" y="0" flags="0x4"/>
    </TTGlyph>
    <TTGlyph name="Wdotaccent" xMin="-44" yMin="0" xMax="2042" yMax="1737">
      <component glyphName="W" x="0" y="0" flags="0x204"/>
      <component glyphName="dotaccent.case" x="781" y="0" flags="0x4"/>
    </TTGlyph>
    <TTGlyph name="Wgrave" xMin="-44" yMin="0" xMax="2042" yMax="1784">
      <component glyphName="W" x="0" y="0" flags="0x204"/>
      <component glyphName="grave.case" x="653" y="0" flags="0x4"/>
    </TTGlyph>
    <TTGlyph name="X" xMin="36" yMin="0" xMax="1237" yMax="1353">
      <contour>
        <pt x="188" y="1226" on="1"/>
        <pt x="72" y="1254" on="1"/>
        <pt x="92" y="1353" on="1"/>
        <pt x="493" y="1353" on="1"/>
        <pt x="513" y="1254" on="1"/>
        <pt x="395" y="1226" on="1"/>
        <pt x="662" y="823" on="1"/>
        <pt x="678" y="823" on="1"/>
        <pt x="936" y="1225" on="1"/>
        <pt x="816" y="1254" on="1"/>
        <pt x="836" y="1353" on="1"/>
        <pt x="1191" y="1353" on="1"/>
        <pt x="1211" y="1254" on="1"/>
        <pt x="1093" y="1226" on="1"/>
        <pt x="741" y="700" on="1"/>
        <pt x="1120" y="127" on="1"/>
        <pt x="1237" y="98" on="1"/>
        <pt x="1217" y="0" on="1"/>
        <pt x="816" y="0" on="1"/>
        <pt x="796" y="98" on="1"/>
        <pt x="914" y="127" on="1"/>
        <pt x="615" y="580" on="1"/>
        <pt x="599" y="580" on="1"/>
        <pt x="310" y="128" on="1"/>
        <pt x="427" y="98" on="1"/>
        <pt x="407" y="0" on="1"/>
        <pt x="56" y="0" on="1"/>
        <pt x="36" y="98" on="1"/>
        <pt x="153" y="127" on="1"/>
        <pt x="534" y="702" on="1"/>
      </contour>
    </TTGlyph>
    <TTGlyph name="Y" xMin="-52" yMin="0" xMax="1174" yMax="1353">
      <contour>
        <pt x="478" y="578" on="1"/>
        <pt x="62" y="1226" on="1"/>
        <pt x="-52" y="1254" on="1"/>
        <pt x="-32" y="1353" on="1"/>
        <pt x="378" y="1353" on="1"/>
        <pt x="398" y="1254" on="1"/>
        <pt x="266" y="1226" on="1"/>
        <pt x="587" y="722" on="1"/>
        <pt x="603" y="722" on="1"/>
        <pt x="907" y="1226" on="1"/>
        <pt x="782" y="1254" on="1"/>
        <pt x="802" y="1353" on="1"/>
        <pt x="1154" y="1353" on="1"/>
        <pt x="1174" y="1254" on="1"/>
        <pt x="1063" y="1226" on="1"/>
        <pt x="668" y="576" on="1"/>
        <pt x="668" y="132" on="1"/>
        <pt x="820" y="98" on="1"/>
        <pt x="800" y="0" on="1"/>
        <pt x="345" y="0" on="1"/>
        <pt x="325" y="98" on="1"/>
        <pt x="478" y="132" on="1"/>
      </contour>
    </TTGlyph>
    <TTGlyph name="Yacute" xMin="-52" yMin="0" xMax="1174" yMax="1784">
      <component glyphName="Y" x="0" y="0" flags="0x204"/>
      <component glyphName="acute.case" x="368" y="0" flags="0x4"/>
    </TTGlyph>
    <TTGlyph name="Ycircumflex" xMin="-52" yMin="0" xMax="1174" yMax="1794">
      <component glyphName="Y" x="0" y="0" flags="0x204"/>
      <component glyphName="circumflex.case" x="325" y="0" flags="0x4"/>
    </TTGlyph>
    <TTGlyph name="Ydieresis" xMin="-52" yMin="0" xMax="1174" yMax="1707">
      <component glyphName="Y" x="0" y="0" flags="0x204"/>
      <component glyphName="dieresis.case" x="319" y="0" flags="0x4"/>
    </TTGlyph>
    <TTGlyph name="Ygrave" xMin="-52" yMin="0" xMax="1174" yMax="1784">
      <component glyphName="Y" x="0" y="0" flags="0x204"/>
      <component glyphName="grave.case" x="200" y="0" flags="0x4"/>
    </TTGlyph>
    <TTGlyph name="Z" xMin="82" yMin="0" xMax="1054" yMax="1353">
      <contour>
        <pt x="1023" y="1353" on="1"/>
        <pt x="1023" y="1229" on="1"/>
        <pt x="307" y="143" on="1"/>
        <pt x="312" y="129" on="1"/>
        <pt x="869" y="129" on="1"/>
        <pt x="951" y="322" on="1"/>
        <pt x="1054" y="300" on="1"/>
        <pt x="1030" y="0" on="1"/>
        <pt x="82" y="0" on="1"/>
        <pt x="82" y="125" on="1"/>
        <pt x="797" y="1210" on="1"/>
        <pt x="792" y="1224" on="1"/>
        <pt x="276" y="1224" on="1"/>
        <pt x="194" y="1031" on="1"/>
        <pt x="90" y="1053" on="1"/>
        <pt x="115" y="1353" on="1"/>
      </contour>
    </TTGlyph>
    <TTGlyph name="Zacute" xMin="82" yMin="0" xMax="1054" yMax="1784">
      <component glyphName="Z" x="0" y="0" flags="0x204"/>
      <component glyphName="acute.case" x="339" y="0" flags="0x4"/>
    </TTGlyph>
    <TTGlyph name="Zcaron" xMin="82" yMin="0" xMax="1054" yMax="1794">
      <component glyphName="Z" x="0" y="0" flags="0x204"/>
      <component glyphName="caron.case" x="286" y="0" flags="0x4"/>
    </TTGlyph>
    <TTGlyph name="Zcircumflex" xMin="82" yMin="0" xMax="1054" yMax="1794">
      <component glyphName="Z" x="0" y="0" flags="0x204"/>
      <component glyphName="circumflex.case" x="296" y="0" flags="0x4"/>
    </TTGlyph>
    <TTGlyph name="Zdotaccent" xMin="82" yMin="0" xMax="1054" yMax="1737">
      <component glyphName="Z" x="0" y="0" flags="0x204"/>
      <component glyphName="dotaccent.case" x="299" y="0" flags="0x4"/>
    </TTGlyph>
    <TTGlyph name="a" xMin="108" yMin="-22" xMax="1112" yMax="1107">
      <contour>
        <pt x="939" y="132" on="1"/>
        <pt x="1112" y="98" on="1"/>
        <pt x="1092" y="0" on="1"/>
        <pt x="837" y="-22" on="1"/>
        <pt x="779" y="155" on="1"/>
        <pt x="701" y="60" on="0"/>
        <pt x="523" y="-22" on="0"/>
        <pt x="419" y="-22" on="1"/>
        <pt x="279" y="-22" on="0"/>
        <pt x="108" y="118" on="0"/>
        <pt x="108" y="237" on="1"/>
        <pt x="108" y="420" on="0"/>
        <pt x="432" y="607" on="0"/>
        <pt x="759" y="607" on="1"/>
        <pt x="759" y="702" on="1"/>
        <pt x="759" y="852" on="0"/>
        <pt x="650" y="987" on="0"/>
        <pt x="514" y="987" on="1"/>
        <pt x="482" y="987" on="0"/>
        <pt x="399" y="979" on="0"/>
        <pt x="364" y="972" on="1"/>
        <pt x="304" y="760" on="1"/>
        <pt x="206" y="770" on="1"/>
        <pt x="206" y="1053" on="1"/>
        <pt x="266" y="1074" on="0"/>
        <pt x="443" y="1107" on="0"/>
        <pt x="533" y="1107" on="1"/>
        <pt x="738" y="1107" on="0"/>
        <pt x="939" y="926" on="0"/>
        <pt x="939" y="735" on="1"/>
      </contour>
      <contour>
        <pt x="759" y="487" on="1"/>
        <pt x="609" y="487" on="0"/>
        <pt x="377" y="448" on="0"/>
        <pt x="316" y="415" on="1"/>
        <pt x="304" y="387" on="0"/>
        <pt x="288" y="315" on="0"/>
        <pt x="288" y="275" on="1"/>
        <pt x="288" y="192" on="0"/>
        <pt x="398" y="98" on="0"/>
        <pt x="487" y="98" on="1"/>
        <pt x="562" y="98" on="0"/>
        <pt x="708" y="173" on="0"/>
        <pt x="759" y="225" on="1"/>
      </contour>
    </TTGlyph>
    <TTGlyph name="aacute" xMin="108" yMin="-22" xMax="1112" yMax="1670">
      <component glyphName="a" x="0" y="0" flags="0x204"/>
      <component glyphName="acute" x="73" y="0" flags="0x4"/>
    </TTGlyph>
    <TTGlyph name="abreve" xMin="108" yMin="-22" xMax="1112" yMax="1602">
      <component glyphName="a" x="0" y="0" flags="0x204"/>
      <component glyphName="breve" x="41" y="0" flags="0x4"/>
    </TTGlyph>
    <TTGlyph name="acircumflex" xMin="108" yMin="-22" xMax="1112" yMax="1680">
      <component glyphName="a" x="0" y="0" flags="0x204"/>
      <component glyphName="circumflex" x="53" y="0" flags="0x4"/>
    </TTGlyph>
    <TTGlyph name="acute" xMin="397" yMin="1265" xMax="782" yMax="1670">
      <contour>
        <pt x="397" y="1307" on="1"/>
        <pt x="600" y="1670" on="1"/>
        <pt x="782" y="1660" on="1"/>
        <pt x="782" y="1594" on="1"/>
        <pt x="502" y="1265" on="1"/>
        <pt x="397" y="1275" on="1"/>
      </contour>
    </TTGlyph>
    <TTGlyph name="acute.case" xMin="85" yMin="1460" xMax="575" yMax="1784">
      <contour>
        <pt x="85" y="1503" on="1"/>
        <pt x="383" y="1784" on="1"/>
        <pt x="575" y="1774" on="1"/>
        <pt x="575" y="1708" on="1"/>
        <pt x="200" y="1460" on="1"/>
        <pt x="85" y="1471" on="1"/>
      </contour>
    </TTGlyph>
    <TTGlyph name="acutecomb" xMin="-655" yMin="1265" xMax="-270" yMax="1670">
      <contour>
        <pt x="-655" y="1307" on="1"/>
        <pt x="-452" y="1670" on="1"/>
        <pt x="-270" y="1660" on="1"/>
        <pt x="-270" y="1594" on="1"/>
        <pt x="-550" y="1265" on="1"/>
        <pt x="-655" y="1275" on="1"/>
      </contour>
    </TTGlyph>
    <TTGlyph name="adieresis" xMin="108" yMin="-22" xMax="1112" yMax="1510">
      <component glyphName="a" x="0" y="0" flags="0x204"/>
      <component glyphName="dieresis" x="32" y="0" flags="0x4"/>
    </TTGlyph>
    <TTGlyph name="ae" xMin="98" yMin="-22" xMax="1557" yMax="1107">
      <contour>
        <pt x="98" y="237" on="1"/>
        <pt x="98" y="323" on="0"/>
        <pt x="170" y="460" on="0"/>
        <pt x="325" y="556" on="0"/>
        <pt x="568" y="607" on="0"/>
        <pt x="739" y="607" on="1"/>
        <pt x="739" y="702" on="1"/>
        <pt x="739" y="760" on="0"/>
        <pt x="725" y="854" on="0"/>
        <pt x="717" y="887" on="1"/>
        <pt x="707" y="926" on="0"/>
        <pt x="696" y="955" on="1"/>
        <pt x="658" y="969" on="0"/>
        <pt x="561" y="987" on="0"/>
        <pt x="493" y="987" on="1"/>
        <pt x="465" y="987" on="0"/>
        <pt x="416" y="982" on="0"/>
        <pt x="396" y="979" on="1"/>
        <pt x="373" y="975" on="0"/>
        <pt x="354" y="972" on="1"/>
        <pt x="294" y="760" on="1"/>
        <pt x="196" y="770" on="1"/>
        <pt x="196" y="1053" on="1"/>
        <pt x="233" y="1068" on="0"/>
        <pt x="281" y="1080" on="1"/>
        <pt x="321" y="1090" on="0"/>
        <pt x="432" y="1107" on="0"/>
        <pt x="499" y="1107" on="1"/>
        <pt x="631" y="1107" on="0"/>
        <pt x="812" y="1033" on="0"/>
        <pt x="862" y="948" on="1"/>
        <pt x="922" y="1027" on="0"/>
        <pt x="1090" y="1107" on="0"/>
        <pt x="1194" y="1107" on="1"/>
        <pt x="1299" y="1107" on="0"/>
        <pt x="1438" y="1049" on="0"/>
        <pt x="1522" y="933" on="0"/>
        <pt x="1557" y="759" on="0"/>
        <pt x="1557" y="643" on="1"/>
        <pt x="1557" y="523" on="1"/>
        <pt x="919" y="523" on="1"/>
        <pt x="919" y="447" on="1"/>
        <pt x="919" y="348" on="0"/>
        <pt x="977" y="215" on="0"/>
        <pt x="1064" y="133" on="0"/>
        <pt x="1167" y="98" on="0"/>
        <pt x="1212" y="98" on="1"/>
        <pt x="1271" y="98" on="0"/>
        <pt x="1375" y="118" on="0"/>
        <pt x="1416" y="130" on="1"/>
        <pt x="1463" y="144" on="0"/>
        <pt x="1504" y="163" on="1"/>
        <pt x="1504" y="67" on="1"/>
        <pt x="1461" y="41" on="0"/>
        <pt x="1406" y="22" on="1"/>
        <pt x="1359" y="5" on="0"/>
        <pt x="1230" y="-22" on="0"/>
        <pt x="1152" y="-22" on="1"/>
        <pt x="1090" y="-22" on="0"/>
        <pt x="980" y="1" on="0"/>
        <pt x="886" y="50" on="0"/>
        <pt x="811" y="125" on="0"/>
        <pt x="786" y="178" on="1"/>
        <pt x="769" y="153" on="0"/>
        <pt x="707" y="84" on="0"/>
        <pt x="613" y="22" on="0"/>
        <pt x="484" y="-22" on="0"/>
        <pt x="399" y="-22" on="1"/>
        <pt x="334" y="-22" on="0"/>
        <pt x="224" y="12" on="0"/>
        <pt x="143" y="78" on="0"/>
        <pt x="98" y="174" on="0"/>
      </contour>
      <contour>
        <pt x="467" y="98" on="1"/>
        <pt x="524" y="98" on="0"/>
        <pt x="624" y="137" on="0"/>
        <pt x="701" y="188" on="0"/>
        <pt x="752" y="237" on="0"/>
        <pt x="760" y="246" on="1"/>
        <pt x="739" y="319" on="0"/>
        <pt x="739" y="414" on="1"/>
        <pt x="739" y="487" on="1"/>
        <pt x="616" y="487" on="0"/>
        <pt x="451" y="465" on="0"/>
        <pt x="400" y="451" on="1"/>
        <pt x="340" y="435" on="0"/>
        <pt x="306" y="415" on="1"/>
        <pt x="298" y="398" on="0"/>
        <pt x="292" y="377" on="1"/>
        <pt x="287" y="359" on="0"/>
        <pt x="278" y="307" on="0"/>
        <pt x="278" y="275" on="1"/>
        <pt x="278" y="227" on="0"/>
        <pt x="310" y="160" on="0"/>
        <pt x="363" y="118" on="0"/>
        <pt x="431" y="98" on="0"/>
      </contour>
      <contour>
        <pt x="979" y="927" on="1"/>
        <pt x="966" y="894" on="0"/>
        <pt x="955" y="852" on="1"/>
        <pt x="945" y="815" on="0"/>
        <pt x="927" y="711" on="0"/>
        <pt x="922" y="643" on="1"/>
        <pt x="1367" y="643" on="1"/>
        <pt x="1367" y="729" on="0"/>
        <pt x="1346" y="858" on="0"/>
        <pt x="1299" y="944" on="0"/>
        <pt x="1222" y="987" on="0"/>
        <pt x="1166" y="987" on="1"/>
        <pt x="1124" y="987" on="0"/>
        <pt x="1056" y="968" on="0"/>
        <pt x="1031" y="957" on="1"/>
        <pt x="1002" y="944" on="0"/>
      </contour>
    </TTGlyph>
    <TTGlyph name="aeacute" xMin="98" yMin="-22" xMax="1557" yMax="1670">
      <component glyphName="ae" x="0" y="0" flags="0x204"/>
      <component glyphName="acutecomb" x="1441" y="0" flags="0x4"/>
    </TTGlyph>
    <TTGlyph name="agrave" xMin="108" yMin="-22" xMax="1112" yMax="1670">
      <component glyphName="a" x="0" y="0" flags="0x204"/>
      <component glyphName="grave" x="106" y="0" flags="0x4"/>
    </TTGlyph>
    <TTGlyph name="amacron" xMin="108" yMin="-22" xMax="1112" yMax="1473">
      <component glyphName="a" x="0" y="0" flags="0x204"/>
      <component glyphName="macron" x="47" y="0" flags="0x4"/>
    </TTGlyph>
    <TTGlyph name="ampersand" xMin="77" yMin="-22" xMax="1546" yMax="1375">
      <contour>
        <pt x="1215" y="519" on="1"/>
        <pt x="1215" y="431" on="0"/>
        <pt x="1151" y="271" on="0"/>
        <pt x="1091" y="202" on="1"/>
        <pt x="1156" y="157" on="0"/>
        <pt x="1276" y="107" on="0"/>
        <pt x="1330" y="107" on="1"/>
        <pt x="1375" y="107" on="0"/>
        <pt x="1454" y="117" on="0"/>
        <pt x="1483" y="124" on="1"/>
        <pt x="1517" y="131" on="0"/>
        <pt x="1546" y="141" on="1"/>
        <pt x="1546" y="45" on="1"/>
        <pt x="1519" y="26" on="0"/>
        <pt x="1482" y="11" on="1"/>
        <pt x="1450" y="-2" on="0"/>
        <pt x="1359" y="-22" on="0"/>
        <pt x="1299" y="-22" on="1"/>
        <pt x="1218" y="-22" on="0"/>
        <pt x="1054" y="41" on="0"/>
        <pt x="969" y="98" on="1"/>
        <pt x="882" y="41" on="0"/>
        <pt x="660" y="-22" on="0"/>
        <pt x="526" y="-22" on="1"/>
        <pt x="422" y="-22" on="0"/>
        <pt x="255" y="13" on="0"/>
        <pt x="139" y="85" on="0"/>
        <pt x="77" y="197" on="0"/>
        <pt x="77" y="274" on="1"/>
        <pt x="77" y="304" on="1"/>
        <pt x="77" y="370" on="0"/>
        <pt x="127" y="485" on="0"/>
        <pt x="209" y="583" on="0"/>
        <pt x="313" y="664" on="0"/>
        <pt x="368" y="695" on="1"/>
        <pt x="300" y="792" on="0"/>
        <pt x="223" y="942" on="0"/>
        <pt x="223" y="999" on="1"/>
        <pt x="223" y="1029" on="1"/>
        <pt x="223" y="1098" on="0"/>
        <pt x="280" y="1223" on="0"/>
        <pt x="391" y="1319" on="0"/>
        <pt x="553" y="1375" on="0"/>
        <pt x="658" y="1375" on="1"/>
        <pt x="739" y="1375" on="0"/>
        <pt x="862" y="1337" on="0"/>
        <pt x="946" y="1267" on="0"/>
        <pt x="988" y="1167" on="0"/>
        <pt x="988" y="1105" on="1"/>
        <pt x="988" y="1076" on="1"/>
        <pt x="988" y="1019" on="0"/>
        <pt x="936" y="919" on="0"/>
        <pt x="837" y="824" on="0"/>
        <pt x="693" y="729" on="0"/>
        <pt x="601" y="676" on="1"/>
        <pt x="687" y="574" on="0"/>
        <pt x="877" y="373" on="0"/>
        <pt x="974" y="291" on="1"/>
        <pt x="1008" y="339" on="0"/>
        <pt x="1045" y="457" on="0"/>
        <pt x="1045" y="526" on="1"/>
        <pt x="1045" y="552" on="1"/>
        <pt x="892" y="586" on="1"/>
        <pt x="912" y="684" on="1"/>
        <pt x="1215" y="706" on="1"/>
      </contour>
      <contour>
        <pt x="546" y="107" on="1"/>
        <pt x="637" y="107" on="0"/>
        <pt x="793" y="146" on="0"/>
        <pt x="856" y="183" on="1"/>
        <pt x="754" y="268" on="0"/>
        <pt x="552" y="481" on="0"/>
        <pt x="451" y="599" on="1"/>
        <pt x="399" y="568" on="0"/>
        <pt x="328" y="507" on="0"/>
        <pt x="285" y="441" on="0"/>
        <pt x="267" y="369" on="0"/>
        <pt x="267" y="328" on="1"/>
        <pt x="267" y="312" on="1"/>
        <pt x="267" y="264" on="0"/>
        <pt x="312" y="188" on="0"/>
        <pt x="388" y="135" on="0"/>
        <pt x="490" y="107" on="0"/>
      </contour>
      <contour>
        <pt x="798" y="1069" on="1"/>
        <pt x="798" y="1112" on="0"/>
        <pt x="769" y="1178" on="0"/>
        <pt x="718" y="1223" on="0"/>
        <pt x="648" y="1246" on="0"/>
        <pt x="606" y="1246" on="1"/>
        <pt x="575" y="1246" on="0"/>
        <pt x="524" y="1240" on="0"/>
        <pt x="504" y="1236" on="1"/>
        <pt x="481" y="1232" on="0"/>
        <pt x="463" y="1226" on="1"/>
        <pt x="449" y="1205" on="0"/>
        <pt x="438" y="1179" on="1"/>
        <pt x="428" y="1157" on="0"/>
        <pt x="413" y="1098" on="0"/>
        <pt x="413" y="1064" on="1"/>
        <pt x="413" y="1047" on="1"/>
        <pt x="413" y="1008" on="0"/>
        <pt x="425" y="944" on="0"/>
        <pt x="452" y="882" on="0"/>
        <pt x="495" y="816" on="0"/>
        <pt x="525" y="775" on="1"/>
        <pt x="582" y="806" on="0"/>
        <pt x="682" y="873" on="0"/>
        <pt x="755" y="943" on="0"/>
        <pt x="798" y="1016" on="0"/>
        <pt x="798" y="1053" on="1"/>
      </contour>
    </TTGlyph>
    <TTGlyph name="aogonek" xMin="108" yMin="-457" xMax="1137" yMax="1107">
      <contour>
        <pt x="939" y="132" on="1"/>
        <pt x="1112" y="98" on="1"/>
        <pt x="1092" y="0" on="1"/>
        <pt x="1050" y="-30" on="0"/>
        <pt x="983" y="-103" on="0"/>
        <pt x="935" y="-180" on="0"/>
        <pt x="910" y="-258" on="0"/>
        <pt x="910" y="-292" on="1"/>
        <pt x="910" y="-330" on="0"/>
        <pt x="946" y="-357" on="0"/>
        <pt x="977" y="-357" on="1"/>
        <pt x="1006" y="-357" on="0"/>
        <pt x="1062" y="-332" on="0"/>
        <pt x="1085" y="-317" on="1"/>
        <pt x="1111" y="-299" on="0"/>
        <pt x="1137" y="-277" on="1"/>
        <pt x="1137" y="-370" on="1"/>
        <pt x="1113" y="-395" on="0"/>
        <pt x="1080" y="-414" on="1"/>
        <pt x="1052" y="-431" on="0"/>
        <pt x="975" y="-457" on="0"/>
        <pt x="927" y="-457" on="1"/>
        <pt x="848" y="-457" on="0"/>
        <pt x="769" y="-399" on="0"/>
        <pt x="769" y="-324" on="1"/>
        <pt x="769" y="-260" on="0"/>
        <pt x="823" y="-140" on="0"/>
        <pt x="870" y="-87" on="1"/>
        <pt x="906" y="-46" on="0"/>
        <pt x="947" y="-12" on="1"/>
        <pt x="837" y="-22" on="1"/>
        <pt x="779" y="155" on="1"/>
        <pt x="701" y="60" on="0"/>
        <pt x="523" y="-22" on="0"/>
        <pt x="419" y="-22" on="1"/>
        <pt x="279" y="-22" on="0"/>
        <pt x="108" y="118" on="0"/>
        <pt x="108" y="237" on="1"/>
        <pt x="108" y="420" on="0"/>
        <pt x="432" y="607" on="0"/>
        <pt x="759" y="607" on="1"/>
        <pt x="759" y="702" on="1"/>
        <pt x="759" y="852" on="0"/>
        <pt x="650" y="987" on="0"/>
        <pt x="514" y="987" on="1"/>
        <pt x="482" y="987" on="0"/>
        <pt x="399" y="979" on="0"/>
        <pt x="364" y="972" on="1"/>
        <pt x="304" y="760" on="1"/>
        <pt x="206" y="770" on="1"/>
        <pt x="206" y="1053" on="1"/>
        <pt x="266" y="1074" on="0"/>
        <pt x="443" y="1107" on="0"/>
        <pt x="533" y="1107" on="1"/>
        <pt x="738" y="1107" on="0"/>
        <pt x="939" y="926" on="0"/>
        <pt x="939" y="735" on="1"/>
      </contour>
      <contour>
        <pt x="759" y="487" on="1"/>
        <pt x="609" y="487" on="0"/>
        <pt x="377" y="448" on="0"/>
        <pt x="316" y="415" on="1"/>
        <pt x="304" y="387" on="0"/>
        <pt x="288" y="315" on="0"/>
        <pt x="288" y="275" on="1"/>
        <pt x="288" y="192" on="0"/>
        <pt x="398" y="98" on="0"/>
        <pt x="487" y="98" on="1"/>
        <pt x="562" y="98" on="0"/>
        <pt x="708" y="173" on="0"/>
        <pt x="759" y="225" on="1"/>
      </contour>
    </TTGlyph>
    <TTGlyph name="approxequal" xMin="160" yMin="260" xMax="1101" yMax="938">
      <contour>
        <pt x="160" y="709" on="1"/>
        <pt x="160" y="765" on="0"/>
        <pt x="197" y="851" on="0"/>
        <pt x="261" y="909" on="0"/>
        <pt x="349" y="938" on="0"/>
        <pt x="400" y="938" on="1"/>
        <pt x="436" y="938" on="0"/>
        <pt x="525" y="918" on="0"/>
        <pt x="619" y="889" on="0"/>
        <pt x="713" y="855" on="0"/>
        <pt x="796" y="826" on="0"/>
        <pt x="862" y="806" on="0"/>
        <pt x="881" y="806" on="1"/>
        <pt x="900" y="806" on="0"/>
        <pt x="937" y="821" on="0"/>
        <pt x="966" y="851" on="0"/>
        <pt x="984" y="896" on="0"/>
        <pt x="984" y="926" on="1"/>
        <pt x="1101" y="936" on="1"/>
        <pt x="1101" y="889" on="1"/>
        <pt x="1101" y="836" on="0"/>
        <pt x="1067" y="751" on="0"/>
        <pt x="1007" y="692" on="0"/>
        <pt x="923" y="660" on="0"/>
        <pt x="873" y="660" on="1"/>
        <pt x="840" y="660" on="0"/>
        <pt x="752" y="680" on="0"/>
        <pt x="654" y="709" on="0"/>
        <pt x="553" y="743" on="0"/>
        <pt x="464" y="772" on="0"/>
        <pt x="394" y="792" on="0"/>
        <pt x="376" y="792" on="1"/>
        <pt x="356" y="792" on="0"/>
        <pt x="317" y="784" on="0"/>
        <pt x="287" y="762" on="0"/>
        <pt x="269" y="724" on="0"/>
        <pt x="269" y="694" on="1"/>
        <pt x="160" y="684" on="1"/>
      </contour>
      <contour>
        <pt x="160" y="309" on="1"/>
        <pt x="160" y="365" on="0"/>
        <pt x="197" y="451" on="0"/>
        <pt x="261" y="509" on="0"/>
        <pt x="349" y="538" on="0"/>
        <pt x="400" y="538" on="1"/>
        <pt x="436" y="538" on="0"/>
        <pt x="525" y="518" on="0"/>
        <pt x="619" y="489" on="0"/>
        <pt x="713" y="455" on="0"/>
        <pt x="796" y="426" on="0"/>
        <pt x="862" y="406" on="0"/>
        <pt x="881" y="406" on="1"/>
        <pt x="900" y="406" on="0"/>
        <pt x="937" y="421" on="0"/>
        <pt x="966" y="451" on="0"/>
        <pt x="984" y="496" on="0"/>
        <pt x="984" y="526" on="1"/>
        <pt x="1101" y="536" on="1"/>
        <pt x="1101" y="489" on="1"/>
        <pt x="1101" y="436" on="0"/>
        <pt x="1067" y="351" on="0"/>
        <pt x="1007" y="292" on="0"/>
        <pt x="923" y="260" on="0"/>
        <pt x="873" y="260" on="1"/>
        <pt x="840" y="260" on="0"/>
        <pt x="752" y="280" on="0"/>
        <pt x="654" y="309" on="0"/>
        <pt x="553" y="343" on="0"/>
        <pt x="464" y="372" on="0"/>
        <pt x="394" y="392" on="0"/>
        <pt x="376" y="392" on="1"/>
        <pt x="356" y="392" on="0"/>
        <pt x="317" y="384" on="0"/>
        <pt x="287" y="362" on="0"/>
        <pt x="269" y="324" on="0"/>
        <pt x="269" y="294" on="1"/>
        <pt x="160" y="284" on="1"/>
      </contour>
    </TTGlyph>
    <TTGlyph name="aring" xMin="108" yMin="-22" xMax="1112" yMax="1670">
      <component glyphName="a" x="0" y="0" flags="0x204"/>
      <component glyphName="ring" x="167" y="0" flags="0x4"/>
    </TTGlyph>
    <TTGlyph name="aringacute" xMin="108" yMin="-22" xMax="1112" yMax="2167">
      <component glyphName="a" x="0" y="0" flags="0x204"/>
      <component glyphName="ring" x="167" y="0" flags="0x4"/>
      <component glyphName="acutecomb" x="1158" y="497" flags="0x4"/>
    </TTGlyph>
    <TTGlyph name="arrowdown" xMin="100" yMin="-413" xMax="603" yMax="1562">
      <contour>
        <pt x="420" y="1562" on="1"/>
        <pt x="420" y="-95" on="1"/>
        <pt x="533" y="32" on="1"/>
        <pt x="603" y="-28" on="1"/>
        <pt x="374" y="-413" on="1"/>
        <pt x="330" y="-413" on="1"/>
        <pt x="100" y="-28" on="1"/>
        <pt x="170" y="32" on="1"/>
        <pt x="284" y="-95" on="1"/>
        <pt x="284" y="1562" on="1"/>
      </contour>
    </TTGlyph>
    <TTGlyph name="arrowup" xMin="100" yMin="-413" xMax="603" yMax="1562">
      <contour>
        <pt x="283" y="-413" on="1"/>
        <pt x="283" y="1244" on="1"/>
        <pt x="170" y="1117" on="1"/>
        <pt x="100" y="1177" on="1"/>
        <pt x="329" y="1562" on="1"/>
        <pt x="373" y="1562" on="1"/>
        <pt x="603" y="1177" on="1"/>
        <pt x="533" y="1117" on="1"/>
        <pt x="419" y="1244" on="1"/>
        <pt x="419" y="-413" on="1"/>
      </contour>
    </TTGlyph>
    <TTGlyph name="asciicircum" xMin="140" yMin="1049" xMax="964" yMax="1540">
      <contour>
        <pt x="504" y="1540" on="1"/>
        <pt x="600" y="1540" on="1"/>
        <pt x="964" y="1079" on="1"/>
        <pt x="964" y="1049" on="1"/>
        <pt x="825" y="1049" on="1"/>
        <pt x="557" y="1384" on="1"/>
        <pt x="547" y="1384" on="1"/>
        <pt x="280" y="1049" on="1"/>
        <pt x="140" y="1049" on="1"/>
        <pt x="140" y="1079" on="1"/>
      </contour>
    </TTGlyph>
    <TTGlyph name="asciitilde" xMin="140" yMin="500" xMax="1081" yMax="778">
      <contour>
        <pt x="140" y="549" on="1"/>
        <pt x="140" y="605" on="0"/>
        <pt x="177" y="691" on="0"/>
        <pt x="241" y="749" on="0"/>
        <pt x="329" y="778" on="0"/>
        <pt x="380" y="778" on="1"/>
        <pt x="416" y="778" on="0"/>
        <pt x="505" y="758" on="0"/>
        <pt x="599" y="729" on="0"/>
        <pt x="693" y="695" on="0"/>
        <pt x="776" y="666" on="0"/>
        <pt x="842" y="646" on="0"/>
        <pt x="861" y="646" on="1"/>
        <pt x="880" y="646" on="0"/>
        <pt x="917" y="661" on="0"/>
        <pt x="946" y="691" on="0"/>
        <pt x="964" y="736" on="0"/>
        <pt x="964" y="766" on="1"/>
        <pt x="1081" y="776" on="1"/>
        <pt x="1081" y="729" on="1"/>
        <pt x="1081" y="676" on="0"/>
        <pt x="1047" y="591" on="0"/>
        <pt x="987" y="532" on="0"/>
        <pt x="903" y="500" on="0"/>
        <pt x="853" y="500" on="1"/>
        <pt x="820" y="500" on="0"/>
        <pt x="732" y="520" on="0"/>
        <pt x="634" y="549" on="0"/>
        <pt x="533" y="583" on="0"/>
        <pt x="444" y="612" on="0"/>
        <pt x="374" y="632" on="0"/>
        <pt x="356" y="632" on="1"/>
        <pt x="336" y="632" on="0"/>
        <pt x="297" y="624" on="0"/>
        <pt x="267" y="602" on="0"/>
        <pt x="249" y="564" on="0"/>
        <pt x="249" y="534" on="1"/>
        <pt x="140" y="524" on="1"/>
      </contour>
    </TTGlyph>
    <TTGlyph name="asterisk" xMin="15" yMin="802" xMax="750" yMax="1562">
      <contour>
        <pt x="428" y="1103" on="1"/>
        <pt x="459" y="826" on="1"/>
        <pt x="459" y="802" on="1"/>
        <pt x="306" y="802" on="1"/>
        <pt x="306" y="826" on="1"/>
        <pt x="337" y="1103" on="1"/>
        <pt x="112" y="938" on="1"/>
        <pt x="91" y="926" on="1"/>
        <pt x="16" y="1058" on="1"/>
        <pt x="36" y="1070" on="1"/>
        <pt x="290" y="1182" on="1"/>
        <pt x="35" y="1294" on="1"/>
        <pt x="15" y="1306" on="1"/>
        <pt x="91" y="1438" on="1"/>
        <pt x="112" y="1426" on="1"/>
        <pt x="337" y="1261" on="1"/>
        <pt x="306" y="1538" on="1"/>
        <pt x="306" y="1562" on="1"/>
        <pt x="459" y="1562" on="1"/>
        <pt x="459" y="1538" on="1"/>
        <pt x="428" y="1261" on="1"/>
        <pt x="653" y="1426" on="1"/>
        <pt x="674" y="1438" on="1"/>
        <pt x="749" y="1306" on="1"/>
        <pt x="729" y="1294" on="1"/>
        <pt x="474" y="1182" on="1"/>
        <pt x="730" y="1070" on="1"/>
        <pt x="750" y="1058" on="1"/>
        <pt x="674" y="926" on="1"/>
        <pt x="653" y="938" on="1"/>
      </contour>
    </TTGlyph>
    <TTGlyph name="at" xMin="140" yMin="-310" xMax="1800" yMax="1375">
      <contour>
        <pt x="753" y="523" on="1"/>
        <pt x="731" y="365" on="0"/>
        <pt x="773" y="196" on="0"/>
        <pt x="839" y="196" on="1"/>
        <pt x="876" y="196" on="0"/>
        <pt x="947" y="234" on="0"/>
        <pt x="1011" y="292" on="0"/>
        <pt x="1067" y="362" on="0"/>
        <pt x="1110" y="426" on="0"/>
        <pt x="1137" y="475" on="0"/>
        <pt x="1141" y="483" on="1"/>
        <pt x="1205" y="946" on="1"/>
        <pt x="1184" y="955" on="0"/>
        <pt x="1158" y="962" on="1"/>
        <pt x="1136" y="968" on="0"/>
        <pt x="1078" y="979" on="0"/>
        <pt x="1046" y="979" on="1"/>
        <pt x="1011" y="979" on="0"/>
        <pt x="949" y="963" on="0"/>
        <pt x="925" y="954" on="1"/>
        <pt x="897" y="943" on="0"/>
        <pt x="873" y="929" on="1"/>
        <pt x="849" y="891" on="0"/>
        <pt x="828" y="836" on="1"/>
        <pt x="809" y="789" on="0"/>
        <pt x="771" y="652" on="0"/>
        <pt x="758" y="559" on="1"/>
      </contour>
      <contour>
        <pt x="1436" y="-165" on="1"/>
        <pt x="1365" y="-206" on="0"/>
        <pt x="1280" y="-238" on="1"/>
        <pt x="1207" y="-265" on="0"/>
        <pt x="1012" y="-310" on="0"/>
        <pt x="900" y="-310" on="1"/>
        <pt x="791" y="-310" on="0"/>
        <pt x="594" y="-282" on="0"/>
        <pt x="425" y="-219" on="0"/>
        <pt x="288" y="-117" on="0"/>
        <pt x="192" y="30" on="0"/>
        <pt x="140" y="225" on="0"/>
        <pt x="140" y="350" on="1"/>
        <pt x="140" y="501" on="0"/>
        <pt x="205" y="770" on="0"/>
        <pt x="325" y="998" on="0"/>
        <pt x="496" y="1180" on="0"/>
        <pt x="707" y="1307" on="0"/>
        <pt x="954" y="1375" on="0"/>
        <pt x="1090" y="1375" on="1"/>
        <pt x="1258" y="1375" on="0"/>
        <pt x="1522" y="1285" on="0"/>
        <pt x="1704" y="1121" on="0"/>
        <pt x="1800" y="890" on="0"/>
        <pt x="1800" y="750" on="1"/>
        <pt x="1800" y="627" on="0"/>
        <pt x="1755" y="438" on="0"/>
        <pt x="1679" y="296" on="0"/>
        <pt x="1581" y="198" on="0"/>
        <pt x="1475" y="136" on="0"/>
        <pt x="1369" y="105" on="0"/>
        <pt x="1324" y="102" on="1"/>
        <pt x="1178" y="88" on="1"/>
        <pt x="1097" y="166" on="1"/>
        <pt x="1123" y="356" on="1"/>
        <pt x="1117" y="345" on="0"/>
        <pt x="1088" y="297" on="0"/>
        <pt x="1042" y="237" on="0"/>
        <pt x="982" y="174" on="0"/>
        <pt x="910" y="122" on="0"/>
        <pt x="827" y="88" on="0"/>
        <pt x="781" y="88" on="1"/>
        <pt x="716" y="88" on="0"/>
        <pt x="623" y="126" on="0"/>
        <pt x="566" y="209" on="0"/>
        <pt x="549" y="341" on="0"/>
        <pt x="561" y="435" on="1"/>
        <pt x="573" y="528" on="1"/>
        <pt x="588" y="640" on="0"/>
        <pt x="664" y="835" on="0"/>
        <pt x="784" y="980" on="0"/>
        <pt x="949" y="1063" on="0"/>
        <pt x="1052" y="1063" on="1"/>
        <pt x="1113" y="1063" on="0"/>
        <pt x="1233" y="1038" on="0"/>
        <pt x="1282" y="1024" on="1"/>
        <pt x="1338" y="1006" on="0"/>
        <pt x="1391" y="985" on="1"/>
        <pt x="1279" y="189" on="1"/>
        <pt x="1314" y="191" on="0"/>
        <pt x="1391" y="213" on="0"/>
        <pt x="1467" y="259" on="0"/>
        <pt x="1536" y="334" on="0"/>
        <pt x="1589" y="448" on="0"/>
        <pt x="1620" y="605" on="0"/>
        <pt x="1620" y="710" on="1"/>
        <pt x="1620" y="840" on="0"/>
        <pt x="1554" y="1043" on="0"/>
        <pt x="1416" y="1183" on="0"/>
        <pt x="1205" y="1255" on="0"/>
        <pt x="1060" y="1255" on="1"/>
        <pt x="954" y="1255" on="0"/>
        <pt x="761" y="1192" on="0"/>
        <pt x="597" y="1077" on="0"/>
        <pt x="464" y="917" on="0"/>
        <pt x="370" y="722" on="0"/>
        <pt x="320" y="499" on="0"/>
        <pt x="320" y="380" on="1"/>
        <pt x="320" y="217" on="0"/>
        <pt x="420" y="-2" on="0"/>
        <pt x="589" y="-134" on="0"/>
        <pt x="814" y="-190" on="0"/>
        <pt x="940" y="-190" on="1"/>
        <pt x="1045" y="-190" on="0"/>
        <pt x="1225" y="-156" on="0"/>
        <pt x="1292" y="-135" on="1"/>
        <pt x="1370" y="-110" on="0"/>
        <pt x="1436" y="-79" on="1"/>
      </contour>
    </TTGlyph>
    <TTGlyph name="atilde" xMin="108" yMin="-22" xMax="1112" yMax="1536">
      <component glyphName="a" x="0" y="0" flags="0x204"/>
      <component glyphName="tilde" x="0" y="0" flags="0x4"/>
    </TTGlyph>
    <TTGlyph name="b" xMin="4" yMin="-22" xMax="1028" yMax="1562">
      <contour>
        <pt x="337" y="947" on="1"/>
        <pt x="351" y="941" on="1"/>
        <pt x="411" y="1020" on="0"/>
        <pt x="562" y="1107" on="0"/>
        <pt x="669" y="1107" on="1"/>
        <pt x="841" y="1107" on="0"/>
        <pt x="1028" y="884" on="0"/>
        <pt x="1028" y="666" on="1"/>
        <pt x="1028" y="572" on="1"/>
        <pt x="1028" y="295" on="0"/>
        <pt x="775" y="-22" on="0"/>
        <pt x="565" y="-22" on="1"/>
        <pt x="479" y="-22" on="0"/>
        <pt x="242" y="20" on="0"/>
        <pt x="157" y="43" on="1"/>
        <pt x="157" y="1408" on="1"/>
        <pt x="4" y="1442" on="1"/>
        <pt x="24" y="1540" on="1"/>
        <pt x="337" y="1562" on="1"/>
      </contour>
      <contour>
        <pt x="848" y="642" on="1"/>
        <pt x="848" y="815" on="0"/>
        <pt x="724" y="987" on="0"/>
        <pt x="606" y="987" on="1"/>
        <pt x="537" y="987" on="0"/>
        <pt x="391" y="898" on="0"/>
        <pt x="337" y="838" on="1"/>
        <pt x="337" y="125" on="1"/>
        <pt x="386" y="115" on="0"/>
        <pt x="519" y="98" on="0"/>
        <pt x="585" y="98" on="1"/>
        <pt x="646" y="98" on="0"/>
        <pt x="755" y="136" on="0"/>
        <pt x="787" y="160" on="1"/>
        <pt x="808" y="204" on="0"/>
        <pt x="848" y="408" on="0"/>
        <pt x="848" y="523" on="1"/>
      </contour>
    </TTGlyph>
    <TTGlyph name="backslash" xMin="40" yMin="-295" xMax="773" yMax="1540">
      <contour>
        <pt x="773" y="-275" on="1"/>
        <pt x="773" y="-295" on="1"/>
        <pt x="608" y="-295" on="1"/>
        <pt x="40" y="1520" on="1"/>
        <pt x="40" y="1540" on="1"/>
        <pt x="205" y="1540" on="1"/>
      </contour>
    </TTGlyph>
    <TTGlyph name="bar" xMin="270" yMin="-537" xMax="388" yMax="1670">
      <contour>
        <pt x="270" y="1670" on="1"/>
        <pt x="388" y="1670" on="1"/>
        <pt x="388" y="-537" on="1"/>
        <pt x="270" y="-537" on="1"/>
      </contour>
    </TTGlyph>
    <TTGlyph name="braceleft" xMin="150" yMin="-457" xMax="714" yMax="1677">
      <contour>
        <pt x="150" y="658" on="1"/>
        <pt x="246" y="658" on="1"/>
        <pt x="307" y="658" on="0"/>
        <pt x="356" y="707" on="0"/>
        <pt x="356" y="768" on="1"/>
        <pt x="356" y="1397" on="1"/>
        <pt x="356" y="1457" on="0"/>
        <pt x="398" y="1560" on="0"/>
        <pt x="473" y="1635" on="0"/>
        <pt x="576" y="1677" on="0"/>
        <pt x="636" y="1677" on="1"/>
        <pt x="714" y="1677" on="1"/>
        <pt x="714" y="1581" on="1"/>
        <pt x="693" y="1581" on="1"/>
        <pt x="602" y="1581" on="0"/>
        <pt x="523" y="1502" on="0"/>
        <pt x="523" y="1411" on="1"/>
        <pt x="523" y="828" on="1"/>
        <pt x="523" y="766" on="0"/>
        <pt x="502" y="684" on="0"/>
        <pt x="469" y="635" on="0"/>
        <pt x="425" y="615" on="0"/>
        <pt x="403" y="615" on="1"/>
        <pt x="403" y="605" on="1"/>
        <pt x="425" y="605" on="0"/>
        <pt x="469" y="585" on="0"/>
        <pt x="502" y="536" on="0"/>
        <pt x="523" y="454" on="0"/>
        <pt x="523" y="392" on="1"/>
        <pt x="523" y="-191" on="1"/>
        <pt x="523" y="-282" on="0"/>
        <pt x="602" y="-361" on="0"/>
        <pt x="693" y="-361" on="1"/>
        <pt x="714" y="-361" on="1"/>
        <pt x="714" y="-457" on="1"/>
        <pt x="636" y="-457" on="1"/>
        <pt x="576" y="-457" on="0"/>
        <pt x="473" y="-415" on="0"/>
        <pt x="398" y="-340" on="0"/>
        <pt x="356" y="-237" on="0"/>
        <pt x="356" y="-177" on="1"/>
        <pt x="356" y="452" on="1"/>
        <pt x="356" y="513" on="0"/>
        <pt x="307" y="562" on="0"/>
        <pt x="246" y="562" on="1"/>
        <pt x="150" y="562" on="1"/>
      </contour>
    </TTGlyph>
    <TTGlyph name="braceright" xMin="100" yMin="-457" xMax="664" yMax="1677">
      <contour>
        <pt x="664" y="562" on="1"/>
        <pt x="568" y="562" on="1"/>
        <pt x="507" y="562" on="0"/>
        <pt x="458" y="513" on="0"/>
        <pt x="458" y="452" on="1"/>
        <pt x="458" y="-177" on="1"/>
        <pt x="458" y="-237" on="0"/>
        <pt x="416" y="-340" on="0"/>
        <pt x="341" y="-415" on="0"/>
        <pt x="238" y="-457" on="0"/>
        <pt x="178" y="-457" on="1"/>
        <pt x="100" y="-457" on="1"/>
        <pt x="100" y="-361" on="1"/>
        <pt x="121" y="-361" on="1"/>
        <pt x="212" y="-361" on="0"/>
        <pt x="291" y="-282" on="0"/>
        <pt x="291" y="-191" on="1"/>
        <pt x="291" y="392" on="1"/>
        <pt x="291" y="454" on="0"/>
        <pt x="312" y="536" on="0"/>
        <pt x="345" y="585" on="0"/>
        <pt x="388" y="605" on="0"/>
        <pt x="411" y="605" on="1"/>
        <pt x="411" y="615" on="1"/>
        <pt x="388" y="615" on="0"/>
        <pt x="345" y="635" on="0"/>
        <pt x="312" y="684" on="0"/>
        <pt x="291" y="766" on="0"/>
        <pt x="291" y="828" on="1"/>
        <pt x="291" y="1411" on="1"/>
        <pt x="291" y="1502" on="0"/>
        <pt x="212" y="1581" on="0"/>
        <pt x="121" y="1581" on="1"/>
        <pt x="100" y="1581" on="1"/>
        <pt x="100" y="1677" on="1"/>
        <pt x="178" y="1677" on="1"/>
        <pt x="238" y="1677" on="0"/>
        <pt x="341" y="1635" on="0"/>
        <pt x="416" y="1560" on="0"/>
        <pt x="458" y="1457" on="0"/>
        <pt x="458" y="1397" on="1"/>
        <pt x="458" y="768" on="1"/>
        <pt x="458" y="707" on="0"/>
        <pt x="507" y="658" on="0"/>
        <pt x="568" y="658" on="1"/>
        <pt x="664" y="658" on="1"/>
      </contour>
    </TTGlyph>
    <TTGlyph name="bracketleft" xMin="180" yMin="-457" xMax="538" yMax="1677">
      <contour>
        <pt x="180" y="1677" on="1"/>
        <pt x="538" y="1677" on="1"/>
        <pt x="538" y="1581" on="1"/>
        <pt x="347" y="1581" on="1"/>
        <pt x="347" y="-361" on="1"/>
        <pt x="538" y="-361" on="1"/>
        <pt x="538" y="-457" on="1"/>
        <pt x="180" y="-457" on="1"/>
      </contour>
    </TTGlyph>
    <TTGlyph name="bracketright" xMin="96" yMin="-457" xMax="454" yMax="1677">
      <contour>
        <pt x="454" y="-457" on="1"/>
        <pt x="96" y="-457" on="1"/>
        <pt x="96" y="-361" on="1"/>
        <pt x="287" y="-361" on="1"/>
        <pt x="287" y="1581" on="1"/>
        <pt x="96" y="1581" on="1"/>
        <pt x="96" y="1677" on="1"/>
        <pt x="454" y="1677" on="1"/>
      </contour>
    </TTGlyph>
    <TTGlyph name="breve" xMin="200" yMin="1295" xMax="812" yMax="1602">
      <contour>
        <pt x="812" y="1592" on="1"/>
        <pt x="812" y="1538" on="0"/>
        <pt x="769" y="1432" on="0"/>
        <pt x="689" y="1348" on="0"/>
        <pt x="576" y="1295" on="0"/>
        <pt x="506" y="1295" on="1"/>
        <pt x="436" y="1295" on="0"/>
        <pt x="323" y="1348" on="0"/>
        <pt x="243" y="1432" on="0"/>
        <pt x="200" y="1538" on="0"/>
        <pt x="200" y="1592" on="1"/>
        <pt x="297" y="1602" on="1"/>
        <pt x="297" y="1586" on="0"/>
        <pt x="321" y="1527" on="0"/>
        <pt x="372" y="1468" on="0"/>
        <pt x="451" y="1425" on="0"/>
        <pt x="506" y="1425" on="1"/>
        <pt x="561" y="1425" on="0"/>
        <pt x="640" y="1468" on="0"/>
        <pt x="691" y="1527" on="0"/>
        <pt x="715" y="1586" on="0"/>
        <pt x="715" y="1602" on="1"/>
      </contour>
    </TTGlyph>
    <TTGlyph name="breve.case" xMin="-63" yMin="1472" xMax="609" yMax="1759">
      <contour>
        <pt x="609" y="1749" on="1"/>
        <pt x="609" y="1699" on="0"/>
        <pt x="563" y="1600" on="0"/>
        <pt x="477" y="1521" on="0"/>
        <pt x="352" y="1472" on="0"/>
        <pt x="273" y="1472" on="1"/>
        <pt x="194" y="1472" on="0"/>
        <pt x="69" y="1521" on="0"/>
        <pt x="-17" y="1600" on="0"/>
        <pt x="-63" y="1699" on="0"/>
        <pt x="-63" y="1749" on="1"/>
        <pt x="34" y="1759" on="1"/>
        <pt x="34" y="1745" on="0"/>
        <pt x="58" y="1692" on="0"/>
        <pt x="113" y="1640" on="0"/>
        <pt x="205" y="1602" on="0"/>
        <pt x="273" y="1602" on="1"/>
        <pt x="341" y="1602" on="0"/>
        <pt x="433" y="1640" on="0"/>
        <pt x="488" y="1692" on="0"/>
        <pt x="512" y="1745" on="0"/>
        <pt x="512" y="1759" on="1"/>
      </contour>
    </TTGlyph>
    <TTGlyph name="breveacute" xMin="120" yMin="1295" xMax="744" yMax="1995">
      <contour>
        <pt x="732" y="1592" on="1"/>
        <pt x="732" y="1538" on="0"/>
        <pt x="689" y="1432" on="0"/>
        <pt x="609" y="1348" on="0"/>
        <pt x="496" y="1295" on="0"/>
        <pt x="426" y="1295" on="1"/>
        <pt x="356" y="1295" on="0"/>
        <pt x="243" y="1348" on="0"/>
        <pt x="163" y="1432" on="0"/>
        <pt x="120" y="1538" on="0"/>
        <pt x="120" y="1592" on="1"/>
        <pt x="217" y="1602" on="1"/>
        <pt x="217" y="1586" on="0"/>
        <pt x="241" y="1527" on="0"/>
        <pt x="292" y="1468" on="0"/>
        <pt x="371" y="1425" on="0"/>
        <pt x="426" y="1425" on="1"/>
        <pt x="481" y="1425" on="0"/>
        <pt x="560" y="1468" on="0"/>
        <pt x="611" y="1527" on="0"/>
        <pt x="635" y="1586" on="0"/>
        <pt x="635" y="1602" on="1"/>
      </contour>
      <contour>
        <pt x="359" y="1632" on="1"/>
        <pt x="562" y="1995" on="1"/>
        <pt x="744" y="1985" on="1"/>
        <pt x="744" y="1919" on="1"/>
        <pt x="464" y="1590" on="1"/>
        <pt x="359" y="1600" on="1"/>
      </contour>
    </TTGlyph>
    <TTGlyph name="breveacute.case" xMin="-63" yMin="1472" xMax="683" yMax="2063">
      <contour>
        <pt x="609" y="1749" on="1"/>
        <pt x="609" y="1699" on="0"/>
        <pt x="563" y="1600" on="0"/>
        <pt x="477" y="1521" on="0"/>
        <pt x="352" y="1472" on="0"/>
        <pt x="273" y="1472" on="1"/>
        <pt x="194" y="1472" on="0"/>
        <pt x="69" y="1521" on="0"/>
        <pt x="-17" y="1600" on="0"/>
        <pt x="-63" y="1699" on="0"/>
        <pt x="-63" y="1749" on="1"/>
        <pt x="34" y="1759" on="1"/>
        <pt x="34" y="1745" on="0"/>
        <pt x="58" y="1692" on="0"/>
        <pt x="113" y="1640" on="0"/>
        <pt x="205" y="1602" on="0"/>
        <pt x="273" y="1602" on="1"/>
        <pt x="341" y="1602" on="0"/>
        <pt x="433" y="1640" on="0"/>
        <pt x="488" y="1692" on="0"/>
        <pt x="512" y="1745" on="0"/>
        <pt x="512" y="1759" on="1"/>
      </contour>
      <contour>
        <pt x="193" y="1782" on="1"/>
        <pt x="491" y="2063" on="1"/>
        <pt x="683" y="2053" on="1"/>
        <pt x="683" y="1987" on="1"/>
        <pt x="308" y="1739" on="1"/>
        <pt x="193" y="1750" on="1"/>
      </contour>
    </TTGlyph>
    <TTGlyph name="brevegrave" xMin="108" yMin="1295" xMax="732" yMax="1995">
      <contour>
        <pt x="732" y="1592" on="1"/>
        <pt x="732" y="1538" on="0"/>
        <pt x="689" y="1432" on="0"/>
        <pt x="609" y="1348" on="0"/>
        <pt x="496" y="1295" on="0"/>
        <pt x="426" y="1295" on="1"/>
        <pt x="356" y="1295" on="0"/>
        <pt x="243" y="1348" on="0"/>
        <pt x="163" y="1432" on="0"/>
        <pt x="120" y="1538" on="0"/>
        <pt x="120" y="1592" on="1"/>
        <pt x="217" y="1602" on="1"/>
        <pt x="217" y="1586" on="0"/>
        <pt x="241" y="1527" on="0"/>
        <pt x="292" y="1468" on="0"/>
        <pt x="371" y="1425" on="0"/>
        <pt x="426" y="1425" on="1"/>
        <pt x="481" y="1425" on="0"/>
        <pt x="560" y="1468" on="0"/>
        <pt x="611" y="1527" on="0"/>
        <pt x="635" y="1586" on="0"/>
        <pt x="635" y="1602" on="1"/>
      </contour>
      <contour>
        <pt x="516" y="1600" on="1"/>
        <pt x="398" y="1590" on="1"/>
        <pt x="108" y="1919" on="1"/>
        <pt x="108" y="1985" on="1"/>
        <pt x="283" y="1995" on="1"/>
        <pt x="516" y="1632" on="1"/>
      </contour>
    </TTGlyph>
    <TTGlyph name="brevegrave.case" xMin="-122" yMin="1472" xMax="609" yMax="2063">
      <contour>
        <pt x="609" y="1749" on="1"/>
        <pt x="609" y="1699" on="0"/>
        <pt x="563" y="1600" on="0"/>
        <pt x="477" y="1521" on="0"/>
        <pt x="352" y="1472" on="0"/>
        <pt x="273" y="1472" on="1"/>
        <pt x="194" y="1472" on="0"/>
        <pt x="69" y="1521" on="0"/>
        <pt x="-17" y="1600" on="0"/>
        <pt x="-63" y="1699" on="0"/>
        <pt x="-63" y="1749" on="1"/>
        <pt x="34" y="1759" on="1"/>
        <pt x="34" y="1745" on="0"/>
        <pt x="58" y="1692" on="0"/>
        <pt x="113" y="1640" on="0"/>
        <pt x="205" y="1602" on="0"/>
        <pt x="273" y="1602" on="1"/>
        <pt x="341" y="1602" on="0"/>
        <pt x="433" y="1640" on="0"/>
        <pt x="488" y="1692" on="0"/>
        <pt x="512" y="1745" on="0"/>
        <pt x="512" y="1759" on="1"/>
      </contour>
      <contour>
        <pt x="368" y="1750" on="1"/>
        <pt x="253" y="1739" on="1"/>
        <pt x="-122" y="1987" on="1"/>
        <pt x="-122" y="2053" on="1"/>
        <pt x="70" y="2063" on="1"/>
        <pt x="368" y="1782" on="1"/>
      </contour>
    </TTGlyph>
    <TTGlyph name="brevehookabove" xMin="120" yMin="1295" xMax="732" yMax="1995">
      <contour>
        <pt x="732" y="1592" on="1"/>
        <pt x="732" y="1538" on="0"/>
        <pt x="689" y="1432" on="0"/>
        <pt x="609" y="1348" on="0"/>
        <pt x="496" y="1295" on="0"/>
        <pt x="426" y="1295" on="1"/>
        <pt x="356" y="1295" on="0"/>
        <pt x="243" y="1348" on="0"/>
        <pt x="163" y="1432" on="0"/>
        <pt x="120" y="1538" on="0"/>
        <pt x="120" y="1592" on="1"/>
        <pt x="217" y="1602" on="1"/>
        <pt x="217" y="1586" on="0"/>
        <pt x="241" y="1527" on="0"/>
        <pt x="292" y="1468" on="0"/>
        <pt x="371" y="1425" on="0"/>
        <pt x="426" y="1425" on="1"/>
        <pt x="481" y="1425" on="0"/>
        <pt x="560" y="1468" on="0"/>
        <pt x="611" y="1527" on="0"/>
        <pt x="635" y="1586" on="0"/>
        <pt x="635" y="1602" on="1"/>
      </contour>
      <contour>
        <pt x="507" y="1703" on="1"/>
        <pt x="473" y="1679" on="0"/>
        <pt x="454" y="1653" on="0"/>
        <pt x="454" y="1640" on="1"/>
        <pt x="454" y="1623" on="0"/>
        <pt x="459" y="1610" on="1"/>
        <pt x="461" y="1602" on="0"/>
        <pt x="464" y="1596" on="1"/>
        <pt x="372" y="1569" on="1"/>
        <pt x="362" y="1582" on="0"/>
        <pt x="354" y="1597" on="1"/>
        <pt x="347" y="1610" on="0"/>
        <pt x="337" y="1641" on="0"/>
        <pt x="337" y="1658" on="1"/>
        <pt x="337" y="1683" on="0"/>
        <pt x="366" y="1729" on="0"/>
        <pt x="407" y="1759" on="1"/>
        <pt x="432" y="1777" on="0"/>
        <pt x="466" y="1805" on="0"/>
        <pt x="486" y="1827" on="0"/>
        <pt x="494" y="1849" on="0"/>
        <pt x="494" y="1861" on="1"/>
        <pt x="494" y="1883" on="0"/>
        <pt x="463" y="1911" on="0"/>
        <pt x="428" y="1911" on="1"/>
        <pt x="409" y="1911" on="0"/>
        <pt x="378" y="1905" on="0"/>
        <pt x="367" y="1902" on="1"/>
        <pt x="354" y="1898" on="0"/>
        <pt x="343" y="1893" on="1"/>
        <pt x="319" y="1812" on="1"/>
        <pt x="241" y="1817" on="1"/>
        <pt x="241" y="1940" on="1"/>
        <pt x="265" y="1955" on="0"/>
        <pt x="296" y="1967" on="1"/>
        <pt x="322" y="1978" on="0"/>
        <pt x="396" y="1995" on="0"/>
        <pt x="443" y="1995" on="1"/>
        <pt x="525" y="1995" on="0"/>
        <pt x="620" y="1927" on="0"/>
        <pt x="620" y="1865" on="1"/>
        <pt x="620" y="1838" on="0"/>
        <pt x="604" y="1794" on="0"/>
        <pt x="574" y="1756" on="0"/>
        <pt x="532" y="1721" on="0"/>
      </contour>
    </TTGlyph>
    <TTGlyph name="brevehookabove.case" xMin="-63" yMin="1472" xMax="609" yMax="2142">
      <contour>
        <pt x="609" y="1749" on="1"/>
        <pt x="609" y="1699" on="0"/>
        <pt x="563" y="1600" on="0"/>
        <pt x="477" y="1521" on="0"/>
        <pt x="352" y="1472" on="0"/>
        <pt x="273" y="1472" on="1"/>
        <pt x="194" y="1472" on="0"/>
        <pt x="69" y="1521" on="0"/>
        <pt x="-17" y="1600" on="0"/>
        <pt x="-63" y="1699" on="0"/>
        <pt x="-63" y="1749" on="1"/>
        <pt x="34" y="1759" on="1"/>
        <pt x="34" y="1745" on="0"/>
        <pt x="58" y="1692" on="0"/>
        <pt x="113" y="1640" on="0"/>
        <pt x="205" y="1602" on="0"/>
        <pt x="273" y="1602" on="1"/>
        <pt x="341" y="1602" on="0"/>
        <pt x="433" y="1640" on="0"/>
        <pt x="488" y="1692" on="0"/>
        <pt x="512" y="1745" on="0"/>
        <pt x="512" y="1759" on="1"/>
      </contour>
      <contour>
        <pt x="371" y="1850" on="1"/>
        <pt x="337" y="1826" on="0"/>
        <pt x="318" y="1800" on="0"/>
        <pt x="318" y="1787" on="1"/>
        <pt x="318" y="1770" on="0"/>
        <pt x="323" y="1757" on="1"/>
        <pt x="325" y="1749" on="0"/>
        <pt x="328" y="1743" on="1"/>
        <pt x="236" y="1716" on="1"/>
        <pt x="226" y="1729" on="0"/>
        <pt x="218" y="1744" on="1"/>
        <pt x="211" y="1757" on="0"/>
        <pt x="201" y="1788" on="0"/>
        <pt x="201" y="1805" on="1"/>
        <pt x="201" y="1830" on="0"/>
        <pt x="230" y="1876" on="0"/>
        <pt x="271" y="1906" on="1"/>
        <pt x="296" y="1924" on="0"/>
        <pt x="330" y="1952" on="0"/>
        <pt x="350" y="1974" on="0"/>
        <pt x="358" y="1996" on="0"/>
        <pt x="358" y="2008" on="1"/>
        <pt x="358" y="2030" on="0"/>
        <pt x="327" y="2058" on="0"/>
        <pt x="292" y="2058" on="1"/>
        <pt x="273" y="2058" on="0"/>
        <pt x="242" y="2052" on="0"/>
        <pt x="231" y="2049" on="1"/>
        <pt x="218" y="2045" on="0"/>
        <pt x="207" y="2040" on="1"/>
        <pt x="183" y="1959" on="1"/>
        <pt x="105" y="1964" on="1"/>
        <pt x="105" y="2087" on="1"/>
        <pt x="129" y="2102" on="0"/>
        <pt x="160" y="2114" on="1"/>
        <pt x="186" y="2125" on="0"/>
        <pt x="260" y="2142" on="0"/>
        <pt x="307" y="2142" on="1"/>
        <pt x="389" y="2142" on="0"/>
        <pt x="484" y="2074" on="0"/>
        <pt x="484" y="2012" on="1"/>
        <pt x="484" y="1985" on="0"/>
        <pt x="468" y="1941" on="0"/>
        <pt x="438" y="1903" on="0"/>
        <pt x="396" y="1868" on="0"/>
      </contour>
    </TTGlyph>
    <TTGlyph name="brevetilde" xMin="24" yMin="1295" xMax="825" yMax="1941">
      <contour>
        <pt x="732" y="1592" on="1"/>
        <pt x="732" y="1538" on="0"/>
        <pt x="689" y="1432" on="0"/>
        <pt x="609" y="1348" on="0"/>
        <pt x="496" y="1295" on="0"/>
        <pt x="426" y="1295" on="1"/>
        <pt x="356" y="1295" on="0"/>
        <pt x="243" y="1348" on="0"/>
        <pt x="163" y="1432" on="0"/>
        <pt x="120" y="1538" on="0"/>
        <pt x="120" y="1592" on="1"/>
        <pt x="217" y="1602" on="1"/>
        <pt x="217" y="1586" on="0"/>
        <pt x="241" y="1527" on="0"/>
        <pt x="292" y="1468" on="0"/>
        <pt x="371" y="1425" on="0"/>
        <pt x="426" y="1425" on="1"/>
        <pt x="481" y="1425" on="0"/>
        <pt x="560" y="1468" on="0"/>
        <pt x="611" y="1527" on="0"/>
        <pt x="635" y="1586" on="0"/>
        <pt x="635" y="1602" on="1"/>
      </contour>
      <contour>
        <pt x="24" y="1712" on="1"/>
        <pt x="24" y="1825" on="0"/>
        <pt x="141" y="1941" on="0"/>
        <pt x="244" y="1941" on="1"/>
        <pt x="298" y="1941" on="0"/>
        <pt x="409" y="1900" on="0"/>
        <pt x="510" y="1850" on="0"/>
        <pt x="596" y="1809" on="0"/>
        <pt x="625" y="1809" on="1"/>
        <pt x="663" y="1809" on="0"/>
        <pt x="708" y="1868" on="0"/>
        <pt x="708" y="1929" on="1"/>
        <pt x="825" y="1939" on="1"/>
        <pt x="825" y="1892" on="1"/>
        <pt x="825" y="1786" on="0"/>
        <pt x="718" y="1663" on="0"/>
        <pt x="617" y="1663" on="1"/>
        <pt x="568" y="1663" on="0"/>
        <pt x="453" y="1704" on="0"/>
        <pt x="342" y="1754" on="0"/>
        <pt x="248" y="1795" on="0"/>
        <pt x="220" y="1795" on="1"/>
        <pt x="200" y="1795" on="0"/>
        <pt x="167" y="1787" on="0"/>
        <pt x="145" y="1765" on="0"/>
        <pt x="133" y="1727" on="0"/>
        <pt x="133" y="1697" on="1"/>
        <pt x="24" y="1687" on="1"/>
      </contour>
    </TTGlyph>
    <TTGlyph name="brevetilde.case" xMin="-127" yMin="1472" xMax="674" yMax="2088">
      <contour>
        <pt x="609" y="1749" on="1"/>
        <pt x="609" y="1699" on="0"/>
        <pt x="563" y="1600" on="0"/>
        <pt x="477" y="1521" on="0"/>
        <pt x="352" y="1472" on="0"/>
        <pt x="273" y="1472" on="1"/>
        <pt x="194" y="1472" on="0"/>
        <pt x="69" y="1521" on="0"/>
        <pt x="-17" y="1600" on="0"/>
        <pt x="-63" y="1699" on="0"/>
        <pt x="-63" y="1749" on="1"/>
        <pt x="34" y="1759" on="1"/>
        <pt x="34" y="1745" on="0"/>
        <pt x="58" y="1692" on="0"/>
        <pt x="113" y="1640" on="0"/>
        <pt x="205" y="1602" on="0"/>
        <pt x="273" y="1602" on="1"/>
        <pt x="341" y="1602" on="0"/>
        <pt x="433" y="1640" on="0"/>
        <pt x="488" y="1692" on="0"/>
        <pt x="512" y="1745" on="0"/>
        <pt x="512" y="1759" on="1"/>
      </contour>
      <contour>
        <pt x="-127" y="1859" on="1"/>
        <pt x="-127" y="1972" on="0"/>
        <pt x="-10" y="2088" on="0"/>
        <pt x="93" y="2088" on="1"/>
        <pt x="147" y="2088" on="0"/>
        <pt x="258" y="2047" on="0"/>
        <pt x="359" y="1997" on="0"/>
        <pt x="445" y="1956" on="0"/>
        <pt x="474" y="1956" on="1"/>
        <pt x="512" y="1956" on="0"/>
        <pt x="557" y="2015" on="0"/>
        <pt x="557" y="2076" on="1"/>
        <pt x="674" y="2086" on="1"/>
        <pt x="674" y="2039" on="1"/>
        <pt x="674" y="1933" on="0"/>
        <pt x="567" y="1810" on="0"/>
        <pt x="466" y="1810" on="1"/>
        <pt x="417" y="1810" on="0"/>
        <pt x="302" y="1851" on="0"/>
        <pt x="191" y="1901" on="0"/>
        <pt x="97" y="1942" on="0"/>
        <pt x="69" y="1942" on="1"/>
        <pt x="49" y="1942" on="0"/>
        <pt x="16" y="1934" on="0"/>
        <pt x="-6" y="1912" on="0"/>
        <pt x="-18" y="1874" on="0"/>
        <pt x="-18" y="1844" on="1"/>
        <pt x="-127" y="1834" on="1"/>
      </contour>
    </TTGlyph>
    <TTGlyph name="brokenbar" xMin="270" yMin="-537" xMax="388" yMax="1670">
      <contour>
        <pt x="270" y="320" on="1"/>
        <pt x="388" y="320" on="1"/>
        <pt x="388" y="-537" on="1"/>
        <pt x="270" y="-537" on="1"/>
      </contour>
      <contour>
        <pt x="270" y="1670" on="1"/>
        <pt x="388" y="1670" on="1"/>
        <pt x="388" y="813" on="1"/>
        <pt x="270" y="813" on="1"/>
      </contour>
    </TTGlyph>
    <TTGlyph name="bullet" xMin="140" yMin="409" xMax="610" yMax="880">
      <contour>
        <pt x="140" y="583" on="1"/>
        <pt x="140" y="642" on="0"/>
        <pt x="168" y="750" on="0"/>
        <pt x="215" y="832" on="0"/>
        <pt x="279" y="880" on="0"/>
        <pt x="315" y="880" on="1"/>
        <pt x="377" y="880" on="0"/>
        <pt x="485" y="852" on="0"/>
        <pt x="564" y="804" on="0"/>
        <pt x="610" y="740" on="0"/>
        <pt x="610" y="703" on="1"/>
        <pt x="610" y="644" on="0"/>
        <pt x="582" y="538" on="0"/>
        <pt x="534" y="457" on="0"/>
        <pt x="470" y="409" on="0"/>
        <pt x="434" y="409" on="1"/>
        <pt x="372" y="409" on="0"/>
        <pt x="265" y="437" on="0"/>
        <pt x="185" y="484" on="0"/>
        <pt x="140" y="547" on="0"/>
      </contour>
    </TTGlyph>
    <TTGlyph name="c" xMin="96" yMin="-22" xMax="896" yMax="1107">
      <contour>
        <pt x="96" y="492" on="1"/>
        <pt x="96" y="788" on="0"/>
        <pt x="349" y="1107" on="0"/>
        <pt x="572" y="1107" on="1"/>
        <pt x="648" y="1107" on="0"/>
        <pt x="801" y="1077" on="0"/>
        <pt x="877" y="1044" on="1"/>
        <pt x="896" y="810" on="1"/>
        <pt x="786" y="787" on="1"/>
        <pt x="717" y="966" on="1"/>
        <pt x="683" y="976" on="0"/>
        <pt x="611" y="987" on="0"/>
        <pt x="569" y="987" on="1"/>
        <pt x="507" y="987" on="0"/>
        <pt x="388" y="957" on="0"/>
        <pt x="336" y="927" on="1"/>
        <pt x="314" y="867" on="0"/>
        <pt x="276" y="668" on="0"/>
        <pt x="276" y="552" on="1"/>
        <pt x="276" y="443" on="1"/>
        <pt x="276" y="283" on="0"/>
        <pt x="462" y="98" on="0"/>
        <pt x="593" y="98" on="1"/>
        <pt x="665" y="98" on="0"/>
        <pt x="812" y="135" on="0"/>
        <pt x="888" y="171" on="1"/>
        <pt x="888" y="75" on="1"/>
        <pt x="819" y="32" on="0"/>
        <pt x="640" y="-22" on="0"/>
        <pt x="544" y="-22" on="1"/>
        <pt x="333" y="-22" on="0"/>
        <pt x="96" y="195" on="0"/>
        <pt x="96" y="399" on="1"/>
      </contour>
    </TTGlyph>
    <TTGlyph name="cacute" xMin="96" yMin="-22" xMax="896" yMax="1670">
      <component glyphName="c" x="0" y="0" flags="0x204"/>
      <component glyphName="acute" x="98" y="0" flags="0x4"/>
    </TTGlyph>
    <TTGlyph name="caron" xMin="200" yMin="1255" xMax="799" yMax="1670">
      <contour>
        <pt x="200" y="1660" on="1"/>
        <pt x="325" y="1670" on="1"/>
        <pt x="518" y="1418" on="1"/>
        <pt x="704" y="1670" on="1"/>
        <pt x="799" y="1660" on="1"/>
        <pt x="799" y="1628" on="1"/>
        <pt x="566" y="1255" on="1"/>
        <pt x="433" y="1265" on="1"/>
        <pt x="200" y="1628" on="1"/>
      </contour>
    </TTGlyph>
    <TTGlyph name="caron.alt" xMin="70" yMin="1157" xMax="236" yMax="1540">
      <contour>
        <pt x="70" y="1540" on="1"/>
        <pt x="236" y="1540" on="1"/>
        <pt x="236" y="1498" on="1"/>
        <pt x="173" y="1157" on="1"/>
        <pt x="70" y="1157" on="1"/>
      </contour>
    </TTGlyph>
    <TTGlyph name="caron.case" xMin="-63" yMin="1460" xMax="626" yMax="1794">
      <contour>
        <pt x="-63" y="1784" on="1"/>
        <pt x="62" y="1794" on="1"/>
        <pt x="300" y="1602" on="1"/>
        <pt x="531" y="1794" on="1"/>
        <pt x="626" y="1784" on="1"/>
        <pt x="626" y="1752" on="1"/>
        <pt x="343" y="1460" on="1"/>
        <pt x="210" y="1470" on="1"/>
        <pt x="-63" y="1752" on="1"/>
      </contour>
    </TTGlyph>
    <TTGlyph name="ccaron" xMin="96" yMin="-22" xMax="896" yMax="1670">
      <component glyphName="c" x="0" y="0" flags="0x204"/>
      <component glyphName="caron" x="81" y="0" flags="0x4"/>
    </TTGlyph>
    <TTGlyph name="ccedilla" xMin="96" yMin="-457" xMax="896" yMax="1107">
      <contour>
        <pt x="96" y="492" on="1"/>
        <pt x="96" y="788" on="0"/>
        <pt x="349" y="1107" on="0"/>
        <pt x="572" y="1107" on="1"/>
        <pt x="648" y="1107" on="0"/>
        <pt x="801" y="1077" on="0"/>
        <pt x="877" y="1044" on="1"/>
        <pt x="896" y="810" on="1"/>
        <pt x="786" y="787" on="1"/>
        <pt x="717" y="966" on="1"/>
        <pt x="683" y="976" on="0"/>
        <pt x="611" y="987" on="0"/>
        <pt x="569" y="987" on="1"/>
        <pt x="507" y="987" on="0"/>
        <pt x="388" y="957" on="0"/>
        <pt x="336" y="927" on="1"/>
        <pt x="314" y="867" on="0"/>
        <pt x="276" y="668" on="0"/>
        <pt x="276" y="552" on="1"/>
        <pt x="276" y="443" on="1"/>
        <pt x="276" y="283" on="0"/>
        <pt x="462" y="98" on="0"/>
        <pt x="593" y="98" on="1"/>
        <pt x="665" y="98" on="0"/>
        <pt x="812" y="135" on="0"/>
        <pt x="888" y="171" on="1"/>
        <pt x="888" y="75" on="1"/>
        <pt x="819" y="32" on="0"/>
        <pt x="729" y="5" on="1"/>
        <pt x="669" y="-13" on="0"/>
        <pt x="606" y="-19" on="1"/>
        <pt x="578" y="-98" on="1"/>
        <pt x="620" y="-109" on="0"/>
        <pt x="690" y="-137" on="0"/>
        <pt x="741" y="-178" on="0"/>
        <pt x="770" y="-235" on="0"/>
        <pt x="770" y="-275" on="1"/>
        <pt x="770" y="-315" on="0"/>
        <pt x="739" y="-382" on="0"/>
        <pt x="680" y="-430" on="0"/>
        <pt x="595" y="-457" on="0"/>
        <pt x="542" y="-457" on="1"/>
        <pt x="502" y="-457" on="0"/>
        <pt x="434" y="-443" on="0"/>
        <pt x="408" y="-434" on="1"/>
        <pt x="378" y="-423" on="0"/>
        <pt x="352" y="-410" on="1"/>
        <pt x="352" y="-317" on="1"/>
        <pt x="379" y="-328" on="0"/>
        <pt x="409" y="-337" on="1"/>
        <pt x="435" y="-345" on="0"/>
        <pt x="499" y="-357" on="0"/>
        <pt x="532" y="-357" on="1"/>
        <pt x="552" y="-357" on="0"/>
        <pt x="583" y="-353" on="0"/>
        <pt x="594" y="-351" on="1"/>
        <pt x="606" y="-348" on="0"/>
        <pt x="615" y="-344" on="1"/>
        <pt x="618" y="-337" on="0"/>
        <pt x="622" y="-327" on="1"/>
        <pt x="624" y="-319" on="0"/>
        <pt x="629" y="-297" on="0"/>
        <pt x="629" y="-285" on="1"/>
        <pt x="629" y="-246" on="0"/>
        <pt x="552" y="-196" on="0"/>
        <pt x="468" y="-176" on="1"/>
        <pt x="434" y="-121" on="1"/>
        <pt x="473" y="-18" on="1"/>
        <pt x="312" y="-3" on="0"/>
        <pt x="214" y="86" on="1"/>
        <pt x="96" y="195" on="0"/>
        <pt x="96" y="399" on="1"/>
      </contour>
    </TTGlyph>
    <TTGlyph name="ccircumflex" xMin="96" yMin="-22" xMax="896" yMax="1680">
      <component glyphName="c" x="0" y="0" flags="0x204"/>
      <component glyphName="circumflex" x="78" y="0" flags="0x4"/>
    </TTGlyph>
    <TTGlyph name="cdotaccent" xMin="96" yMin="-22" xMax="896" yMax="1540">
      <component glyphName="c" x="0" y="0" flags="0x204"/>
      <component glyphName="dotaccent" x="219" y="0" flags="0x4"/>
    </TTGlyph>
    <TTGlyph name="cedilla" xMin="200" yMin="-457" xMax="618" yMax="37">
      <contour>
        <pt x="475" y="37" on="1"/>
        <pt x="426" y="-98" on="1"/>
        <pt x="468" y="-109" on="0"/>
        <pt x="538" y="-137" on="0"/>
        <pt x="589" y="-178" on="0"/>
        <pt x="618" y="-235" on="0"/>
        <pt x="618" y="-275" on="1"/>
        <pt x="618" y="-315" on="0"/>
        <pt x="587" y="-382" on="0"/>
        <pt x="528" y="-430" on="0"/>
        <pt x="443" y="-457" on="0"/>
        <pt x="390" y="-457" on="1"/>
        <pt x="350" y="-457" on="0"/>
        <pt x="282" y="-443" on="0"/>
        <pt x="256" y="-434" on="1"/>
        <pt x="226" y="-423" on="0"/>
        <pt x="200" y="-410" on="1"/>
        <pt x="200" y="-317" on="1"/>
        <pt x="227" y="-328" on="0"/>
        <pt x="257" y="-337" on="1"/>
        <pt x="283" y="-345" on="0"/>
        <pt x="347" y="-357" on="0"/>
        <pt x="380" y="-357" on="1"/>
        <pt x="400" y="-357" on="0"/>
        <pt x="431" y="-353" on="0"/>
        <pt x="442" y="-351" on="1"/>
        <pt x="454" y="-348" on="0"/>
        <pt x="463" y="-344" on="1"/>
        <pt x="466" y="-337" on="0"/>
        <pt x="470" y="-327" on="1"/>
        <pt x="472" y="-319" on="0"/>
        <pt x="477" y="-297" on="0"/>
        <pt x="477" y="-285" on="1"/>
        <pt x="477" y="-246" on="0"/>
        <pt x="400" y="-196" on="0"/>
        <pt x="316" y="-176" on="1"/>
        <pt x="282" y="-121" on="1"/>
        <pt x="343" y="37" on="1"/>
      </contour>
    </TTGlyph>
    <TTGlyph name="cent" xMin="96" yMin="-245" xMax="948" yMax="1353">
      <contour>
        <pt x="525" y="-20" on="1"/>
        <pt x="430" y="-15" on="0"/>
        <pt x="273" y="40" on="0"/>
        <pt x="159" y="143" on="0"/>
        <pt x="96" y="296" on="0"/>
        <pt x="96" y="399" on="1"/>
        <pt x="96" y="492" on="1"/>
        <pt x="96" y="633" on="0"/>
        <pt x="156" y="850" on="0"/>
        <pt x="268" y="1002" on="0"/>
        <pt x="427" y="1090" on="0"/>
        <pt x="525" y="1102" on="1"/>
        <pt x="525" y="1353" on="1"/>
        <pt x="643" y="1353" on="1"/>
        <pt x="643" y="1106" on="1"/>
        <pt x="711" y="1103" on="0"/>
        <pt x="820" y="1083" on="0"/>
        <pt x="858" y="1072" on="1"/>
        <pt x="903" y="1059" on="0"/>
        <pt x="937" y="1044" on="1"/>
        <pt x="937" y="789" on="1"/>
        <pt x="815" y="775" on="1"/>
        <pt x="767" y="966" on="1"/>
        <pt x="752" y="970" on="0"/>
        <pt x="734" y="974" on="1"/>
        <pt x="718" y="977" on="0"/>
        <pt x="672" y="984" on="0"/>
        <pt x="643" y="986" on="1"/>
        <pt x="643" y="98" on="1"/>
        <pt x="703" y="100" on="0"/>
        <pt x="814" y="123" on="0"/>
        <pt x="856" y="137" on="1"/>
        <pt x="905" y="152" on="0"/>
        <pt x="948" y="171" on="1"/>
        <pt x="948" y="75" on="1"/>
        <pt x="911" y="52" on="0"/>
        <pt x="864" y="34" on="1"/>
        <pt x="823" y="18" on="0"/>
        <pt x="712" y="-13" on="0"/>
        <pt x="643" y="-19" on="1"/>
        <pt x="643" y="-245" on="1"/>
        <pt x="525" y="-245" on="1"/>
      </contour>
      <contour>
        <pt x="276" y="443" on="1"/>
        <pt x="276" y="371" on="0"/>
        <pt x="317" y="258" on="0"/>
        <pt x="386" y="176" on="0"/>
        <pt x="476" y="123" on="0"/>
        <pt x="525" y="110" on="1"/>
        <pt x="525" y="983" on="1"/>
        <pt x="480" y="978" on="0"/>
        <pt x="410" y="959" on="0"/>
        <pt x="386" y="950" on="1"/>
        <pt x="357" y="939" on="0"/>
        <pt x="336" y="927" on="1"/>
        <pt x="319" y="882" on="0"/>
        <pt x="306" y="825" on="1"/>
        <pt x="295" y="776" on="0"/>
        <pt x="276" y="638" on="0"/>
        <pt x="276" y="552" on="1"/>
      </contour>
    </TTGlyph>
    <TTGlyph name="circumflex" xMin="200" yMin="1265" xMax="799" yMax="1680">
      <contour>
        <pt x="799" y="1275" on="1"/>
        <pt x="674" y="1265" on="1"/>
        <pt x="481" y="1517" on="1"/>
        <pt x="295" y="1265" on="1"/>
        <pt x="200" y="1275" on="1"/>
        <pt x="200" y="1307" on="1"/>
        <pt x="433" y="1680" on="1"/>
        <pt x="566" y="1670" on="1"/>
        <pt x="799" y="1307" on="1"/>
      </contour>
    </TTGlyph>
    <TTGlyph name="circumflex.case" xMin="-63" yMin="1460" xMax="626" yMax="1794">
      <contour>
        <pt x="626" y="1470" on="1"/>
        <pt x="501" y="1460" on="1"/>
        <pt x="263" y="1652" on="1"/>
        <pt x="32" y="1460" on="1"/>
        <pt x="-63" y="1470" on="1"/>
        <pt x="-63" y="1502" on="1"/>
        <pt x="220" y="1794" on="1"/>
        <pt x="353" y="1784" on="1"/>
        <pt x="626" y="1502" on="1"/>
      </contour>
    </TTGlyph>
    <TTGlyph name="circumflexacute" xMin="166" yMin="1265" xMax="940" yMax="1809">
      <contour>
        <pt x="765" y="1275" on="1"/>
        <pt x="640" y="1265" on="1"/>
        <pt x="447" y="1517" on="1"/>
        <pt x="261" y="1265" on="1"/>
        <pt x="166" y="1275" on="1"/>
        <pt x="166" y="1307" on="1"/>
        <pt x="399" y="1680" on="1"/>
        <pt x="532" y="1670" on="1"/>
        <pt x="765" y="1307" on="1"/>
      </contour>
      <contour>
        <pt x="675" y="1572" on="1"/>
        <pt x="808" y="1809" on="1"/>
        <pt x="940" y="1799" on="1"/>
        <pt x="940" y="1733" on="1"/>
        <pt x="750" y="1530" on="1"/>
        <pt x="675" y="1540" on="1"/>
      </contour>
    </TTGlyph>
    <TTGlyph name="circumflexacute.case" xMin="-63" yMin="1460" xMax="827" yMax="1916">
      <contour>
        <pt x="626" y="1470" on="1"/>
        <pt x="501" y="1460" on="1"/>
        <pt x="263" y="1652" on="1"/>
        <pt x="32" y="1460" on="1"/>
        <pt x="-63" y="1470" on="1"/>
        <pt x="-63" y="1502" on="1"/>
        <pt x="220" y="1794" on="1"/>
        <pt x="353" y="1784" on="1"/>
        <pt x="626" y="1502" on="1"/>
      </contour>
      <contour>
        <pt x="492" y="1734" on="1"/>
        <pt x="685" y="1916" on="1"/>
        <pt x="827" y="1906" on="1"/>
        <pt x="827" y="1840" on="1"/>
        <pt x="577" y="1691" on="1"/>
        <pt x="492" y="1702" on="1"/>
      </contour>
    </TTGlyph>
    <TTGlyph name="circumflexgrave" xMin="-53" yMin="1265" xMax="765" yMax="1809">
      <contour>
        <pt x="765" y="1275" on="1"/>
        <pt x="640" y="1265" on="1"/>
        <pt x="447" y="1517" on="1"/>
        <pt x="261" y="1265" on="1"/>
        <pt x="166" y="1275" on="1"/>
        <pt x="166" y="1307" on="1"/>
        <pt x="399" y="1680" on="1"/>
        <pt x="532" y="1670" on="1"/>
        <pt x="765" y="1307" on="1"/>
      </contour>
      <contour>
        <pt x="252" y="1540" on="1"/>
        <pt x="164" y="1530" on="1"/>
        <pt x="-53" y="1733" on="1"/>
        <pt x="-53" y="1799" on="1"/>
        <pt x="82" y="1809" on="1"/>
        <pt x="252" y="1572" on="1"/>
      </contour>
    </TTGlyph>
    <TTGlyph name="circumflexgrave.case" xMin="-254" yMin="1460" xMax="626" yMax="1916">
      <contour>
        <pt x="626" y="1470" on="1"/>
        <pt x="501" y="1460" on="1"/>
        <pt x="263" y="1652" on="1"/>
        <pt x="32" y="1460" on="1"/>
        <pt x="-63" y="1470" on="1"/>
        <pt x="-63" y="1502" on="1"/>
        <pt x="220" y="1794" on="1"/>
        <pt x="353" y="1784" on="1"/>
        <pt x="626" y="1502" on="1"/>
      </contour>
      <contour>
        <pt x="71" y="1702" on="1"/>
        <pt x="-14" y="1691" on="1"/>
        <pt x="-254" y="1840" on="1"/>
        <pt x="-254" y="1906" on="1"/>
        <pt x="-122" y="1916" on="1"/>
        <pt x="71" y="1734" on="1"/>
      </contour>
    </TTGlyph>
    <TTGlyph name="circumflexhookabove" xMin="166" yMin="1265" xMax="968" yMax="1939">
      <contour>
        <pt x="765" y="1275" on="1"/>
        <pt x="640" y="1265" on="1"/>
        <pt x="447" y="1517" on="1"/>
        <pt x="261" y="1265" on="1"/>
        <pt x="166" y="1275" on="1"/>
        <pt x="166" y="1307" on="1"/>
        <pt x="399" y="1680" on="1"/>
        <pt x="532" y="1670" on="1"/>
        <pt x="765" y="1307" on="1"/>
      </contour>
      <contour>
        <pt x="855" y="1647" on="1"/>
        <pt x="821" y="1623" on="0"/>
        <pt x="802" y="1597" on="0"/>
        <pt x="802" y="1584" on="1"/>
        <pt x="802" y="1567" on="0"/>
        <pt x="807" y="1554" on="1"/>
        <pt x="809" y="1546" on="0"/>
        <pt x="812" y="1540" on="1"/>
        <pt x="720" y="1513" on="1"/>
        <pt x="710" y="1526" on="0"/>
        <pt x="702" y="1541" on="1"/>
        <pt x="695" y="1554" on="0"/>
        <pt x="685" y="1585" on="0"/>
        <pt x="685" y="1602" on="1"/>
        <pt x="685" y="1627" on="0"/>
        <pt x="714" y="1673" on="0"/>
        <pt x="755" y="1703" on="1"/>
        <pt x="780" y="1721" on="0"/>
        <pt x="814" y="1749" on="0"/>
        <pt x="834" y="1771" on="0"/>
        <pt x="842" y="1793" on="0"/>
        <pt x="842" y="1805" on="1"/>
        <pt x="842" y="1827" on="0"/>
        <pt x="811" y="1855" on="0"/>
        <pt x="776" y="1855" on="1"/>
        <pt x="757" y="1855" on="0"/>
        <pt x="726" y="1849" on="0"/>
        <pt x="715" y="1846" on="1"/>
        <pt x="702" y="1842" on="0"/>
        <pt x="691" y="1837" on="1"/>
        <pt x="667" y="1756" on="1"/>
        <pt x="589" y="1761" on="1"/>
        <pt x="589" y="1884" on="1"/>
        <pt x="613" y="1899" on="0"/>
        <pt x="644" y="1911" on="1"/>
        <pt x="670" y="1922" on="0"/>
        <pt x="744" y="1939" on="0"/>
        <pt x="791" y="1939" on="1"/>
        <pt x="873" y="1939" on="0"/>
        <pt x="968" y="1871" on="0"/>
        <pt x="968" y="1809" on="1"/>
        <pt x="968" y="1782" on="0"/>
        <pt x="952" y="1738" on="0"/>
        <pt x="922" y="1700" on="0"/>
        <pt x="880" y="1665" on="0"/>
      </contour>
    </TTGlyph>
    <TTGlyph name="circumflexhookabove.case" xMin="-63" yMin="1460" xMax="798" yMax="2101">
      <contour>
        <pt x="626" y="1470" on="1"/>
        <pt x="501" y="1460" on="1"/>
        <pt x="263" y="1652" on="1"/>
        <pt x="32" y="1460" on="1"/>
        <pt x="-63" y="1470" on="1"/>
        <pt x="-63" y="1502" on="1"/>
        <pt x="220" y="1794" on="1"/>
        <pt x="353" y="1784" on="1"/>
        <pt x="626" y="1502" on="1"/>
      </contour>
      <contour>
        <pt x="685" y="1809" on="1"/>
        <pt x="651" y="1785" on="0"/>
        <pt x="632" y="1759" on="0"/>
        <pt x="632" y="1746" on="1"/>
        <pt x="632" y="1729" on="0"/>
        <pt x="637" y="1716" on="1"/>
        <pt x="639" y="1708" on="0"/>
        <pt x="642" y="1702" on="1"/>
        <pt x="550" y="1675" on="1"/>
        <pt x="540" y="1688" on="0"/>
        <pt x="532" y="1703" on="1"/>
        <pt x="525" y="1716" on="0"/>
        <pt x="515" y="1747" on="0"/>
        <pt x="515" y="1764" on="1"/>
        <pt x="515" y="1789" on="0"/>
        <pt x="544" y="1835" on="0"/>
        <pt x="585" y="1865" on="1"/>
        <pt x="610" y="1883" on="0"/>
        <pt x="644" y="1911" on="0"/>
        <pt x="664" y="1933" on="0"/>
        <pt x="672" y="1955" on="0"/>
        <pt x="672" y="1967" on="1"/>
        <pt x="672" y="1989" on="0"/>
        <pt x="641" y="2017" on="0"/>
        <pt x="606" y="2017" on="1"/>
        <pt x="587" y="2017" on="0"/>
        <pt x="556" y="2011" on="0"/>
        <pt x="545" y="2008" on="1"/>
        <pt x="532" y="2004" on="0"/>
        <pt x="521" y="1999" on="1"/>
        <pt x="497" y="1918" on="1"/>
        <pt x="419" y="1923" on="1"/>
        <pt x="419" y="2046" on="1"/>
        <pt x="443" y="2061" on="0"/>
        <pt x="474" y="2073" on="1"/>
        <pt x="500" y="2084" on="0"/>
        <pt x="574" y="2101" on="0"/>
        <pt x="621" y="2101" on="1"/>
        <pt x="703" y="2101" on="0"/>
        <pt x="798" y="2033" on="0"/>
        <pt x="798" y="1971" on="1"/>
        <pt x="798" y="1944" on="0"/>
        <pt x="782" y="1900" on="0"/>
        <pt x="752" y="1862" on="0"/>
        <pt x="710" y="1827" on="0"/>
      </contour>
    </TTGlyph>
    <TTGlyph name="circumflextilde" xMin="56" yMin="1265" xMax="857" yMax="2049">
      <contour>
        <pt x="56" y="1820" on="1"/>
        <pt x="56" y="1933" on="0"/>
        <pt x="173" y="2049" on="0"/>
        <pt x="276" y="2049" on="1"/>
        <pt x="330" y="2049" on="0"/>
        <pt x="441" y="2008" on="0"/>
        <pt x="542" y="1958" on="0"/>
        <pt x="628" y="1917" on="0"/>
        <pt x="657" y="1917" on="1"/>
        <pt x="695" y="1917" on="0"/>
        <pt x="740" y="1976" on="0"/>
        <pt x="740" y="2037" on="1"/>
        <pt x="857" y="2047" on="1"/>
        <pt x="857" y="2000" on="1"/>
        <pt x="857" y="1894" on="0"/>
        <pt x="750" y="1771" on="0"/>
        <pt x="649" y="1771" on="1"/>
        <pt x="600" y="1771" on="0"/>
        <pt x="485" y="1812" on="0"/>
        <pt x="374" y="1862" on="0"/>
        <pt x="280" y="1903" on="0"/>
        <pt x="252" y="1903" on="1"/>
        <pt x="232" y="1903" on="0"/>
        <pt x="199" y="1895" on="0"/>
        <pt x="177" y="1873" on="0"/>
        <pt x="165" y="1835" on="0"/>
        <pt x="165" y="1805" on="1"/>
        <pt x="56" y="1795" on="1"/>
      </contour>
      <contour>
        <pt x="765" y="1275" on="1"/>
        <pt x="640" y="1265" on="1"/>
        <pt x="447" y="1517" on="1"/>
        <pt x="261" y="1265" on="1"/>
        <pt x="166" y="1275" on="1"/>
        <pt x="166" y="1307" on="1"/>
        <pt x="399" y="1680" on="1"/>
        <pt x="532" y="1670" on="1"/>
        <pt x="765" y="1307" on="1"/>
      </contour>
    </TTGlyph>
    <TTGlyph name="circumflextilde.case" xMin="-134" yMin="1460" xMax="667" yMax="2158">
      <contour>
        <pt x="-134" y="1929" on="1"/>
        <pt x="-134" y="2042" on="0"/>
        <pt x="-17" y="2158" on="0"/>
        <pt x="86" y="2158" on="1"/>
        <pt x="140" y="2158" on="0"/>
        <pt x="251" y="2117" on="0"/>
        <pt x="352" y="2067" on="0"/>
        <pt x="438" y="2026" on="0"/>
        <pt x="467" y="2026" on="1"/>
        <pt x="505" y="2026" on="0"/>
        <pt x="550" y="2085" on="0"/>
        <pt x="550" y="2146" on="1"/>
        <pt x="667" y="2156" on="1"/>
        <pt x="667" y="2109" on="1"/>
        <pt x="667" y="2003" on="0"/>
        <pt x="560" y="1880" on="0"/>
        <pt x="459" y="1880" on="1"/>
        <pt x="410" y="1880" on="0"/>
        <pt x="295" y="1921" on="0"/>
        <pt x="184" y="1971" on="0"/>
        <pt x="90" y="2012" on="0"/>
        <pt x="62" y="2012" on="1"/>
        <pt x="42" y="2012" on="0"/>
        <pt x="9" y="2004" on="0"/>
        <pt x="-13" y="1982" on="0"/>
        <pt x="-25" y="1944" on="0"/>
        <pt x="-25" y="1914" on="1"/>
        <pt x="-134" y="1904" on="1"/>
      </contour>
      <contour>
        <pt x="626" y="1470" on="1"/>
        <pt x="501" y="1460" on="1"/>
        <pt x="263" y="1652" on="1"/>
        <pt x="32" y="1460" on="1"/>
        <pt x="-63" y="1470" on="1"/>
        <pt x="-63" y="1502" on="1"/>
        <pt x="220" y="1794" on="1"/>
        <pt x="353" y="1784" on="1"/>
        <pt x="626" y="1502" on="1"/>
      </contour>
    </TTGlyph>
    <TTGlyph name="colon" xMin="152" yMin="-22" xMax="424" yMax="1016">
      <contour>
        <pt x="152" y="79" on="1"/>
        <pt x="152" y="113" on="0"/>
        <pt x="168" y="176" on="0"/>
        <pt x="195" y="223" on="0"/>
        <pt x="232" y="251" on="0"/>
        <pt x="253" y="251" on="1"/>
        <pt x="289" y="251" on="0"/>
        <pt x="351" y="235" on="0"/>
        <pt x="398" y="206" on="0"/>
        <pt x="424" y="169" on="0"/>
        <pt x="424" y="148" on="1"/>
        <pt x="424" y="114" on="0"/>
        <pt x="408" y="53" on="0"/>
        <pt x="381" y="6" on="0"/>
        <pt x="343" y="-22" on="0"/>
        <pt x="322" y="-22" on="1"/>
        <pt x="286" y="-22" on="0"/>
        <pt x="224" y="-6" on="0"/>
        <pt x="178" y="21" on="0"/>
        <pt x="152" y="58" on="0"/>
      </contour>
      <contour>
        <pt x="152" y="844" on="1"/>
        <pt x="152" y="878" on="0"/>
        <pt x="168" y="941" on="0"/>
        <pt x="196" y="988" on="0"/>
        <pt x="232" y="1016" on="0"/>
        <pt x="253" y="1016" on="1"/>
        <pt x="289" y="1016" on="0"/>
        <pt x="351" y="1000" on="0"/>
        <pt x="398" y="972" on="0"/>
        <pt x="424" y="934" on="0"/>
        <pt x="424" y="913" on="1"/>
        <pt x="424" y="879" on="0"/>
        <pt x="408" y="818" on="0"/>
        <pt x="380" y="771" on="0"/>
        <pt x="343" y="743" on="0"/>
        <pt x="322" y="743" on="1"/>
        <pt x="286" y="743" on="0"/>
        <pt x="224" y="759" on="0"/>
        <pt x="178" y="787" on="0"/>
        <pt x="152" y="823" on="0"/>
      </contour>
    </TTGlyph>
    <TTGlyph name="colonmonetary" xMin="100" yMin="-133" xMax="1092" yMax="1510">
      <contour>
        <pt x="231" y="122" on="1"/>
        <pt x="169" y="185" on="0"/>
        <pt x="100" y="377" on="0"/>
        <pt x="100" y="515" on="1"/>
        <pt x="100" y="604" on="1"/>
        <pt x="100" y="950" on="0"/>
        <pt x="354" y="1337" on="0"/>
        <pt x="605" y="1369" on="1"/>
        <pt x="648" y="1510" on="1"/>
        <pt x="763" y="1510" on="1"/>
        <pt x="763" y="1490" on="1"/>
        <pt x="728" y="1375" on="1"/>
        <pt x="800" y="1374" on="0"/>
        <pt x="859" y="1366" on="1"/>
        <pt x="902" y="1510" on="1"/>
        <pt x="1017" y="1510" on="1"/>
        <pt x="1017" y="1490" on="1"/>
        <pt x="973" y="1345" on="1"/>
        <pt x="996" y="1340" on="0"/>
        <pt x="1032" y="1329" on="0"/>
        <pt x="1044" y="1325" on="1"/>
        <pt x="1068" y="1316" on="1"/>
        <pt x="1089" y="1046" on="1"/>
        <pt x="984" y="1024" on="1"/>
        <pt x="933" y="1211" on="1"/>
        <pt x="605" y="119" on="1"/>
        <pt x="662" y="107" on="0"/>
        <pt x="723" y="107" on="1"/>
        <pt x="798" y="107" on="0"/>
        <pt x="931" y="139" on="0"/>
        <pt x="982" y="159" on="1"/>
        <pt x="1041" y="182" on="0"/>
        <pt x="1092" y="211" on="1"/>
        <pt x="1092" y="105" on="1"/>
        <pt x="1037" y="69" on="0"/>
        <pt x="970" y="41" on="1"/>
        <pt x="913" y="17" on="0"/>
        <pt x="757" y="-22" on="0"/>
        <pt x="663" y="-22" on="1"/>
        <pt x="637" y="-22" on="0"/>
        <pt x="588" y="-19" on="0"/>
        <pt x="564" y="-17" on="1"/>
        <pt x="530" y="-133" on="1"/>
        <pt x="415" y="-133" on="1"/>
        <pt x="415" y="-113" on="1"/>
        <pt x="449" y="2" on="1"/>
        <pt x="417" y="10" on="0"/>
        <pt x="358" y="33" on="0"/>
        <pt x="330" y="48" on="1"/>
        <pt x="276" y="-133" on="1"/>
        <pt x="161" y="-133" on="1"/>
        <pt x="161" y="-113" on="1"/>
      </contour>
      <contour>
        <pt x="388" y="241" on="1"/>
        <pt x="434" y="188" on="0"/>
        <pt x="496" y="157" on="1"/>
        <pt x="820" y="1237" on="1"/>
        <pt x="766" y="1245" on="0"/>
        <pt x="690" y="1246" on="1"/>
      </contour>
      <contour>
        <pt x="290" y="550" on="1"/>
        <pt x="290" y="457" on="0"/>
        <pt x="311" y="387" on="1"/>
        <pt x="566" y="1236" on="1"/>
        <pt x="516" y="1227" on="0"/>
        <pt x="437" y="1201" on="0"/>
        <pt x="408" y="1188" on="1"/>
        <pt x="375" y="1173" on="0"/>
        <pt x="349" y="1158" on="1"/>
        <pt x="332" y="1099" on="0"/>
        <pt x="319" y="1025" on="1"/>
        <pt x="308" y="962" on="0"/>
        <pt x="290" y="788" on="0"/>
        <pt x="290" y="683" on="1"/>
      </contour>
    </TTGlyph>
    <TTGlyph name="comma" xMin="90" yMin="-366" xMax="386" yMax="251">
      <contour>
        <pt x="90" y="79" on="1"/>
        <pt x="90" y="113" on="0"/>
        <pt x="106" y="176" on="0"/>
        <pt x="134" y="223" on="0"/>
        <pt x="170" y="251" on="0"/>
        <pt x="191" y="251" on="1"/>
        <pt x="230" y="251" on="0"/>
        <pt x="314" y="227" on="0"/>
        <pt x="341" y="198" on="1"/>
        <pt x="350" y="189" on="0"/>
        <pt x="366" y="163" on="0"/>
        <pt x="378" y="125" on="0"/>
        <pt x="386" y="74" on="0"/>
        <pt x="386" y="39" on="1"/>
        <pt x="386" y="-11" on="0"/>
        <pt x="371" y="-105" on="0"/>
        <pt x="326" y="-202" on="0"/>
        <pt x="241" y="-306" on="0"/>
        <pt x="172" y="-366" on="1"/>
        <pt x="104" y="-286" on="1"/>
        <pt x="189" y="-215" on="0"/>
        <pt x="255" y="-105" on="0"/>
        <pt x="255" y="-64" on="1"/>
        <pt x="255" y="-44" on="0"/>
        <pt x="223" y="-22" on="0"/>
        <pt x="200" y="-16" on="1"/>
        <pt x="151" y="-3" on="0"/>
        <pt x="90" y="47" on="0"/>
      </contour>
    </TTGlyph>
    <TTGlyph name="commaaccent" xMin="70" yMin="-511" xMax="236" yMax="-128">
      <contour>
        <pt x="70" y="-128" on="1"/>
        <pt x="236" y="-128" on="1"/>
        <pt x="236" y="-170" on="1"/>
        <pt x="173" y="-511" on="1"/>
        <pt x="70" y="-511" on="1"/>
      </contour>
    </TTGlyph>
    <TTGlyph name="copyright" xMin="120" yMin="335" xMax="1347" yMax="1562">
      <contour>
        <pt x="455" y="919" on="1"/>
        <pt x="455" y="1016" on="0"/>
        <pt x="497" y="1161" on="0"/>
        <pt x="575" y="1257" on="0"/>
        <pt x="685" y="1305" on="0"/>
        <pt x="753" y="1305" on="1"/>
        <pt x="797" y="1305" on="0"/>
        <pt x="867" y="1293" on="0"/>
        <pt x="892" y="1286" on="1"/>
        <pt x="921" y="1277" on="0"/>
        <pt x="944" y="1267" on="1"/>
        <pt x="956" y="1074" on="1"/>
        <pt x="888" y="1060" on="1"/>
        <pt x="844" y="1197" on="1"/>
        <pt x="833" y="1200" on="0"/>
        <pt x="819" y="1203" on="1"/>
        <pt x="807" y="1205" on="0"/>
        <pt x="773" y="1209" on="0"/>
        <pt x="752" y="1209" on="1"/>
        <pt x="723" y="1209" on="0"/>
        <pt x="677" y="1200" on="0"/>
        <pt x="661" y="1195" on="1"/>
        <pt x="642" y="1189" on="0"/>
        <pt x="628" y="1181" on="1"/>
        <pt x="621" y="1154" on="0"/>
        <pt x="616" y="1120" on="1"/>
        <pt x="611" y="1091" on="0"/>
        <pt x="605" y="1008" on="0"/>
        <pt x="605" y="957" on="1"/>
        <pt x="605" y="889" on="1"/>
        <pt x="605" y="838" on="0"/>
        <pt x="634" y="764" on="0"/>
        <pt x="681" y="715" on="0"/>
        <pt x="738" y="692" on="0"/>
        <pt x="767" y="692" on="1"/>
        <pt x="803" y="692" on="0"/>
        <pt x="869" y="706" on="0"/>
        <pt x="895" y="715" on="1"/>
        <pt x="925" y="725" on="0"/>
        <pt x="952" y="738" on="1"/>
        <pt x="952" y="654" on="1"/>
        <pt x="924" y="637" on="0"/>
        <pt x="891" y="624" on="1"/>
        <pt x="862" y="613" on="0"/>
        <pt x="783" y="595" on="0"/>
        <pt x="735" y="595" on="1"/>
        <pt x="674" y="595" on="0"/>
        <pt x="571" y="627" on="0"/>
        <pt x="497" y="692" on="0"/>
        <pt x="455" y="792" on="0"/>
        <pt x="455" y="861" on="1"/>
      </contour>
      <contour>
        <pt x="259" y="949" on="1"/>
        <pt x="259" y="850" on="0"/>
        <pt x="333" y="677" on="0"/>
        <pt x="462" y="548" on="0"/>
        <pt x="635" y="474" on="0"/>
        <pt x="734" y="474" on="1"/>
        <pt x="833" y="474" on="0"/>
        <pt x="1006" y="548" on="0"/>
        <pt x="1135" y="677" on="0"/>
        <pt x="1209" y="850" on="0"/>
        <pt x="1209" y="949" on="1"/>
        <pt x="1209" y="1048" on="0"/>
        <pt x="1135" y="1221" on="0"/>
        <pt x="1006" y="1350" on="0"/>
        <pt x="833" y="1424" on="0"/>
        <pt x="734" y="1424" on="1"/>
        <pt x="635" y="1424" on="0"/>
        <pt x="462" y="1350" on="0"/>
        <pt x="333" y="1221" on="0"/>
        <pt x="259" y="1048" on="0"/>
      </contour>
      <contour>
        <pt x="120" y="949" on="1"/>
        <pt x="120" y="1076" on="0"/>
        <pt x="217" y="1300" on="0"/>
        <pt x="383" y="1466" on="0"/>
        <pt x="607" y="1562" on="0"/>
        <pt x="734" y="1562" on="1"/>
        <pt x="861" y="1562" on="0"/>
        <pt x="1085" y="1466" on="0"/>
        <pt x="1251" y="1300" on="0"/>
        <pt x="1347" y="1076" on="0"/>
        <pt x="1347" y="949" on="1"/>
        <pt x="1347" y="822" on="0"/>
        <pt x="1251" y="598" on="0"/>
        <pt x="1085" y="432" on="0"/>
        <pt x="861" y="335" on="0"/>
        <pt x="734" y="335" on="1"/>
        <pt x="649" y="335" on="0"/>
        <pt x="492" y="379" on="0"/>
        <pt x="356" y="459" on="0"/>
        <pt x="244" y="571" on="0"/>
        <pt x="164" y="707" on="0"/>
        <pt x="120" y="864" on="0"/>
      </contour>
    </TTGlyph>
    <TTGlyph name="currency" xMin="180" yMin="82" xMax="1091" yMax="1077">
      <contour>
        <pt x="185" y="191" on="1"/>
        <pt x="326" y="360" on="1"/>
        <pt x="288" y="408" on="0"/>
        <pt x="245" y="523" on="0"/>
        <pt x="245" y="588" on="1"/>
        <pt x="245" y="649" on="0"/>
        <pt x="284" y="759" on="0"/>
        <pt x="319" y="805" on="1"/>
        <pt x="180" y="970" on="1"/>
        <pt x="308" y="1077" on="1"/>
        <pt x="446" y="912" on="1"/>
        <pt x="488" y="935" on="0"/>
        <pt x="584" y="959" on="0"/>
        <pt x="636" y="959" on="1"/>
        <pt x="687" y="959" on="0"/>
        <pt x="782" y="935" on="0"/>
        <pt x="824" y="913" on="1"/>
        <pt x="962" y="1077" on="1"/>
        <pt x="1091" y="968" on="1"/>
        <pt x="953" y="804" on="1"/>
        <pt x="988" y="758" on="0"/>
        <pt x="1027" y="648" on="0"/>
        <pt x="1027" y="588" on="1"/>
        <pt x="1027" y="523" on="0"/>
        <pt x="983" y="407" on="0"/>
        <pt x="944" y="359" on="1"/>
        <pt x="1088" y="189" on="1"/>
        <pt x="960" y="82" on="1"/>
        <pt x="812" y="257" on="1"/>
        <pt x="730" y="217" on="0"/>
        <pt x="636" y="217" on="1"/>
        <pt x="588" y="217" on="0"/>
        <pt x="500" y="237" on="0"/>
        <pt x="460" y="256" on="1"/>
        <pt x="314" y="82" on="1"/>
      </contour>
      <contour>
        <pt x="421" y="588" on="1"/>
        <pt x="421" y="532" on="0"/>
        <pt x="455" y="448" on="0"/>
        <pt x="513" y="390" on="0"/>
        <pt x="592" y="361" on="0"/>
        <pt x="636" y="361" on="1"/>
        <pt x="680" y="361" on="0"/>
        <pt x="758" y="390" on="0"/>
        <pt x="816" y="448" on="0"/>
        <pt x="850" y="532" on="0"/>
        <pt x="850" y="588" on="1"/>
        <pt x="850" y="643" on="0"/>
        <pt x="816" y="728" on="0"/>
        <pt x="758" y="786" on="0"/>
        <pt x="680" y="815" on="0"/>
        <pt x="636" y="815" on="1"/>
        <pt x="592" y="815" on="0"/>
        <pt x="513" y="786" on="0"/>
        <pt x="455" y="728" on="0"/>
        <pt x="421" y="643" on="0"/>
      </contour>
    </TTGlyph>
    <TTGlyph name="d" xMin="98" yMin="-24" xMax="1132" yMax="1562">
      <contour>
        <pt x="979" y="132" on="1"/>
        <pt x="1132" y="98" on="1"/>
        <pt x="1112" y="0" on="1"/>
        <pt x="877" y="-22" on="1"/>
        <pt x="819" y="155" on="1"/>
        <pt x="746" y="60" on="0"/>
        <pt x="573" y="-24" on="0"/>
        <pt x="480" y="-22" on="1"/>
        <pt x="301" y="-22" on="0"/>
        <pt x="98" y="203" on="0"/>
        <pt x="98" y="413" on="1"/>
        <pt x="98" y="506" on="1"/>
        <pt x="98" y="787" on="0"/>
        <pt x="351" y="1107" on="0"/>
        <pt x="576" y="1107" on="1"/>
        <pt x="618" y="1107" on="0"/>
        <pt x="727" y="1096" on="0"/>
        <pt x="799" y="1083" on="1"/>
        <pt x="799" y="1408" on="1"/>
        <pt x="646" y="1442" on="1"/>
        <pt x="666" y="1540" on="1"/>
        <pt x="979" y="1562" on="1"/>
      </contour>
      <contour>
        <pt x="278" y="434" on="1"/>
        <pt x="278" y="271" on="0"/>
        <pt x="418" y="98" on="0"/>
        <pt x="535" y="98" on="1"/>
        <pt x="608" y="98" on="0"/>
        <pt x="753" y="177" on="0"/>
        <pt x="799" y="225" on="1"/>
        <pt x="799" y="960" on="1"/>
        <pt x="741" y="972" on="0"/>
        <pt x="613" y="987" on="0"/>
        <pt x="556" y="987" on="1"/>
        <pt x="491" y="987" on="0"/>
        <pt x="371" y="950" on="0"/>
        <pt x="328" y="920" on="1"/>
        <pt x="304" y="842" on="0"/>
        <pt x="278" y="655" on="0"/>
        <pt x="278" y="553" on="1"/>
      </contour>
    </TTGlyph>
    <TTGlyph name="dagger" xMin="90" yMin="-22" xMax="963" yMax="1562">
      <contour>
        <pt x="110" y="1085" on="1"/>
        <pt x="457" y="1065" on="1"/>
        <pt x="437" y="1540" on="1"/>
        <pt x="615" y="1562" on="1"/>
        <pt x="595" y="1065" on="1"/>
        <pt x="963" y="1085" on="1"/>
        <pt x="943" y="916" on="1"/>
        <pt x="595" y="936" on="1"/>
        <pt x="615" y="0" on="1"/>
        <pt x="437" y="-22" on="1"/>
        <pt x="457" y="936" on="1"/>
        <pt x="90" y="916" on="1"/>
      </contour>
    </TTGlyph>
    <TTGlyph name="daggerdbl" xMin="90" yMin="-22" xMax="964" yMax="1562">
      <contour>
        <pt x="943" y="455" on="1"/>
        <pt x="596" y="475" on="1"/>
        <pt x="616" y="0" on="1"/>
        <pt x="438" y="-22" on="1"/>
        <pt x="458" y="475" on="1"/>
        <pt x="90" y="455" on="1"/>
        <pt x="110" y="624" on="1"/>
        <pt x="458" y="604" on="1"/>
        <pt x="438" y="774" on="1"/>
        <pt x="458" y="936" on="1"/>
        <pt x="91" y="916" on="1"/>
        <pt x="111" y="1085" on="1"/>
        <pt x="458" y="1065" on="1"/>
        <pt x="438" y="1540" on="1"/>
        <pt x="616" y="1562" on="1"/>
        <pt x="596" y="1065" on="1"/>
        <pt x="964" y="1085" on="1"/>
        <pt x="944" y="916" on="1"/>
        <pt x="596" y="936" on="1"/>
        <pt x="616" y="774" on="1"/>
        <pt x="596" y="604" on="1"/>
        <pt x="963" y="624" on="1"/>
      </contour>
    </TTGlyph>
    <TTGlyph name="dcaron" xMin="98" yMin="-24" xMax="1289" yMax="1562">
      <component glyphName="d" x="0" y="0" flags="0x204"/>
      <component glyphName="caron.alt" x="1053" y="0" flags="0x4"/>
    </TTGlyph>
    <TTGlyph name="dcroat" xMin="98" yMin="-22" xMax="1132" yMax="1562">
      <contour>
        <pt x="979" y="1333" on="1"/>
        <pt x="1132" y="1333" on="1"/>
        <pt x="1132" y="1233" on="1"/>
        <pt x="979" y="1233" on="1"/>
        <pt x="979" y="132" on="1"/>
        <pt x="1132" y="98" on="1"/>
        <pt x="1112" y="0" on="1"/>
        <pt x="877" y="-22" on="1"/>
        <pt x="819" y="155" on="1"/>
        <pt x="798" y="128" on="0"/>
        <pt x="738" y="66" on="0"/>
        <pt x="656" y="13" on="0"/>
        <pt x="549" y="-22" on="0"/>
        <pt x="480" y="-22" on="1"/>
        <pt x="395" y="-22" on="0"/>
        <pt x="255" y="31" on="0"/>
        <pt x="154" y="139" on="0"/>
        <pt x="98" y="302" on="0"/>
        <pt x="98" y="413" on="1"/>
        <pt x="98" y="506" on="1"/>
        <pt x="98" y="643" on="0"/>
        <pt x="160" y="865" on="0"/>
        <pt x="280" y="1022" on="0"/>
        <pt x="459" y="1107" on="0"/>
        <pt x="576" y="1107" on="1"/>
        <pt x="629" y="1107" on="0"/>
        <pt x="745" y="1093" on="0"/>
        <pt x="799" y="1083" on="1"/>
        <pt x="799" y="1233" on="1"/>
        <pt x="439" y="1233" on="1"/>
        <pt x="439" y="1333" on="1"/>
        <pt x="799" y="1333" on="1"/>
        <pt x="799" y="1408" on="1"/>
        <pt x="646" y="1442" on="1"/>
        <pt x="666" y="1540" on="1"/>
        <pt x="979" y="1562" on="1"/>
      </contour>
      <contour>
        <pt x="278" y="434" on="1"/>
        <pt x="278" y="340" on="0"/>
        <pt x="321" y="212" on="0"/>
        <pt x="393" y="133" on="0"/>
        <pt x="486" y="98" on="0"/>
        <pt x="535" y="98" on="1"/>
        <pt x="589" y="98" on="0"/>
        <pt x="685" y="137" on="0"/>
        <pt x="721" y="161" on="1"/>
        <pt x="763" y="189" on="0"/>
        <pt x="799" y="225" on="1"/>
        <pt x="799" y="960" on="1"/>
        <pt x="756" y="969" on="0"/>
        <pt x="628" y="987" on="0"/>
        <pt x="556" y="987" on="1"/>
        <pt x="502" y="987" on="0"/>
        <pt x="417" y="966" on="0"/>
        <pt x="388" y="953" on="1"/>
        <pt x="354" y="938" on="0"/>
        <pt x="328" y="920" on="1"/>
        <pt x="314" y="876" on="0"/>
        <pt x="303" y="820" on="1"/>
        <pt x="293" y="772" on="0"/>
        <pt x="278" y="638" on="0"/>
        <pt x="278" y="553" on="1"/>
      </contour>
    </TTGlyph>
    <TTGlyph name="degree" xMin="80" yMin="1048" xMax="594" yMax="1562">
      <contour>
        <pt x="80" y="1305" on="1"/>
        <pt x="80" y="1358" on="0"/>
        <pt x="120" y="1452" on="0"/>
        <pt x="190" y="1522" on="0"/>
        <pt x="284" y="1562" on="0"/>
        <pt x="337" y="1562" on="1"/>
        <pt x="390" y="1562" on="0"/>
        <pt x="484" y="1522" on="0"/>
        <pt x="554" y="1452" on="0"/>
        <pt x="594" y="1358" on="0"/>
        <pt x="594" y="1305" on="1"/>
        <pt x="594" y="1252" on="0"/>
        <pt x="554" y="1158" on="0"/>
        <pt x="484" y="1088" on="0"/>
        <pt x="390" y="1048" on="0"/>
        <pt x="337" y="1048" on="1"/>
        <pt x="284" y="1048" on="0"/>
        <pt x="190" y="1088" on="0"/>
        <pt x="120" y="1158" on="0"/>
        <pt x="80" y="1252" on="0"/>
      </contour>
      <contour>
        <pt x="209" y="1305" on="1"/>
        <pt x="209" y="1269" on="0"/>
        <pt x="229" y="1214" on="0"/>
        <pt x="264" y="1176" on="0"/>
        <pt x="310" y="1157" on="0"/>
        <pt x="337" y="1157" on="1"/>
        <pt x="364" y="1157" on="0"/>
        <pt x="410" y="1176" on="0"/>
        <pt x="445" y="1214" on="0"/>
        <pt x="465" y="1269" on="0"/>
        <pt x="465" y="1305" on="1"/>
        <pt x="465" y="1341" on="0"/>
        <pt x="445" y="1396" on="0"/>
        <pt x="410" y="1434" on="0"/>
        <pt x="364" y="1453" on="0"/>
        <pt x="337" y="1453" on="1"/>
        <pt x="310" y="1453" on="0"/>
        <pt x="264" y="1434" on="0"/>
        <pt x="229" y="1396" on="0"/>
        <pt x="209" y="1341" on="0"/>
      </contour>
    </TTGlyph>
    <TTGlyph name="dieresis" xMin="200" yMin="1295" xMax="813" yMax="1510">
      <contour>
        <pt x="200" y="1384" on="1"/>
        <pt x="200" y="1409" on="0"/>
        <pt x="214" y="1455" on="0"/>
        <pt x="239" y="1490" on="0"/>
        <pt x="271" y="1510" on="0"/>
        <pt x="289" y="1510" on="1"/>
        <pt x="315" y="1510" on="0"/>
        <pt x="361" y="1496" on="0"/>
        <pt x="394" y="1471" on="0"/>
        <pt x="413" y="1438" on="0"/>
        <pt x="413" y="1420" on="1"/>
        <pt x="413" y="1395" on="0"/>
        <pt x="399" y="1350" on="0"/>
        <pt x="375" y="1315" on="0"/>
        <pt x="343" y="1295" on="0"/>
        <pt x="325" y="1295" on="1"/>
        <pt x="299" y="1295" on="0"/>
        <pt x="253" y="1309" on="0"/>
        <pt x="219" y="1334" on="0"/>
        <pt x="200" y="1366" on="0"/>
      </contour>
      <contour>
        <pt x="600" y="1384" on="1"/>
        <pt x="600" y="1409" on="0"/>
        <pt x="614" y="1455" on="0"/>
        <pt x="638" y="1490" on="0"/>
        <pt x="670" y="1510" on="0"/>
        <pt x="688" y="1510" on="1"/>
        <pt x="714" y="1510" on="0"/>
        <pt x="760" y="1496" on="0"/>
        <pt x="794" y="1471" on="0"/>
        <pt x="813" y="1438" on="0"/>
        <pt x="813" y="1420" on="1"/>
        <pt x="813" y="1395" on="0"/>
        <pt x="799" y="1350" on="0"/>
        <pt x="774" y="1315" on="0"/>
        <pt x="742" y="1295" on="0"/>
        <pt x="724" y="1295" on="1"/>
        <pt x="698" y="1295" on="0"/>
        <pt x="652" y="1309" on="0"/>
        <pt x="619" y="1334" on="0"/>
        <pt x="600" y="1366" on="0"/>
      </contour>
    </TTGlyph>
    <TTGlyph name="dieresis.case" xMin="-61" yMin="1492" xMax="612" yMax="1707">
      <contour>
        <pt x="-61" y="1581" on="1"/>
        <pt x="-61" y="1606" on="0"/>
        <pt x="-47" y="1652" on="0"/>
        <pt x="-22" y="1687" on="0"/>
        <pt x="10" y="1707" on="0"/>
        <pt x="28" y="1707" on="1"/>
        <pt x="54" y="1707" on="0"/>
        <pt x="100" y="1693" on="0"/>
        <pt x="133" y="1669" on="0"/>
        <pt x="152" y="1636" on="0"/>
        <pt x="152" y="1617" on="1"/>
        <pt x="152" y="1592" on="0"/>
        <pt x="138" y="1547" on="0"/>
        <pt x="114" y="1512" on="0"/>
        <pt x="82" y="1492" on="0"/>
        <pt x="64" y="1492" on="1"/>
        <pt x="38" y="1492" on="0"/>
        <pt x="-8" y="1506" on="0"/>
        <pt x="-42" y="1531" on="0"/>
        <pt x="-61" y="1563" on="0"/>
      </contour>
      <contour>
        <pt x="399" y="1581" on="1"/>
        <pt x="399" y="1606" on="0"/>
        <pt x="413" y="1652" on="0"/>
        <pt x="437" y="1687" on="0"/>
        <pt x="469" y="1707" on="0"/>
        <pt x="487" y="1707" on="1"/>
        <pt x="513" y="1707" on="0"/>
        <pt x="559" y="1693" on="0"/>
        <pt x="593" y="1669" on="0"/>
        <pt x="612" y="1636" on="0"/>
        <pt x="612" y="1617" on="1"/>
        <pt x="612" y="1592" on="0"/>
        <pt x="598" y="1547" on="0"/>
        <pt x="573" y="1512" on="0"/>
        <pt x="541" y="1492" on="0"/>
        <pt x="523" y="1492" on="1"/>
        <pt x="497" y="1492" on="0"/>
        <pt x="451" y="1506" on="0"/>
        <pt x="418" y="1531" on="0"/>
        <pt x="399" y="1563" on="0"/>
      </contour>
    </TTGlyph>
    <TTGlyph name="dieresisacute" xMin="53" yMin="1295" xMax="675" yMax="2007">
      <contour>
        <pt x="53" y="1384" on="1"/>
        <pt x="53" y="1409" on="0"/>
        <pt x="67" y="1455" on="0"/>
        <pt x="92" y="1490" on="0"/>
        <pt x="124" y="1510" on="0"/>
        <pt x="142" y="1510" on="1"/>
        <pt x="168" y="1510" on="0"/>
        <pt x="214" y="1496" on="0"/>
        <pt x="247" y="1471" on="0"/>
        <pt x="266" y="1438" on="0"/>
        <pt x="266" y="1420" on="1"/>
        <pt x="266" y="1395" on="0"/>
        <pt x="252" y="1350" on="0"/>
        <pt x="228" y="1315" on="0"/>
        <pt x="196" y="1295" on="0"/>
        <pt x="178" y="1295" on="1"/>
        <pt x="152" y="1295" on="0"/>
        <pt x="106" y="1309" on="0"/>
        <pt x="72" y="1334" on="0"/>
        <pt x="53" y="1366" on="0"/>
      </contour>
      <contour>
        <pt x="453" y="1384" on="1"/>
        <pt x="453" y="1409" on="0"/>
        <pt x="467" y="1455" on="0"/>
        <pt x="491" y="1490" on="0"/>
        <pt x="523" y="1510" on="0"/>
        <pt x="541" y="1510" on="1"/>
        <pt x="567" y="1510" on="0"/>
        <pt x="613" y="1496" on="0"/>
        <pt x="647" y="1471" on="0"/>
        <pt x="666" y="1438" on="0"/>
        <pt x="666" y="1420" on="1"/>
        <pt x="666" y="1395" on="0"/>
        <pt x="652" y="1350" on="0"/>
        <pt x="627" y="1315" on="0"/>
        <pt x="595" y="1295" on="0"/>
        <pt x="577" y="1295" on="1"/>
        <pt x="551" y="1295" on="0"/>
        <pt x="505" y="1309" on="0"/>
        <pt x="472" y="1334" on="0"/>
        <pt x="453" y="1366" on="0"/>
      </contour>
      <contour>
        <pt x="290" y="1644" on="1"/>
        <pt x="493" y="2007" on="1"/>
        <pt x="675" y="1997" on="1"/>
        <pt x="675" y="1931" on="1"/>
        <pt x="395" y="1602" on="1"/>
        <pt x="290" y="1612" on="1"/>
      </contour>
    </TTGlyph>
    <TTGlyph name="dieresisacute.case" xMin="-61" yMin="1492" xMax="683" yMax="2069">
      <contour>
        <pt x="-61" y="1581" on="1"/>
        <pt x="-61" y="1606" on="0"/>
        <pt x="-47" y="1652" on="0"/>
        <pt x="-22" y="1687" on="0"/>
        <pt x="10" y="1707" on="0"/>
        <pt x="28" y="1707" on="1"/>
        <pt x="54" y="1707" on="0"/>
        <pt x="100" y="1693" on="0"/>
        <pt x="133" y="1669" on="0"/>
        <pt x="152" y="1636" on="0"/>
        <pt x="152" y="1617" on="1"/>
        <pt x="152" y="1592" on="0"/>
        <pt x="138" y="1547" on="0"/>
        <pt x="114" y="1512" on="0"/>
        <pt x="82" y="1492" on="0"/>
        <pt x="64" y="1492" on="1"/>
        <pt x="38" y="1492" on="0"/>
        <pt x="-8" y="1506" on="0"/>
        <pt x="-42" y="1531" on="0"/>
        <pt x="-61" y="1563" on="0"/>
      </contour>
      <contour>
        <pt x="399" y="1581" on="1"/>
        <pt x="399" y="1606" on="0"/>
        <pt x="413" y="1652" on="0"/>
        <pt x="437" y="1687" on="0"/>
        <pt x="469" y="1707" on="0"/>
        <pt x="487" y="1707" on="1"/>
        <pt x="513" y="1707" on="0"/>
        <pt x="559" y="1693" on="0"/>
        <pt x="593" y="1669" on="0"/>
        <pt x="612" y="1636" on="0"/>
        <pt x="612" y="1617" on="1"/>
        <pt x="612" y="1592" on="0"/>
        <pt x="598" y="1547" on="0"/>
        <pt x="573" y="1512" on="0"/>
        <pt x="541" y="1492" on="0"/>
        <pt x="523" y="1492" on="1"/>
        <pt x="497" y="1492" on="0"/>
        <pt x="451" y="1506" on="0"/>
        <pt x="418" y="1531" on="0"/>
        <pt x="399" y="1563" on="0"/>
      </contour>
      <contour>
        <pt x="193" y="1788" on="1"/>
        <pt x="491" y="2069" on="1"/>
        <pt x="683" y="2059" on="1"/>
        <pt x="683" y="1993" on="1"/>
        <pt x="308" y="1745" on="1"/>
        <pt x="193" y="1756" on="1"/>
      </contour>
    </TTGlyph>
    <TTGlyph name="dieresiscaron" xMin="53" yMin="1295" xMax="666" yMax="2007">
      <contour>
        <pt x="60" y="1997" on="1"/>
        <pt x="185" y="2007" on="1"/>
        <pt x="378" y="1755" on="1"/>
        <pt x="564" y="2007" on="1"/>
        <pt x="659" y="1997" on="1"/>
        <pt x="659" y="1965" on="1"/>
        <pt x="426" y="1592" on="1"/>
        <pt x="293" y="1602" on="1"/>
        <pt x="60" y="1965" on="1"/>
      </contour>
      <contour>
        <pt x="53" y="1384" on="1"/>
        <pt x="53" y="1409" on="0"/>
        <pt x="67" y="1455" on="0"/>
        <pt x="92" y="1490" on="0"/>
        <pt x="124" y="1510" on="0"/>
        <pt x="142" y="1510" on="1"/>
        <pt x="168" y="1510" on="0"/>
        <pt x="214" y="1496" on="0"/>
        <pt x="247" y="1471" on="0"/>
        <pt x="266" y="1438" on="0"/>
        <pt x="266" y="1420" on="1"/>
        <pt x="266" y="1395" on="0"/>
        <pt x="252" y="1350" on="0"/>
        <pt x="228" y="1315" on="0"/>
        <pt x="196" y="1295" on="0"/>
        <pt x="178" y="1295" on="1"/>
        <pt x="152" y="1295" on="0"/>
        <pt x="106" y="1309" on="0"/>
        <pt x="72" y="1334" on="0"/>
        <pt x="53" y="1366" on="0"/>
      </contour>
      <contour>
        <pt x="453" y="1384" on="1"/>
        <pt x="453" y="1409" on="0"/>
        <pt x="467" y="1455" on="0"/>
        <pt x="491" y="1490" on="0"/>
        <pt x="523" y="1510" on="0"/>
        <pt x="541" y="1510" on="1"/>
        <pt x="567" y="1510" on="0"/>
        <pt x="613" y="1496" on="0"/>
        <pt x="647" y="1471" on="0"/>
        <pt x="666" y="1438" on="0"/>
        <pt x="666" y="1420" on="1"/>
        <pt x="666" y="1395" on="0"/>
        <pt x="652" y="1350" on="0"/>
        <pt x="627" y="1315" on="0"/>
        <pt x="595" y="1295" on="0"/>
        <pt x="577" y="1295" on="1"/>
        <pt x="551" y="1295" on="0"/>
        <pt x="505" y="1309" on="0"/>
        <pt x="472" y="1334" on="0"/>
        <pt x="453" y="1366" on="0"/>
      </contour>
    </TTGlyph>
    <TTGlyph name="dieresiscaron.case" xMin="-66" yMin="1492" xMax="623" yMax="2079">
      <contour>
        <pt x="-66" y="2069" on="1"/>
        <pt x="59" y="2079" on="1"/>
        <pt x="297" y="1887" on="1"/>
        <pt x="528" y="2079" on="1"/>
        <pt x="623" y="2069" on="1"/>
        <pt x="623" y="2037" on="1"/>
        <pt x="340" y="1745" on="1"/>
        <pt x="207" y="1755" on="1"/>
        <pt x="-66" y="2037" on="1"/>
      </contour>
      <contour>
        <pt x="-61" y="1581" on="1"/>
        <pt x="-61" y="1606" on="0"/>
        <pt x="-47" y="1652" on="0"/>
        <pt x="-22" y="1687" on="0"/>
        <pt x="10" y="1707" on="0"/>
        <pt x="28" y="1707" on="1"/>
        <pt x="54" y="1707" on="0"/>
        <pt x="100" y="1693" on="0"/>
        <pt x="133" y="1669" on="0"/>
        <pt x="152" y="1636" on="0"/>
        <pt x="152" y="1617" on="1"/>
        <pt x="152" y="1592" on="0"/>
        <pt x="138" y="1547" on="0"/>
        <pt x="114" y="1512" on="0"/>
        <pt x="82" y="1492" on="0"/>
        <pt x="64" y="1492" on="1"/>
        <pt x="38" y="1492" on="0"/>
        <pt x="-8" y="1506" on="0"/>
        <pt x="-42" y="1531" on="0"/>
        <pt x="-61" y="1563" on="0"/>
      </contour>
      <contour>
        <pt x="399" y="1581" on="1"/>
        <pt x="399" y="1606" on="0"/>
        <pt x="413" y="1652" on="0"/>
        <pt x="437" y="1687" on="0"/>
        <pt x="469" y="1707" on="0"/>
        <pt x="487" y="1707" on="1"/>
        <pt x="513" y="1707" on="0"/>
        <pt x="559" y="1693" on="0"/>
        <pt x="593" y="1669" on="0"/>
        <pt x="612" y="1636" on="0"/>
        <pt x="612" y="1617" on="1"/>
        <pt x="612" y="1592" on="0"/>
        <pt x="598" y="1547" on="0"/>
        <pt x="573" y="1512" on="0"/>
        <pt x="541" y="1492" on="0"/>
        <pt x="523" y="1492" on="1"/>
        <pt x="497" y="1492" on="0"/>
        <pt x="451" y="1506" on="0"/>
        <pt x="418" y="1531" on="0"/>
        <pt x="399" y="1563" on="0"/>
      </contour>
    </TTGlyph>
    <TTGlyph name="dieresisgrave" xMin="33" yMin="1295" xMax="666" yMax="2007">
      <contour>
        <pt x="53" y="1384" on="1"/>
        <pt x="53" y="1409" on="0"/>
        <pt x="67" y="1455" on="0"/>
        <pt x="92" y="1490" on="0"/>
        <pt x="124" y="1510" on="0"/>
        <pt x="142" y="1510" on="1"/>
        <pt x="168" y="1510" on="0"/>
        <pt x="214" y="1496" on="0"/>
        <pt x="247" y="1471" on="0"/>
        <pt x="266" y="1438" on="0"/>
        <pt x="266" y="1420" on="1"/>
        <pt x="266" y="1395" on="0"/>
        <pt x="252" y="1350" on="0"/>
        <pt x="228" y="1315" on="0"/>
        <pt x="196" y="1295" on="0"/>
        <pt x="178" y="1295" on="1"/>
        <pt x="152" y="1295" on="0"/>
        <pt x="106" y="1309" on="0"/>
        <pt x="72" y="1334" on="0"/>
        <pt x="53" y="1366" on="0"/>
      </contour>
      <contour>
        <pt x="453" y="1384" on="1"/>
        <pt x="453" y="1409" on="0"/>
        <pt x="467" y="1455" on="0"/>
        <pt x="491" y="1490" on="0"/>
        <pt x="523" y="1510" on="0"/>
        <pt x="541" y="1510" on="1"/>
        <pt x="567" y="1510" on="0"/>
        <pt x="613" y="1496" on="0"/>
        <pt x="647" y="1471" on="0"/>
        <pt x="666" y="1438" on="0"/>
        <pt x="666" y="1420" on="1"/>
        <pt x="666" y="1395" on="0"/>
        <pt x="652" y="1350" on="0"/>
        <pt x="627" y="1315" on="0"/>
        <pt x="595" y="1295" on="0"/>
        <pt x="577" y="1295" on="1"/>
        <pt x="551" y="1295" on="0"/>
        <pt x="505" y="1309" on="0"/>
        <pt x="472" y="1334" on="0"/>
        <pt x="453" y="1366" on="0"/>
      </contour>
      <contour>
        <pt x="441" y="1612" on="1"/>
        <pt x="323" y="1602" on="1"/>
        <pt x="33" y="1931" on="1"/>
        <pt x="33" y="1997" on="1"/>
        <pt x="208" y="2007" on="1"/>
        <pt x="441" y="1644" on="1"/>
      </contour>
    </TTGlyph>
    <TTGlyph name="dieresisgrave.case" xMin="-124" yMin="1492" xMax="612" yMax="2069">
      <contour>
        <pt x="-61" y="1581" on="1"/>
        <pt x="-61" y="1606" on="0"/>
        <pt x="-47" y="1652" on="0"/>
        <pt x="-22" y="1687" on="0"/>
        <pt x="10" y="1707" on="0"/>
        <pt x="28" y="1707" on="1"/>
        <pt x="54" y="1707" on="0"/>
        <pt x="100" y="1693" on="0"/>
        <pt x="133" y="1669" on="0"/>
        <pt x="152" y="1636" on="0"/>
        <pt x="152" y="1617" on="1"/>
        <pt x="152" y="1592" on="0"/>
        <pt x="138" y="1547" on="0"/>
        <pt x="114" y="1512" on="0"/>
        <pt x="82" y="1492" on="0"/>
        <pt x="64" y="1492" on="1"/>
        <pt x="38" y="1492" on="0"/>
        <pt x="-8" y="1506" on="0"/>
        <pt x="-42" y="1531" on="0"/>
        <pt x="-61" y="1563" on="0"/>
      </contour>
      <contour>
        <pt x="399" y="1581" on="1"/>
        <pt x="399" y="1606" on="0"/>
        <pt x="413" y="1652" on="0"/>
        <pt x="437" y="1687" on="0"/>
        <pt x="469" y="1707" on="0"/>
        <pt x="487" y="1707" on="1"/>
        <pt x="513" y="1707" on="0"/>
        <pt x="559" y="1693" on="0"/>
        <pt x="593" y="1669" on="0"/>
        <pt x="612" y="1636" on="0"/>
        <pt x="612" y="1617" on="1"/>
        <pt x="612" y="1592" on="0"/>
        <pt x="598" y="1547" on="0"/>
        <pt x="573" y="1512" on="0"/>
        <pt x="541" y="1492" on="0"/>
        <pt x="523" y="1492" on="1"/>
        <pt x="497" y="1492" on="0"/>
        <pt x="451" y="1506" on="0"/>
        <pt x="418" y="1531" on="0"/>
        <pt x="399" y="1563" on="0"/>
      </contour>
      <contour>
        <pt x="366" y="1756" on="1"/>
        <pt x="251" y="1745" on="1"/>
        <pt x="-124" y="1993" on="1"/>
        <pt x="-124" y="2059" on="1"/>
        <pt x="68" y="2069" on="1"/>
        <pt x="366" y="1788" on="1"/>
      </contour>
    </TTGlyph>
</ttFont>
